<svg width="100" height="100" viewBox="0 0 100 100" fill="none" xmlns="http://www.w3.org/2000/svg">
<circle cx="50" cy="50" r="50" fill="#FFD8D8"/>
<path d="M75.4407 25.4135L67.9864 17.9592C67.683 17.6542 67.3221 17.4123 66.9246 17.2476C66.5271 17.083 66.1009 16.9988 65.6706 17H42.5583C41.6901 17.001 40.8576 17.3464 40.2436 17.9603C39.6297 18.5743 39.2843 19.4067 39.2833 20.275V23.55H34.9167C34.0484 23.551 33.2159 23.8964 32.602 24.5103C31.988 25.1243 31.6426 25.9567 31.6417 26.825V30.1H27.275C26.4067 30.101 25.5743 30.4464 24.9603 31.0603C24.3463 31.6743 24.001 32.5067 24 33.375V79.225C24.001 80.0933 24.3463 80.9257 24.9603 81.5397C25.5743 82.1537 26.4067 82.499 27.275 82.5H57.8417C58.7099 82.499 59.5424 82.1537 60.1564 81.5397C60.7703 80.9257 61.1157 80.0933 61.1167 79.225V75.95H65.4833C66.3516 75.949 67.1841 75.6037 67.798 74.9897C68.412 74.3757 68.7573 73.5433 68.7583 72.675V69.4H73.125C73.9933 69.399 74.8257 69.0537 75.4397 68.4397C76.0537 67.8257 76.399 66.9933 76.4 66.125V27.7293C76.4012 27.2991 76.317 26.8728 76.1523 26.4753C75.9877 26.0778 75.7458 25.7169 75.4407 25.4135ZM67.6667 20.7272L72.6728 25.7333H68.7583C68.4689 25.733 68.1914 25.6179 67.9868 25.4132C67.7821 25.2086 67.667 24.9311 67.6667 24.6417V20.7272ZM31.6417 32.2833H34.9167V37.9969L33.2792 37.0145L31.6417 37.9969V32.2833ZM58.9333 79.225C58.933 79.5144 58.8179 79.7919 58.6132 79.9966C58.4086 80.2012 58.1311 80.3163 57.8417 80.3167H27.275C26.9856 80.3163 26.7081 80.2012 26.5034 79.9966C26.2988 79.7919 26.1837 79.5144 26.1833 79.225V33.375C26.1837 33.0856 26.2988 32.8081 26.5034 32.6035C26.7081 32.3988 26.9856 32.2837 27.275 32.2833H29.4583V41.8532L33.2792 39.5605L37.1 41.8532V32.2833H50.2V37.7417C50.201 38.61 50.5464 39.4424 51.1603 40.0564C51.7743 40.6703 52.6067 41.0157 53.475 41.0167H58.9333V79.225ZM52.3833 37.7417V33.8272L57.3894 38.8333H53.475C53.1856 38.833 52.9081 38.7179 52.7034 38.5132C52.4988 38.3086 52.3837 38.0311 52.3833 37.7417ZM66.575 72.675C66.5747 72.9644 66.4595 73.2419 66.2549 73.4466C66.0502 73.6512 65.7728 73.7663 65.4833 73.7667H61.1167V70.4917H64.3917V68.3083H61.1167V65.0333H64.3917V62.85H61.1167V59.575H64.3917V57.3917H61.1167V54.1167H64.3917V51.9333H61.1167V48.6583H64.3917V46.475H61.1167V43.2H64.3917V41.0167H61.1167V40.8293C61.1178 40.3991 61.0336 39.9728 60.869 39.5753C60.7043 39.1778 60.4625 38.8169 60.1574 38.5135L52.7031 31.0592C52.3997 30.7542 52.0388 30.5123 51.6413 30.3477C51.2438 30.183 50.8175 30.0988 50.3873 30.1H33.825V26.825C33.8253 26.5356 33.9405 26.2581 34.1451 26.0535C34.3498 25.8488 34.6272 25.7337 34.9167 25.7333H57.8417V31.1917C57.8427 32.06 58.188 32.8924 58.802 33.5064C59.416 34.1203 60.2484 34.4657 61.1167 34.4667H66.575V72.675ZM60.025 31.1917V27.2772L65.0311 32.2833H61.1167C60.8272 32.283 60.5498 32.1679 60.3451 31.9632C60.1404 31.7586 60.0253 31.4811 60.025 31.1917ZM74.2167 66.125C74.2163 66.4144 74.1012 66.6919 73.8966 66.8966C73.6919 67.1012 73.4144 67.2163 73.125 67.2167H68.7583V63.9417H72.0333V61.7583H68.7583V58.4833H72.0333V56.3H68.7583V53.025H72.0333V50.8417H68.7583V47.5667H72.0333V45.3833H68.7583V42.1083H72.0333V39.925H68.7583V36.65H72.0333V34.4667H68.7583V34.2793C68.7595 33.8491 68.6753 33.4228 68.5107 33.0253C68.346 32.6278 68.1041 32.2669 67.7991 31.9635L60.3447 24.5092C60.0413 24.2042 59.6804 23.9623 59.2829 23.7977C58.8854 23.633 58.4592 23.5488 58.029 23.55H41.4667V20.275C41.467 19.9856 41.5821 19.7081 41.7868 19.5035C41.9914 19.2988 42.2689 19.1837 42.5583 19.1833H65.4833V24.6417C65.4843 25.51 65.8297 26.3424 66.4437 26.9564C67.0576 27.5703 67.89 27.9157 68.7583 27.9167H74.2167V66.125Z" fill="#DD0000"/>
<path d="M55.6583 44.291H29.4583V46.4743H55.6583V44.291Z" fill="#DD0000"/>
<path d="M55.6583 48.6582H29.4583V50.8415H55.6583V48.6582Z" fill="#DD0000"/>
<path d="M55.6583 53.0254H29.4583V55.2087H55.6583V53.0254Z" fill="#DD0000"/>
<path d="M29.4583 68.3092H55.6583V57.3926H29.4583V68.3092ZM31.6416 59.5759H53.475V66.1259H31.6416V59.5759Z" fill="#DD0000"/>
<path d="M41.4666 70.4922H29.4583V72.6755H41.4666V70.4922Z" fill="#DD0000"/>
<path d="M55.6583 74.8574H29.4583V77.0408H55.6583V74.8574Z" fill="#DD0000"/>
</svg>
