<svg width="50" height="50" viewBox="0 0 50 50" fill="none" xmlns="http://www.w3.org/2000/svg">
<circle cx="25" cy="25" r="25" fill="#FFCECE" fill-opacity="0.6"/>
<path fill-rule="evenodd" clip-rule="evenodd" d="M12 14.8226V36.1935C12 36.6391 12.4068 37 12.9091 37H37.4545C37.9568 37 38.3636 36.6391 38.3636 36.1935V14.8226C38.3636 14.377 37.9568 14.0161 37.4545 14.0161H35.1818V12.8065C35.1818 12.3613 34.7745 12 34.2727 12C33.7709 12 33.3636 12.3613 33.3636 12.8065V14.0161H30.6364V12.8065C30.6364 12.3613 30.2291 12 29.7273 12C29.2255 12 28.8182 12.3613 28.8182 12.8065V14.0161H26.0909V12.8065C26.0909 12.3613 25.6836 12 25.1818 12C24.68 12 24.2727 12.3613 24.2727 12.8065V14.0161H21.5455V12.8065C21.5455 12.3613 21.1382 12 20.6364 12C20.1345 12 19.7273 12.3613 19.7273 12.8065V14.0161H17V12.8065C17 12.3613 16.5927 12 16.0909 12C15.5891 12 15.1818 12.3613 15.1818 12.8065V14.0161H12.9091C12.4068 14.0161 12 14.377 12 14.8226ZM36.5455 19.6613H13.8182V35.3871H36.5455V19.6613ZM36.5455 18.0484V15.629H35.1818V16.4355C35.1818 16.8806 34.7745 17.2419 34.2727 17.2419C33.7709 17.2419 33.3636 16.8806 33.3636 16.4355V15.629H30.6364V16.4355C30.6364 16.8806 30.2291 17.2419 29.7273 17.2419C29.2255 17.2419 28.8182 16.8806 28.8182 16.4355V15.629H26.0909V16.4355C26.0909 16.8806 25.6836 17.2419 25.1818 17.2419C24.68 17.2419 24.2727 16.8806 24.2727 16.4355V15.629H21.5455V16.4355C21.5455 16.8806 21.1382 17.2419 20.6364 17.2419C20.1345 17.2419 19.7273 16.8806 19.7273 16.4355V15.629H17V16.4355C17 16.8806 16.5927 17.2419 16.0909 17.2419C15.5891 17.2419 15.1818 16.8806 15.1818 16.4355V15.629H13.8182V18.0484H36.5455Z" fill="#DD0000"/>
<path fill-rule="evenodd" clip-rule="evenodd" d="M17 25.182H19.7273C20.2291 25.182 20.6364 24.7747 20.6364 24.2729C20.6364 23.771 20.2291 23.3638 19.7273 23.3638H17C16.4982 23.3638 16.0909 23.771 16.0909 24.2729C16.0909 24.7747 16.4982 25.182 17 25.182Z" fill="#DD0000"/>
<path fill-rule="evenodd" clip-rule="evenodd" d="M17 28.8182H19.7273C20.2291 28.8182 20.6364 28.4109 20.6364 27.9091C20.6364 27.4073 20.2291 27 19.7273 27H17C16.4982 27 16.0909 27.4073 16.0909 27.9091C16.0909 28.4109 16.4982 28.8182 17 28.8182Z" fill="#DD0000"/>
<path fill-rule="evenodd" clip-rule="evenodd" d="M17 32.4544H19.7273C20.2291 32.4544 20.6364 32.0471 20.6364 31.5453C20.6364 31.0435 20.2291 30.6362 19.7273 30.6362H17C16.4982 30.6362 16.0909 31.0435 16.0909 31.5453C16.0909 32.0471 16.4982 32.4544 17 32.4544Z" fill="#DD0000"/>
<path fill-rule="evenodd" clip-rule="evenodd" d="M23.8181 25.182H26.5454C27.0472 25.182 27.4545 24.7747 27.4545 24.2729C27.4545 23.771 27.0472 23.3638 26.5454 23.3638H23.8181C23.3163 23.3638 22.9091 23.771 22.9091 24.2729C22.9091 24.7747 23.3163 25.182 23.8181 25.182Z" fill="#DD0000"/>
<path fill-rule="evenodd" clip-rule="evenodd" d="M23.8181 28.8182H26.5454C27.0472 28.8182 27.4545 28.4109 27.4545 27.9091C27.4545 27.4073 27.0472 27 26.5454 27H23.8181C23.3163 27 22.9091 27.4073 22.9091 27.9091C22.9091 28.4109 23.3163 28.8182 23.8181 28.8182Z" fill="#DD0000"/>
<path fill-rule="evenodd" clip-rule="evenodd" d="M23.8181 32.4544H26.5454C27.0472 32.4544 27.4545 32.0471 27.4545 31.5453C27.4545 31.0435 27.0472 30.6362 26.5454 30.6362H23.8181C23.3163 30.6362 22.9091 31.0435 22.9091 31.5453C22.9091 32.0471 23.3163 32.4544 23.8181 32.4544Z" fill="#DD0000"/>
<path fill-rule="evenodd" clip-rule="evenodd" d="M30.6364 25.182H33.3637C33.8655 25.182 34.2727 24.7747 34.2727 24.2729C34.2727 23.771 33.8655 23.3638 33.3637 23.3638H30.6364C30.1346 23.3638 29.7273 23.771 29.7273 24.2729C29.7273 24.7747 30.1346 25.182 30.6364 25.182Z" fill="#DD0000"/>
<path fill-rule="evenodd" clip-rule="evenodd" d="M30.6364 28.8182H33.3637C33.8655 28.8182 34.2727 28.4109 34.2727 27.9091C34.2727 27.4073 33.8655 27 33.3637 27H30.6364C30.1346 27 29.7273 27.4073 29.7273 27.9091C29.7273 28.4109 30.1346 28.8182 30.6364 28.8182Z" fill="#DD0000"/>
</svg>
