<svg width="100" height="100" viewBox="0 0 100 100" fill="none" xmlns="http://www.w3.org/2000/svg">
<circle cx="50" cy="50" r="50" fill="#FFD8D8"/>
<path d="M81.4622 21H18.9197C18.412 21 18 21.412 18 21.9197V66.0674C18 66.5751 18.412 66.9871 18.9197 66.9871H43.063C42.9011 67.5886 42.9618 68.2269 43.2727 68.7953C43.8153 69.7923 44.8785 70.346 46.0521 70.0204V77.7573C46.0521 78.1233 46.2692 78.4544 46.6058 78.5998C46.9388 78.7451 47.3306 78.6789 47.5991 78.4287L50.191 76.0153L52.7828 78.4305C52.9576 78.5924 53.182 78.677 53.4101 78.677C53.5333 78.677 53.6602 78.6513 53.7761 78.5998C54.1128 78.4526 54.3298 78.1233 54.3298 77.7573V70.0186C54.9203 70.1712 55.542 70.1124 56.092 69.8126C56.9106 69.3656 57.4201 68.5194 57.4201 67.6033C57.4201 67.4028 57.3815 67.1931 57.3227 66.9871H81.4622C81.9699 66.9871 82.3819 66.5751 82.3819 66.0674V21.9197C82.3819 21.412 81.9699 21 81.4622 21ZM50.8182 74.0875C50.4669 73.7582 49.9169 73.7582 49.5637 74.0875L47.8916 75.6456V70.4104C48.2485 71.3853 49.1351 72.0586 50.191 72.0586C51.245 72.0586 52.1316 71.3871 52.4903 70.4085V75.6456L50.8182 74.0875ZM55.2109 68.1975C55.0049 68.3115 54.7897 68.2968 54.5634 68.1515C54.247 67.951 53.8644 67.8241 53.4873 67.791C53.3935 67.7781 53.2942 67.7689 53.2427 67.7689C52.0636 67.7689 51.0666 68.5654 50.8201 69.6985C50.6472 70.4601 49.7293 70.4545 49.56 69.704C49.3099 68.5635 48.3129 67.767 47.1356 67.767C47.0859 67.767 46.9958 67.7762 46.9038 67.7891C46.9001 67.7891 46.8965 67.7891 46.8928 67.791H46.8909C46.8505 67.7946 46.8118 67.8093 46.7714 67.8149C46.7438 67.8204 46.7052 67.8259 46.6886 67.8314L46.6849 67.8333C46.3777 67.8866 46.076 67.9859 45.8332 68.1386C45.6566 68.2453 45.5224 68.2839 45.4617 68.2839C45.2391 68.2839 45.0073 68.1331 44.8859 67.9105C44.77 67.6971 44.7774 67.4819 44.9043 67.2851C45.1416 66.9301 45.2667 66.5401 45.2777 66.1262C45.2906 66.0508 45.2979 65.9809 45.2979 65.9294C45.2979 64.7797 44.5088 63.7846 43.3683 63.5068C42.9177 63.4038 42.8514 63.0672 42.8514 62.8759C42.8514 62.7581 42.8882 62.3626 43.3886 62.2596C43.876 62.1364 44.2899 61.8641 44.6284 61.4926C44.6541 61.4705 44.6799 61.4484 44.7038 61.4227C44.7222 61.4006 44.7479 61.3877 44.7663 61.3638C44.805 61.3123 44.8215 61.2498 44.8565 61.1946C44.8638 61.178 44.8749 61.1651 44.8804 61.1486C45.1361 60.7365 45.2979 60.2785 45.2979 59.8205C45.2979 59.3422 45.1618 58.8639 44.9282 58.5016C44.8123 58.3066 44.8031 58.1944 44.8031 58.1649C44.8031 57.9295 44.9521 57.6903 45.1729 57.5671C45.3881 57.4512 45.5996 57.4659 45.7762 57.5708C46.1588 57.843 46.6169 57.981 47.1374 57.981C48.3129 57.981 49.3099 57.1937 49.5619 56.0606C49.6667 55.586 50.0365 55.5345 50.191 55.5345C50.3455 55.5345 50.7152 55.586 50.8219 56.0716C51.0022 56.8442 51.5504 57.488 52.2935 57.7915C53.0403 58.0987 53.8865 58.0251 54.5487 57.6094C54.9736 57.3482 55.325 57.5322 55.5016 57.8504C55.6156 58.0564 55.6046 58.2679 55.4703 58.4758C55.222 58.8621 55.0858 59.3404 55.0858 59.8186C55.0858 60.2693 55.2477 60.72 55.5016 61.1394C55.5126 61.167 55.5292 61.189 55.542 61.2148C55.577 61.2681 55.5917 61.3288 55.6322 61.3822C55.6487 61.4043 55.6745 61.4153 55.691 61.4355C55.7039 61.4503 55.7186 61.4613 55.7333 61.4742C56.0663 61.8513 56.4912 62.1309 56.9952 62.256C57.0099 62.2596 57.0228 62.2615 57.0339 62.2651C57.4956 62.359 57.5324 62.7544 57.5324 62.8722C57.5324 63.0635 57.4661 63.4001 57.0026 63.505C55.875 63.7809 55.0858 64.776 55.0858 65.9257V65.9331C55.0858 65.9441 55.0914 65.9662 55.0914 65.9791C55.0932 66.0232 55.0969 66.0674 55.1061 66.1225C55.1061 66.1446 55.1153 66.163 55.1171 66.1851C55.1189 66.1961 55.1189 66.2035 55.1226 66.2145C55.1484 66.5935 55.2606 66.954 55.4721 67.2704C55.5439 67.3826 55.5843 67.5242 55.5843 67.6015C55.5807 67.8388 55.4335 68.0779 55.2109 68.1975ZM56.9474 59.8867C56.9456 59.8646 56.9235 59.8425 56.9235 59.8223C56.9235 59.6972 56.9603 59.5629 57.0173 59.471C57.5121 58.6984 57.5471 57.7639 57.1129 56.9711C56.4471 55.7571 54.9295 55.2346 53.5811 56.0477C53.3328 56.204 53.0863 56.1323 52.9925 56.0937C52.9005 56.055 52.6798 55.9373 52.6173 55.6724C52.3616 54.4915 51.3866 53.6968 50.1928 53.6968C48.999 53.6968 48.0222 54.4915 47.7684 55.6651C47.6948 55.9925 47.3913 56.1415 47.1393 56.1415C46.9406 56.1415 46.8689 56.09 46.8008 56.044C46.0172 55.5529 45.0772 55.5198 44.2844 55.9576C43.4713 56.4082 42.9636 57.2525 42.9636 58.1649C42.9636 58.5862 43.0942 59.0185 43.3665 59.471C43.4235 59.5611 43.4603 59.6954 43.4603 59.8205C43.4603 59.8425 43.4401 59.8628 43.4364 59.8849H28.9578C28.5752 57.7492 26.8865 56.0624 24.7527 55.6798V32.3055C26.8865 31.9229 28.5752 30.2361 28.9578 28.1004H71.4278C71.8104 30.2361 73.4991 31.9229 75.6329 32.3055V55.6816C73.4991 56.0642 71.8104 57.751 71.4278 59.8867H56.9474ZM79.5425 64.1476L57.7954 65.1476C58.7391 64.7724 59.37 63.9225 59.37 62.8759C59.37 62.4491 59.2412 62.072 59.0591 61.7262H72.2648C72.7725 61.7262 73.1845 61.3141 73.1845 60.8064C73.1845 58.9504 74.6947 57.4402 76.5508 57.4402C77.0585 57.4402 77.4705 57.0281 77.4705 56.5204V31.4667C77.4705 30.959 77.0585 30.5469 76.5508 30.5469C74.6947 30.5469 73.1845 29.0367 73.1845 27.1807C73.1845 26.673 72.7725 26.2609 72.2648 26.2609H28.1172C27.6095 26.2609 27.1974 26.673 27.1974 27.1807C27.1974 29.0367 25.6872 30.5469 23.8312 30.5469C23.3235 30.5469 22.9114 30.959 22.9114 31.4667V56.5204C22.9114 57.0281 23.3235 57.4402 23.8312 57.4402C25.6872 57.4402 27.1974 58.9504 27.1974 60.8064C27.1974 61.3141 27.6095 61.7262 28.1172 61.7262H41.321C41.1389 62.072 41.0101 62.4491 41.0101 62.8759C41.0101 63.9244 41.6429 64.776 42.581 65.1476L20.8395 64.1476V23.8395H79.5425V64.1476Z" fill="#DD0000"/>
<path d="M32.6018 41.733H40.1897C40.6974 41.733 41.1094 41.321 41.1094 40.8133V33.2254C41.1094 32.7177 40.6974 32.3057 40.1897 32.3057H32.6018C32.0941 32.3057 31.6821 32.7177 31.6821 33.2254V40.8133C31.6821 41.3228 32.0923 41.733 32.6018 41.733ZM33.5216 34.1451H39.2699V39.8935H33.5216V34.1451Z" fill="#DD0000"/>
<path d="M67.7819 32.3057H46.8578C46.3501 32.3057 45.9381 32.7177 45.9381 33.2254C45.9381 33.7331 46.3501 34.1451 46.8578 34.1451H67.7819C68.2896 34.1451 68.7017 33.7331 68.7017 33.2254C68.7017 32.7177 68.2896 32.3057 67.7819 32.3057Z" fill="#DD0000"/>
<path d="M67.7819 39.8936H46.8578C46.3501 39.8936 45.9381 40.3056 45.9381 40.8133C45.9381 41.321 46.3501 41.733 46.8578 41.733H67.7819C68.2896 41.733 68.7017 41.321 68.7017 40.8133C68.7017 40.3056 68.2896 39.8936 67.7819 39.8936Z" fill="#DD0000"/>
<path d="M67.7819 47.5693H32.6018C32.0941 47.5693 31.6821 47.9814 31.6821 48.4891C31.6821 48.9968 32.0941 49.4088 32.6018 49.4088H67.7819C68.2896 49.4088 68.7017 48.9968 68.7017 48.4891C68.7017 47.9814 68.2896 47.5693 67.7819 47.5693Z" fill="#DD0000"/>
<path d="M50.191 58.7368C47.91 58.7368 46.0522 60.5929 46.0522 62.8757C46.0522 62.9308 46.0595 62.9989 46.0742 63.0706C46.1644 65.2891 47.956 67.0145 50.191 67.0145C52.426 67.0145 54.2176 65.2891 54.3078 63.0706C54.3225 62.9989 54.3298 62.9308 54.3298 62.8757C54.3298 60.5947 52.472 58.7368 50.191 58.7368ZM50.191 65.175C48.9383 65.175 47.9358 64.1964 47.91 62.9492C47.9082 62.8977 47.9027 62.8462 47.8935 62.7966C47.9358 61.5659 48.9493 60.5781 50.191 60.5781C50.5019 60.5781 50.7962 60.6407 51.0666 60.7511C51.326 60.8577 51.5596 61.0178 51.7601 61.2072C51.7674 61.2146 51.7785 61.2164 51.7877 61.2256C52.2016 61.6266 52.4664 62.1803 52.4885 62.7984C52.4793 62.8481 52.4738 62.8996 52.472 62.9511C52.4462 64.1982 51.4437 65.175 50.191 65.175Z" fill="#DD0000"/>
</svg>
