<svg width="100" height="100" viewBox="0 0 100 100" fill="none" xmlns="http://www.w3.org/2000/svg">
<circle cx="50" cy="50" r="50" fill="#FFD8D8"/>
<path d="M70.625 77H54.875C54.2529 77 53.75 76.496 53.75 75.875V24.125C53.75 23.504 54.2529 23 54.875 23H70.625C71.2471 23 71.75 23.504 71.75 24.125V75.875C71.75 76.496 71.2471 77 70.625 77ZM56 74.75H69.5V25.25H56V74.75Z" fill="#DD0000"/>
<path d="M60.5 32H54.875V34.25H60.5V32Z" fill="#DD0000"/>
<path d="M60.5 38.75H54.875V41H60.5V38.75Z" fill="#DD0000"/>
<path d="M60.5 45.5H54.875V47.75H60.5V45.5Z" fill="#DD0000"/>
<path d="M60.5 52.251H54.875V54.501H60.5V52.251Z" fill="#DD0000"/>
<path d="M60.5 59H54.875V61.25H60.5V59Z" fill="#DD0000"/>
<path d="M60.5 65.75H54.875V68H60.5V65.75Z" fill="#DD0000"/>
<path d="M39.125 74.7496H34.625C31.5234 74.7496 29 72.2262 29 69.1246V36.4996C29 36.278 29.0664 36.0597 29.189 35.8752L35.939 25.7502C36.3564 25.1236 37.3936 25.1236 37.811 25.7502L44.561 35.8752C44.6836 36.0597 44.75 36.278 44.75 36.4996V69.1246C44.75 72.2262 42.2266 74.7496 39.125 74.7496ZM31.25 36.8405V69.1246C31.25 70.9854 32.7643 72.4996 34.625 72.4996H39.125C40.9858 72.4996 42.5 70.9854 42.5 69.1246V36.8405L36.875 28.403L31.25 36.8405Z" fill="#DD0000"/>
<path d="M43.625 68H30.125C29.5029 68 29 67.496 29 66.875C29 66.254 29.5029 65.75 30.125 65.75H43.625C44.2471 65.75 44.75 66.254 44.75 66.875C44.75 67.496 44.2471 68 43.625 68Z" fill="#DD0000"/>
<path d="M43.625 63.499H30.125C29.5029 63.499 29 62.995 29 62.374C29 61.753 29.5029 61.249 30.125 61.249H43.625C44.2471 61.249 44.75 61.753 44.75 62.374C44.75 62.995 44.2471 63.499 43.625 63.499Z" fill="#DD0000"/>
<path d="M34.625 63.5C34.0029 63.5 33.5 62.996 33.5 62.375V41C33.5 40.379 34.0029 39.875 34.625 39.875C35.2471 39.875 35.75 40.379 35.75 41V62.375C35.75 62.996 35.2471 63.5 34.625 63.5Z" fill="#DD0000"/>
<path d="M39.125 63.5C38.5029 63.5 38 62.996 38 62.375V41C38 40.379 38.5029 39.875 39.125 39.875C39.7471 39.875 40.25 40.379 40.25 41V62.375C40.25 62.996 39.7471 63.5 39.125 63.5Z" fill="#DD0000"/>
<path d="M40.25 30.875H33.5V33.125H40.25V30.875Z" fill="#DD0000"/>
<path d="M33.5 42.125C31.0182 42.125 29 40.1068 29 37.625C29 37.004 29.5029 36.5 30.125 36.5C30.7471 36.5 31.25 37.004 31.25 37.625C31.25 38.8659 32.2591 39.875 33.5 39.875C34.7409 39.875 35.75 38.8659 35.75 37.625C35.75 37.004 36.2529 36.5 36.875 36.5C37.4971 36.5 38 37.004 38 37.625C38 40.1068 35.9818 42.125 33.5 42.125Z" fill="#DD0000"/>
<path d="M40.25 42.125C37.7682 42.125 35.75 40.1068 35.75 37.625C35.75 37.004 36.2529 36.5 36.875 36.5C37.4971 36.5 38 37.004 38 37.625C38 38.8659 39.0091 39.875 40.25 39.875C41.4909 39.875 42.5 38.8659 42.5 37.625C42.5 37.004 43.0029 36.5 43.625 36.5C44.2471 36.5 44.75 37.004 44.75 37.625C44.75 40.1068 42.7318 42.125 40.25 42.125Z" fill="#DD0000"/>
</svg>
