<svg width="100" height="100" viewBox="0 0 100 100" fill="none" xmlns="http://www.w3.org/2000/svg">
<circle cx="50" cy="50" r="50" fill="#FFD8D8"/>
<path d="M79.6129 57.3319V50C79.6129 48.572 78.6927 47.3655 77.4194 46.9115V43.4194C77.4194 28.3003 65.119 16 50 16C34.881 16 22.5806 28.3003 22.5806 43.4194V46.9115C21.3073 47.3655 20.3871 48.572 20.3871 50V57.3319C17.7976 58.5669 16 61.2035 16 64.2581V66.4516C16 70.6852 19.445 74.129 23.6774 74.129H24.9299C25.4202 76.0155 27.1224 77.4194 29.1613 77.4194H31.3548C33.7743 77.4194 35.7419 75.4517 35.7419 73.0323V64.337C35.9953 64.6211 36.2618 64.8942 36.5546 65.1454L50 76.6703L63.4464 65.1465C63.7393 64.8953 64.0047 64.6222 64.2581 64.3381V73.0323C64.2581 75.4134 66.1676 77.3481 68.5355 77.4084C68.0299 79.9134 65.8133 81.8064 63.1613 81.8064H57.2585L55.9741 79.2378C55.4137 78.1158 54.2851 77.4194 53.0315 77.4194H45.6129C43.7988 77.4194 42.3226 78.8956 42.3226 80.7097C42.3226 82.5237 43.7988 84 45.6129 84H56.5806H58.3552H63.1613C67.0208 84 70.2157 81.1341 70.751 77.4194H70.8387C72.8776 77.4194 74.5798 76.0155 75.0701 74.129H76.3226C80.555 74.129 84 70.6852 84 66.4516V64.2581C84 61.2035 82.2024 58.5669 79.6129 57.3319ZM45.6129 81.8064C45.0075 81.8064 44.5161 81.314 44.5161 80.7097C44.5161 80.1054 45.0075 79.6129 45.6129 79.6129H53.0315C53.4494 79.6129 53.8256 79.8454 54.0131 80.2194L54.8061 81.8064H45.6129ZM50 18.1935C63.9104 18.1935 75.2258 29.5101 75.2258 43.4194V46.7097H73.0323V43.4194C73.0323 30.7187 62.6996 20.3871 50 20.3871C37.3005 20.3871 26.9677 30.7187 26.9677 43.4194V46.7097H24.7742V43.4194C24.7742 29.5101 36.0896 18.1935 50 18.1935ZM68.6452 50V53.2903C67.3992 53.2903 66.2805 53.8179 65.481 54.6536C64.3162 52.4129 62.1983 50.7469 59.6648 50.1985C58.7347 45.6557 54.7194 42.3226 50 42.3226C45.2773 42.3226 41.2642 45.6546 40.3341 50.1985C37.8017 50.7469 35.6838 52.4129 34.519 54.6536C33.7195 53.8179 32.6008 53.2903 31.3548 53.2903V50C31.3548 48.572 30.4346 47.3655 29.1613 46.9115V43.4194C29.1613 31.9285 38.5091 22.5806 50 22.5806C61.4909 22.5806 70.8387 31.9285 70.8387 43.4194V46.9115C69.5654 47.3655 68.6452 48.572 68.6452 50ZM57.355 50H57.0468C54.3509 50 51.7757 51.2876 50.1601 53.4439L50 53.6555L49.8399 53.4428C48.2243 51.2876 45.6491 50 42.9532 50H42.6439C43.5937 46.7985 46.5528 44.5161 50 44.5161C53.445 44.5161 56.4052 46.7996 57.355 50ZM18.1935 66.4516V64.2581C18.1935 61.2343 20.6536 58.7742 23.6774 58.7742H24.7742V71.9355H23.6774C20.6536 71.9355 18.1935 69.4754 18.1935 66.4516ZM24.9299 56.5806H23.6774C23.3045 56.5806 22.9404 56.6168 22.5806 56.6684V50C22.5806 49.3957 23.072 48.9032 23.6774 48.9032H28.0645C28.6699 48.9032 29.1613 49.3957 29.1613 50V53.2903C27.1224 53.2903 25.4202 54.6942 24.9299 56.5806ZM33.5484 73.0323C33.5484 74.242 32.5646 75.2258 31.3548 75.2258H29.1613C27.9515 75.2258 26.9677 74.242 26.9677 73.0323V57.6774C26.9677 56.4677 27.9515 55.4839 29.1613 55.4839H31.3548C32.5646 55.4839 33.5484 56.4677 33.5484 57.6774V73.0323ZM62.0185 63.4805L50 73.7814L37.9826 63.4805C36.5579 62.2597 35.7419 60.4841 35.7419 58.6097C35.7419 55.0715 38.6199 52.1936 42.1581 52.1936H42.9543C44.9636 52.1936 46.8819 53.1532 48.0872 54.76L50 57.3122L51.9139 54.76C53.1192 53.1532 55.0375 52.1936 57.0468 52.1936H57.843C61.3812 52.1936 64.2592 55.0715 64.2592 58.6097C64.2581 60.4841 63.4421 62.2597 62.0185 63.4805ZM73.0323 73.0323C73.0323 74.242 72.0485 75.2258 70.8387 75.2258H68.6452C67.4354 75.2258 66.4516 74.242 66.4516 73.0323V57.6774C66.4516 56.4677 67.4354 55.4839 68.6452 55.4839H70.8387C72.0485 55.4839 73.0323 56.4677 73.0323 57.6774V73.0323ZM70.8387 53.2903V50C70.8387 49.3957 71.3301 48.9032 71.9355 48.9032H76.3226C76.928 48.9032 77.4194 49.3957 77.4194 50V56.6684C77.0596 56.6168 76.6955 56.5806 76.3226 56.5806H75.0701C74.5798 54.6942 72.8776 53.2903 70.8387 53.2903ZM81.8064 66.4516C81.8064 69.4754 79.3464 71.9355 76.3226 71.9355H75.2258V58.7742H76.3226C79.3464 58.7742 81.8064 61.2343 81.8064 64.2581V66.4516Z" fill="#DD0000"/>
<path d="M63.0527 46.4862L64.507 43.435L58.7577 37.6857L55.7065 39.14C55.5376 39.0654 55.3654 38.9941 55.1932 38.9272L54.0657 35.7422H45.9342L44.8068 38.9272C44.6346 38.9952 44.4635 39.0654 44.2935 39.14L41.2422 37.6857L35.493 43.435L36.9473 46.4862C36.8727 46.6573 36.8014 46.8284 36.7345 46.9995L33.5484 48.1281V51.097H35.7419V49.6789L38.4455 48.7203L38.6188 48.2246C38.7668 47.8012 38.9434 47.3746 39.1452 46.9556L39.3744 46.4818L38.1395 43.8901L41.6952 40.3322L44.2869 41.5683L44.7618 41.339C45.1764 41.1383 45.6041 40.9606 46.0297 40.8115L46.5254 40.6382L47.4851 37.9357H52.5149L53.4735 40.6382L53.9692 40.8115C54.3959 40.9606 54.8225 41.1383 55.2371 41.339L55.712 41.5683L58.3037 40.3322L61.8594 43.8901L60.6244 46.4818L60.8537 46.9556C61.0566 47.3746 61.2332 47.8012 61.3801 48.2246L61.5534 48.7203L64.2581 49.6789V51.097H66.4516V48.1281L63.2666 46.9995C63.1986 46.8284 63.1284 46.6573 63.0527 46.4862Z" fill="#DD0000"/>
<path d="M70.8387 57.6777H68.6452V59.8713H70.8387V57.6777Z" fill="#DD0000"/>
<path d="M70.8387 62.0645H68.6452V68.6451H70.8387V62.0645Z" fill="#DD0000"/>
<path d="M70.8387 70.8379H68.6452V73.0314H70.8387V70.8379Z" fill="#DD0000"/>
<path d="M31.3548 57.6777H29.1613V59.8713H31.3548V57.6777Z" fill="#DD0000"/>
<path d="M31.3548 62.0645H29.1613V68.6451H31.3548V62.0645Z" fill="#DD0000"/>
<path d="M31.3548 70.8379H29.1613V73.0314H31.3548V70.8379Z" fill="#DD0000"/>
</svg>
