<svg width="100" height="100" viewBox="0 0 100 100" fill="none" xmlns="http://www.w3.org/2000/svg">
<circle cx="50" cy="50" r="50" fill="#FFD8D8"/>
<path d="M70.9941 48.0774V50.0091C70.9916 54.5369 69.5254 58.9427 66.8143 62.5692C64.1032 66.1957 60.2925 68.8487 55.9505 70.1325C51.6084 71.4163 46.9677 71.2621 42.7205 69.693C38.4732 68.1238 34.847 65.2238 32.3825 61.4253C29.9181 57.6269 28.7476 53.1336 29.0455 48.6155C29.3434 44.0975 31.0938 39.7968 34.0357 36.3548C36.9775 32.9129 40.9532 30.5141 45.3697 29.5163C49.7862 28.5184 54.407 28.9749 58.5429 30.8178" stroke="#DD0000" stroke-width="4" stroke-linecap="round" stroke-linejoin="round"/>
<path d="M70.9934 33.2109L49.9964 54.229L43.6973 47.9299" stroke="#DD0000" stroke-width="4" stroke-linecap="round" stroke-linejoin="round"/>
</svg>
