<svg width="100" height="100" viewBox="0 0 100 100" fill="none" xmlns="http://www.w3.org/2000/svg">
<circle cx="50" cy="50" r="50" fill="#FFD8D8"/>
<mask id="path-2-inside-1_2207_1722" fill="white">
<rect x="20" y="26" width="60" height="51" rx="2"/>
</mask>
<rect x="20" y="26" width="60" height="51" rx="2" stroke="#DD0000" stroke-width="5" mask="url(#path-2-inside-1_2207_1722)"/>
<line x1="20" y1="40" x2="80" y2="40" stroke="#DD0000" stroke-width="2"/>
<line x1="31.25" y1="24.25" x2="31.25" y2="30.75" stroke="#DD0000" stroke-width="2.5" stroke-linecap="round"/>
<line x1="38.25" y1="24.25" x2="38.25" y2="30.75" stroke="#DD0000" stroke-width="2.5" stroke-linecap="round"/>
<line x1="63.25" y1="24.25" x2="63.25" y2="30.75" stroke="#DD0000" stroke-width="2.5" stroke-linecap="round"/>
<line x1="70.25" y1="24.25" x2="70.25" y2="30.75" stroke="#DD0000" stroke-width="2.5" stroke-linecap="round"/>
<circle cx="32.5" cy="49.5" r="2.5" fill="#DD0000"/>
<circle cx="41.5" cy="49.5" r="2.5" fill="#DD0000"/>
<circle cx="50.5" cy="49.5" r="2.5" fill="#DD0000"/>
<circle cx="59.5" cy="49.5" r="2.5" fill="#DD0000"/>
<circle cx="68.5" cy="49.5" r="2.5" fill="#DD0000"/>
<circle cx="32.5" cy="58.5" r="2.5" fill="#DD0000"/>
<circle cx="41.5" cy="58.5" r="2.5" fill="#DD0000"/>
<circle cx="50.5" cy="58.5" r="2.5" fill="#DD0000"/>
<circle cx="59.5" cy="58.5" r="2.5" fill="#DD0000"/>
<circle cx="68.5" cy="58.5" r="2.5" fill="#DD0000"/>
<circle cx="32.5" cy="67.5" r="2.5" fill="#DD0000"/>
<circle cx="41.5" cy="67.5" r="2.5" fill="#DD0000"/>
<circle cx="50.5" cy="67.5" r="2.5" fill="#DD0000"/>
</svg>
