<svg width="222" height="112" viewBox="0 0 222 112" fill="none" xmlns="http://www.w3.org/2000/svg">
<path d="M221.499 112C221.573 97.4427 218.77 83.0143 213.251 69.5437C207.731 56.0731 199.605 43.8258 189.338 33.5055C179.071 23.1851 166.866 14.9952 153.425 9.4061C139.983 3.81704 125.569 0.939056 111.012 0.937501C96.4545 0.935945 82.0403 3.81085 68.5973 9.39703C55.1544 14.9832 42.9478 23.1706 32.6787 33.4887C22.4096 43.8069 14.2806 56.0524 8.75857 69.5219C3.23656 82.9913 0.4289 97.4428 0.499878 112H35.9998C35.9517 102.124 37.8928 92.1394 41.639 83.0017C45.3851 73.864 50.8999 65.5566 57.8665 58.5567C64.8331 51.5568 73.1141 46.0025 82.2339 42.2128C91.3536 38.4231 101.132 36.4727 111.008 36.4738C120.884 36.4748 130.662 38.4273 139.781 42.2189C148.9 46.0106 157.18 51.5667 164.145 58.568C171.11 65.5694 176.623 73.878 180.367 83.0165C184.111 92.1551 186.05 102.124 186 112L221.499 112Z" fill="#FB7F7F" fill-opacity="0.67"/>
</svg>
