<svg width="224" height="447" viewBox="0 0 224 447" fill="none" xmlns="http://www.w3.org/2000/svg">
<path d="M0 447C59.2759 447 116.124 423.453 158.038 381.538C199.953 339.624 223.5 282.776 223.5 223.5C223.5 164.224 199.953 107.376 158.038 65.4617C116.124 23.5473 59.2759 1.15414e-05 5.32866e-05 0L3.92917e-05 71.8765C40.2131 71.8765 78.7791 87.8511 107.214 116.286C135.649 144.721 151.623 183.287 151.623 223.5C151.623 263.713 135.649 302.279 107.214 330.714C78.7791 359.149 40.213 375.123 3.14182e-06 375.123L0 447Z" fill="#FB7F7F" fill-opacity="0.67"/>
</svg>
