<svg width="565" height="430" viewBox="0 0 565 430" fill="none" xmlns="http://www.w3.org/2000/svg">
<g filter="url(#filter0_d_2207_1983)">
<path d="M475.583 329.924H80.4644C78.1474 329.924 76.2393 328.012 76.2393 325.691V42.3329C76.2393 40.0114 78.1474 38.0996 80.4644 38.0996H475.583C477.9 38.0996 479.808 40.0114 479.808 42.3329V325.691C479.808 328.012 477.9 329.924 475.583 329.924Z" fill="#FF9696"/>
</g>
<path d="M470.676 324.871H75.4215C73.1045 324.871 71.1964 322.96 71.1964 320.638V37.2802C71.1964 34.9587 73.1045 33.0469 75.4215 33.0469H470.676C472.993 33.0469 474.902 34.9587 474.902 37.2802V320.638C474.765 322.96 472.857 324.871 470.676 324.871Z" fill="white"/>
<g filter="url(#filter1_d_2207_1983)">
<path d="M474.765 185.719V37.2802C474.765 34.9587 472.857 33.0469 470.54 33.0469H75.4215C73.1045 33.0469 71.1964 34.9587 71.1964 37.2802V185.719H474.765Z" fill="url(#paint0_linear_2207_1983)"/>
</g>
<path d="M454.185 315.176H340.106C337.789 315.176 335.881 313.264 335.881 310.943V91.2206C335.881 88.8991 337.789 86.9873 340.106 86.9873H454.185C456.502 86.9873 458.41 88.8991 458.41 91.2206V310.943C458.41 313.401 456.502 315.176 454.185 315.176Z" fill="white"/>
<path d="M318.98 303.705H275.639C272.913 303.705 270.732 301.52 270.732 298.789V241.981C270.732 239.249 272.913 237.064 275.639 237.064H318.98C321.706 237.064 323.887 239.249 323.887 241.981V298.789C323.887 301.52 321.706 303.705 318.98 303.705ZM275.639 238.567C273.73 238.567 272.231 240.069 272.231 241.981V298.789C272.231 300.701 273.73 302.203 275.639 302.203H318.98C320.888 302.203 322.388 300.701 322.388 298.789V241.981C322.388 240.069 320.888 238.567 318.98 238.567H275.639Z" fill="url(#paint1_linear_2207_1983)"/>
<path d="M297.309 268.2C303.557 268.2 308.622 263.125 308.622 256.866C308.622 250.606 303.557 245.531 297.309 245.531C291.062 245.531 285.997 250.606 285.997 256.866C285.997 263.125 291.062 268.2 297.309 268.2Z" fill="#FF9696"/>
<path d="M316.118 274.208H277.956V278.851H316.118V274.208Z" fill="#FF9696"/>
<path opacity="0.5" d="M312.711 281.992H281.499V284.86H312.711V281.992Z" fill="#FFABAB"/>
<path opacity="0.5" d="M307.123 287.182H287.224V290.049H307.123V287.182Z" fill="#FFABAB"/>
<path opacity="0.5" d="M309.167 292.507H285.043V295.375H309.167V292.507Z" fill="#FFABAB"/>
<path d="M259.147 303.705H215.805C213.079 303.705 210.899 301.52 210.899 298.789V241.981C210.899 239.249 213.079 237.064 215.805 237.064H259.147C261.873 237.064 264.053 239.249 264.053 241.981V298.789C263.917 301.52 261.736 303.705 259.147 303.705ZM215.805 238.567C213.897 238.567 212.398 240.069 212.398 241.981V298.789C212.398 300.701 213.897 302.203 215.805 302.203H259.147C261.055 302.203 262.554 300.701 262.554 298.789V241.981C262.554 240.069 261.055 238.567 259.147 238.567H215.805Z" fill="url(#paint2_linear_2207_1983)"/>
<path d="M237.476 268.2C243.724 268.2 248.788 263.125 248.788 256.866C248.788 250.606 243.724 245.531 237.476 245.531C231.228 245.531 226.164 250.606 226.164 256.866C226.164 263.125 231.228 268.2 237.476 268.2Z" fill="#FF9696"/>
<path d="M256.285 274.208H218.122V278.851H256.285V274.208Z" fill="#FF9696"/>
<path opacity="0.5" d="M252.877 281.992H221.666V284.86H252.877V281.992Z" fill="#FFABAB"/>
<path opacity="0.5" d="M247.153 287.182H227.254V290.049H247.153V287.182Z" fill="#FFABAB"/>
<path opacity="0.5" d="M249.197 292.507H225.073V295.375H249.197V292.507Z" fill="#FFABAB"/>
<path d="M199.177 303.705H155.835C153.11 303.705 150.929 301.52 150.929 298.789V241.981C150.929 239.249 153.11 237.064 155.835 237.064H199.177C201.903 237.064 204.084 239.249 204.084 241.981V298.789C204.084 301.52 201.903 303.705 199.177 303.705ZM155.835 238.567C153.927 238.567 152.428 240.069 152.428 241.981V298.789C152.428 300.701 153.927 302.203 155.835 302.203H199.177C201.085 302.203 202.585 300.701 202.585 298.789V241.981C202.585 240.069 201.085 238.567 199.177 238.567H155.835Z" fill="url(#paint3_linear_2207_1983)"/>
<path d="M177.506 268.2C183.754 268.2 188.819 263.125 188.819 256.866C188.819 250.606 183.754 245.531 177.506 245.531C171.259 245.531 166.194 250.606 166.194 256.866C166.194 263.125 171.259 268.2 177.506 268.2Z" fill="#FF9696"/>
<path d="M196.315 274.208H158.152V278.851H196.315V274.208Z" fill="#FF9696"/>
<path opacity="0.5" d="M192.908 281.992H161.696V284.86H192.908V281.992Z" fill="#FFABAB"/>
<path opacity="0.5" d="M187.32 287.182H167.42V290.049H187.32V287.182Z" fill="#FFABAB"/>
<path opacity="0.5" d="M189.364 292.507H165.24V295.375H189.364V292.507Z" fill="#FFABAB"/>
<path d="M139.344 303.705H96.002C93.2761 303.705 91.0954 301.52 91.0954 298.789V241.981C91.0954 239.249 93.2761 237.064 96.002 237.064H139.344C142.07 237.064 144.25 239.249 144.25 241.981V298.789C144.114 301.52 141.933 303.705 139.344 303.705ZM96.002 238.567C94.0939 238.567 92.5946 240.069 92.5946 241.981V298.789C92.5946 300.701 94.0939 302.203 96.002 302.203H139.344C141.252 302.203 142.751 300.701 142.751 298.789V241.981C142.751 240.069 141.252 238.567 139.344 238.567H96.002Z" fill="url(#paint4_linear_2207_1983)"/>
<path d="M117.673 268.2C123.921 268.2 128.985 263.125 128.985 256.866C128.985 250.606 123.921 245.531 117.673 245.531C111.425 245.531 106.36 250.606 106.36 256.866C106.36 263.125 111.425 268.2 117.673 268.2Z" fill="#FF9696"/>
<path d="M136.482 274.208H98.319V278.851H136.482V274.208Z" fill="#FF9696"/>
<path opacity="0.5" d="M133.074 281.992H101.863V284.86H133.074V281.992Z" fill="#FFABAB"/>
<path opacity="0.5" d="M127.35 287.182H107.451V290.049H127.35V287.182Z" fill="#6C77A1"/>
<path opacity="0.5" d="M129.394 292.507H105.27V295.375H129.394V292.507Z" fill="#FFABAB"/>
<path d="M446.143 110.065H351.827V119.215H446.143V110.065Z" fill="#FF9696"/>
<path opacity="0.5" d="M446.143 124.131H369.682V128.637H446.143V124.131Z" fill="#FFABAB"/>
<path d="M446.28 147.209H360.823V156.358H446.28V147.209Z" fill="#FF9696"/>
<path opacity="0.5" d="M446.143 161.274H388.491V165.781H446.143V161.274Z" fill="#FFABAB"/>
<path d="M446.143 184.353H351.827V193.502H446.143V184.353Z" fill="#FF9696"/>
<path opacity="0.5" d="M446.143 198.418H381.54V202.925H446.143V198.418Z" fill="#FFABAB"/>
<path d="M446.143 221.497H351.827V230.646H446.143V221.497Z" fill="#FF9696"/>
<path opacity="0.5" d="M446.143 235.562H381.54V240.069H446.143V235.562Z" fill="#FFABAB"/>
<path d="M434.422 55.3057H357.688V61.4508H434.422V55.3057Z" fill="white"/>
<path opacity="0.6" d="M434.286 47.9316H376.906V52.3015H434.286V47.9316Z" fill="white"/>
<path d="M448.733 61.5874C452.497 61.5874 455.548 58.5305 455.548 54.7595C455.548 50.9886 452.497 47.9316 448.733 47.9316C444.969 47.9316 441.918 50.9886 441.918 54.7595C441.918 58.5305 444.969 61.5874 448.733 61.5874Z" fill="white"/>
<path d="M312.847 170.97H247.698C244.972 170.97 242.792 168.785 242.792 166.054V153.218C242.792 150.487 244.972 148.302 247.698 148.302H312.847C315.573 148.302 317.754 150.487 317.754 153.218V166.054C317.754 168.785 315.573 170.97 312.847 170.97ZM247.698 149.667C245.79 149.667 244.291 151.169 244.291 153.081V165.918C244.291 167.83 245.79 169.332 247.698 169.332H312.847C314.755 169.332 316.254 167.83 316.254 165.918V153.081C316.254 151.169 314.755 149.667 312.847 149.667H247.698Z" fill="white"/>
<path d="M306.577 156.495H253.014V162.64H306.577V156.495Z" fill="white"/>
<path opacity="0.6" d="M316.936 107.744H215.941V111.704H316.936V107.744Z" fill="white"/>
<path opacity="0.6" d="M316.936 114.982H215.941V118.942H316.936V114.982Z" fill="white"/>
<path opacity="0.6" d="M317.072 122.083H239.52V126.043H317.072V122.083Z" fill="white"/>
<path d="M284.77 87.124H206.264V99.6874H284.77V87.124Z" fill="white"/>
<path d="M316.936 87.124H293.766V99.6874H316.936V87.124Z" fill="white"/>
<g opacity="0.5">
<path d="M306.85 219.995C306.714 219.995 306.714 219.995 306.577 219.858L304.124 218.083C303.988 218.083 303.988 217.946 303.988 217.81C303.988 217.673 303.988 217.537 304.124 217.537L306.577 215.762C306.714 215.625 306.986 215.625 307.123 215.898C307.259 216.035 307.259 216.308 306.986 216.444L304.942 217.947L306.986 219.449C307.123 219.585 307.123 219.722 307.123 219.995C307.123 219.995 306.986 219.995 306.85 219.995Z" fill="#FFD5D5"/>
</g>
<g opacity="0.5">
<path d="M318.98 219.995C318.844 219.995 318.708 219.995 318.708 219.858C318.571 219.722 318.571 219.449 318.844 219.312L320.888 217.81L318.844 216.308C318.708 216.171 318.708 216.035 318.708 215.762C318.844 215.625 318.98 215.625 319.253 215.625L321.706 217.4C321.842 217.4 321.842 217.537 321.842 217.673C321.842 217.81 321.842 217.947 321.706 217.947L319.253 219.722C319.117 219.995 319.117 219.995 318.98 219.995Z" fill="#FFD5D5"/>
</g>
<path d="M314.891 216.581H310.257V219.312H314.891V216.581Z" fill="#FF9696"/>
<path d="M189.364 193.502H139.207V198.282H189.364V193.502Z" fill="#FF9696"/>
<path opacity="0.5" d="M175.053 201.423H139.207V203.744H175.053V201.423Z" fill="#FFABAB"/>
<g filter="url(#filter2_d_2207_1983)">
<path d="M545.775 197.736H405.8C403.483 197.736 401.575 195.824 401.575 193.503V155.403C401.575 153.082 403.483 151.17 405.8 151.17H545.775C548.092 151.17 550 153.082 550 155.403V193.503C550 195.961 548.092 197.736 545.775 197.736Z" fill="url(#paint5_linear_2207_1983)"/>
</g>
<path d="M423.927 192.137C414.114 192.137 406.209 184.217 406.209 174.385C406.209 164.553 414.114 156.632 423.927 156.632C433.741 156.632 441.646 164.553 441.646 174.385C441.646 184.217 433.741 192.137 423.927 192.137ZM423.927 157.315C414.523 157.315 406.89 164.962 406.89 174.385C406.89 183.807 414.523 191.455 423.927 191.455C433.332 191.455 440.964 183.807 440.964 174.385C440.964 164.962 433.332 157.315 423.927 157.315Z" fill="white"/>
<path d="M423.927 188.86C431.906 188.86 438.375 182.379 438.375 174.385C438.375 166.39 431.906 159.91 423.927 159.91C415.948 159.91 409.48 166.39 409.48 174.385C409.48 182.379 415.948 188.86 423.927 188.86Z" fill="white"/>
<path d="M529.283 167.693H452.549V173.838H529.283V167.693Z" fill="white"/>
<path opacity="0.6" d="M509.929 176.979H452.549V181.349H509.929V176.979Z" fill="white"/>
<path opacity="0.6" d="M545.366 155.403H536.234V159.227H545.366V155.403Z" fill="white"/>
<g filter="url(#filter3_d_2207_1983)">
<path d="M545.775 260.007H405.8C403.483 260.007 401.575 258.095 401.575 255.773V217.674C401.575 215.352 403.483 213.44 405.8 213.44H545.775C548.092 213.44 550 215.352 550 217.674V255.773C550 258.095 548.092 260.007 545.775 260.007Z" fill="url(#paint6_linear_2207_1983)"/>
</g>
<path d="M423.927 254.271C414.114 254.271 406.209 246.351 406.209 236.519C406.209 226.686 414.114 218.766 423.927 218.766C433.741 218.766 441.646 226.686 441.646 236.519C441.646 246.351 433.741 254.271 423.927 254.271ZM423.927 219.585C414.523 219.585 406.89 227.233 406.89 236.655C406.89 246.078 414.523 253.725 423.927 253.725C433.332 253.725 440.964 246.078 440.964 236.655C440.964 227.233 433.332 219.585 423.927 219.585Z" fill="white"/>
<path d="M423.927 251.13C431.906 251.13 438.375 244.65 438.375 236.655C438.375 228.661 431.906 222.18 423.927 222.18C415.948 222.18 409.48 228.661 409.48 236.655C409.48 244.65 415.948 251.13 423.927 251.13Z" fill="white"/>
<path d="M529.283 229.964H452.549V236.109H529.283V229.964Z" fill="white"/>
<path opacity="0.6" d="M509.929 239.25H452.549V243.62H509.929V239.25Z" fill="white"/>
<path opacity="0.6" d="M545.366 217.674H536.234V221.497H545.366V217.674Z" fill="white"/>
<path opacity="0.5" d="M286.542 407.626C287.972 407.626 289.132 406.464 289.132 405.031C289.132 403.598 287.972 402.437 286.542 402.437C285.112 402.437 283.953 403.598 283.953 405.031C283.953 406.464 285.112 407.626 286.542 407.626Z" fill="#DD0000"/>
<path d="M273.594 407.626C275.024 407.626 276.184 406.464 276.184 405.031C276.184 403.598 275.024 402.437 273.594 402.437C272.164 402.437 271.005 403.598 271.005 405.031C271.005 406.464 272.164 407.626 273.594 407.626Z" fill="url(#paint7_linear_2207_1983)"/>
<path opacity="0.5" d="M260.646 407.626C262.076 407.626 263.236 406.464 263.236 405.031C263.236 403.598 262.076 402.437 260.646 402.437C259.216 402.437 258.057 403.598 258.057 405.031C258.057 406.464 259.216 407.626 260.646 407.626Z" fill="#DD0000"/>
<path opacity="0.5" d="M247.698 407.626C249.128 407.626 250.288 406.464 250.288 405.031C250.288 403.598 249.128 402.437 247.698 402.437C246.268 402.437 245.109 403.598 245.109 405.031C245.109 406.464 246.268 407.626 247.698 407.626Z" fill="#DD0000"/>
<path opacity="0.5" d="M234.75 407.626C236.18 407.626 237.34 406.464 237.34 405.031C237.34 403.598 236.18 402.437 234.75 402.437C233.32 402.437 232.161 403.598 232.161 405.031C232.161 406.464 233.32 407.626 234.75 407.626Z" fill="#DD0000"/>
<path opacity="0.5" d="M221.938 407.626C223.369 407.626 224.528 406.464 224.528 405.031C224.528 403.598 223.369 402.437 221.938 402.437C220.508 402.437 219.349 403.598 219.349 405.031C219.349 406.464 220.508 407.626 221.938 407.626Z" fill="#DD0000"/>
<path opacity="0.5" d="M208.99 407.626C210.421 407.626 211.58 406.464 211.58 405.031C211.58 403.598 210.421 402.437 208.99 402.437C207.56 402.437 206.401 403.598 206.401 405.031C206.401 406.464 207.56 407.626 208.99 407.626Z" fill="#DD0000"/>
<path d="M197.405 25.9459H145.886C143.569 25.9459 141.661 24.0341 141.661 21.7126V11.6073C141.661 9.28584 143.569 7.37402 145.886 7.37402H197.405C199.722 7.37402 201.63 9.28584 201.63 11.6073V21.8492C201.63 24.0341 199.722 25.9459 197.405 25.9459Z" fill="url(#paint8_linear_2207_1983)"/>
<path d="M158.152 15.9773L154.609 12.973C154.472 12.8365 154.064 12.8365 153.927 12.973L150.384 15.9773H151.474C151.747 15.9773 152.019 16.2504 152.019 16.5235V19.1181C152.019 19.3913 152.292 19.6644 152.564 19.6644H155.972C156.244 19.6644 156.517 19.3913 156.517 19.1181V16.5235C156.517 16.2504 156.789 15.9773 157.062 15.9773H158.152Z" fill="white"/>
<path d="M183.912 14.4751H165.512V18.845H183.912V14.4751Z" fill="white"/>
<path d="M191.681 14.4751H186.502V18.845H191.681V14.4751Z" fill="white"/>
<path d="M265.689 26.6289H214.17C211.444 26.6289 209.263 24.444 209.263 21.7128V11.6075C209.263 8.87634 211.444 6.69141 214.17 6.69141H265.689C268.415 6.69141 270.596 8.87634 270.596 11.6075V21.8494C270.596 24.444 268.415 26.6289 265.689 26.6289ZM214.17 8.19354C212.261 8.19354 210.762 9.69568 210.762 11.6075V21.8494C210.762 23.7612 212.261 25.2633 214.17 25.2633H265.689C267.597 25.2633 269.096 23.7612 269.096 21.8494V11.6075C269.096 9.69568 267.597 8.19354 265.689 8.19354H214.17Z" fill="url(#paint9_linear_2207_1983)"/>
<path d="M226.572 15.9773L223.029 12.973C222.892 12.8365 222.484 12.8365 222.347 12.973L218.804 15.9773H219.894C220.167 15.9773 220.439 16.2504 220.439 16.5235V19.1181C220.439 19.3913 220.712 19.6644 220.984 19.6644H224.392C224.664 19.6644 224.937 19.3913 224.937 19.1181V16.5235C224.937 16.2504 225.21 15.9773 225.482 15.9773H226.572Z" fill="white"/>
<path d="M252.196 14.4751H233.796V18.845H252.196V14.4751Z" fill="white"/>
<path d="M259.965 14.4751H254.785V18.845H259.965V14.4751Z" fill="white"/>
<path d="M191.545 405.85H191.408C191 405.85 190.727 405.577 190.727 405.168C190.727 404.758 191 404.485 191.408 404.485H191.545C191.954 404.485 192.226 404.758 192.226 405.168C192.226 405.577 191.954 405.85 191.545 405.85ZM185.82 405.85C185.411 405.85 185.003 405.577 185.003 405.168C185.003 404.758 185.275 404.485 185.684 404.485H185.82C186.229 404.485 186.502 404.758 186.502 405.168C186.502 405.577 186.229 405.85 185.82 405.85ZM180.096 405.85H179.96C179.551 405.85 179.278 405.577 179.278 405.168C179.278 404.758 179.551 404.485 179.96 404.485H180.096C180.505 404.485 180.777 404.758 180.777 405.168C180.777 405.577 180.505 405.85 180.096 405.85ZM174.372 405.85C173.963 405.85 173.554 405.577 173.554 405.168C173.554 404.758 173.826 404.485 174.235 404.485H174.372C174.78 404.485 175.053 404.758 175.053 405.168C175.053 405.577 174.78 405.85 174.372 405.85ZM168.783 405.85C168.375 405.85 167.966 405.577 167.966 405.168C167.966 404.758 168.238 404.485 168.647 404.485H168.783C169.192 404.485 169.465 404.758 169.465 405.168C169.465 405.577 169.056 405.85 168.783 405.85ZM163.059 405.85H162.923C162.514 405.85 162.241 405.577 162.241 405.168C162.241 404.758 162.514 404.485 162.923 404.485H163.059C163.468 404.485 163.741 404.758 163.741 405.168C163.741 405.577 163.468 405.85 163.059 405.85ZM157.335 405.85C156.926 405.85 156.517 405.577 156.517 405.168C156.517 404.758 156.79 404.485 157.198 404.485H157.335C157.744 404.485 158.016 404.758 158.016 405.168C158.016 405.577 157.744 405.85 157.335 405.85ZM151.61 405.85H151.474C151.065 405.85 150.793 405.577 150.793 405.168C150.793 404.758 151.065 404.485 151.474 404.485H151.61C152.019 404.485 152.292 404.758 152.292 405.168C152.292 405.577 152.019 405.85 151.61 405.85ZM145.886 405.85C145.477 405.85 145.068 405.577 145.068 405.168C145.068 404.758 145.341 404.485 145.75 404.485H145.886C146.295 404.485 146.567 404.758 146.567 405.168C146.567 405.577 146.295 405.85 145.886 405.85ZM140.298 405.85C139.889 405.85 139.48 405.577 139.48 405.168C139.48 404.758 139.753 404.485 140.162 404.485H140.298C140.707 404.485 140.979 404.758 140.979 405.168C140.979 405.577 140.57 405.85 140.298 405.85ZM134.573 405.85H134.437C134.028 405.85 133.756 405.577 133.756 405.168C133.756 404.758 134.028 404.485 134.437 404.485H134.573C134.982 404.485 135.255 404.758 135.255 405.168C135.255 405.577 134.982 405.85 134.573 405.85ZM128.849 405.85C128.44 405.85 128.031 405.577 128.031 405.168C128.031 404.758 128.304 404.485 128.713 404.485H128.849C129.258 404.485 129.531 404.758 129.531 405.168C129.531 405.577 129.258 405.85 128.849 405.85ZM123.125 405.85H122.988C122.58 405.85 122.307 405.577 122.307 405.168C122.307 404.758 122.58 404.485 122.988 404.485H123.125C123.534 404.485 123.806 404.758 123.806 405.168C123.806 405.577 123.534 405.85 123.125 405.85ZM117.4 405.85H117.264C116.855 405.85 116.583 405.577 116.583 405.168C116.583 404.758 116.855 404.485 117.264 404.485H117.4C117.809 404.485 118.082 404.758 118.082 405.168C118.082 405.577 117.809 405.85 117.4 405.85ZM111.812 405.85H111.676C111.267 405.85 110.994 405.577 110.994 405.168C110.994 404.758 111.267 404.485 111.676 404.485H111.812C112.221 404.485 112.494 404.758 112.494 405.168C112.494 405.577 112.085 405.85 111.812 405.85ZM106.088 405.85H105.952C105.543 405.85 105.27 405.577 105.27 405.168C105.27 404.758 105.543 404.485 105.952 404.485H106.088C106.497 404.485 106.769 404.758 106.769 405.168C106.769 405.577 106.497 405.85 106.088 405.85ZM100.363 405.85C99.9546 405.85 99.5457 405.577 99.5457 405.168C99.5457 404.758 99.8183 404.485 100.227 404.485H100.363C100.772 404.485 101.045 404.758 101.045 405.168C101.045 405.577 100.772 405.85 100.363 405.85ZM94.6391 405.85H94.5028C94.0939 405.85 93.8213 405.577 93.8213 405.168C93.8213 404.758 94.0939 404.485 94.5028 404.485H94.6391C95.048 404.485 95.3206 404.758 95.3206 405.168C95.3206 405.577 95.048 405.85 94.6391 405.85ZM88.9147 405.85H88.7784C88.3695 405.85 88.0969 405.577 88.0969 405.168C88.0969 404.758 88.3695 404.485 88.7784 404.485H88.9147C89.3236 404.485 89.5962 404.758 89.5962 405.168C89.5962 405.577 89.3236 405.85 88.9147 405.85ZM83.3266 405.85H83.1903C82.7814 405.85 82.5088 405.577 82.5088 405.168C82.5088 404.758 82.7814 404.485 83.1903 404.485H83.3266C83.7355 404.485 84.0081 404.758 84.0081 405.168C84.0081 405.577 83.5992 405.85 83.3266 405.85ZM77.6022 405.85H77.4659C77.0571 405.85 76.7845 405.577 76.7845 405.168C76.7845 404.758 77.0571 404.485 77.4659 404.485H77.6022C78.0111 404.485 78.2837 404.758 78.2837 405.168C78.2837 405.577 78.0111 405.85 77.6022 405.85ZM71.8779 405.85C71.469 405.85 71.0601 405.577 71.0601 405.168C71.0601 404.758 71.3327 404.485 71.7416 404.485H71.8779C72.2867 404.485 72.5593 404.758 72.5593 405.168C72.5593 405.577 72.2867 405.85 71.8779 405.85ZM66.1535 405.85H66.0172C65.6083 405.85 65.3357 405.577 65.3357 405.168C65.3357 404.758 65.6083 404.485 66.0172 404.485H66.1535C66.5624 404.485 66.8349 404.758 66.8349 405.168C66.8349 405.577 66.5624 405.85 66.1535 405.85ZM60.4291 405.85H60.2928C59.8839 405.85 59.6113 405.577 59.6113 405.168C59.6113 404.758 59.8839 404.485 60.2928 404.485H60.4291C60.838 404.485 61.1106 404.758 61.1106 405.168C61.1106 405.577 60.838 405.85 60.4291 405.85ZM54.7047 405.85H54.5684C54.1595 405.85 53.8869 405.577 53.8869 405.168C53.8869 404.758 54.1595 404.485 54.5684 404.485H54.7047C55.1136 404.485 55.3862 404.758 55.3862 405.168C55.3862 405.577 55.1136 405.85 54.7047 405.85ZM49.1166 405.85H48.9803C48.5714 405.85 48.2989 405.577 48.2989 405.168C48.2989 404.758 48.5714 404.485 48.9803 404.485H49.1166C49.5255 404.485 49.7981 404.758 49.7981 405.168C49.7981 405.577 49.3892 405.85 49.1166 405.85ZM44.0737 403.529C43.8011 403.529 43.6648 403.392 43.5285 403.256L43.3922 403.119C43.1196 402.846 43.2559 402.436 43.5285 402.163C43.8011 401.89 44.21 402.027 44.4826 402.3L43.9374 402.71L44.6189 402.437C44.8915 402.71 44.7552 403.119 44.4826 403.392C44.3463 403.529 44.21 403.529 44.0737 403.529ZM42.9834 398.067C42.5745 398.067 42.3019 397.794 42.3019 397.384V397.247C42.3019 396.838 42.5745 396.564 42.9834 396.564C43.3922 396.564 43.6648 396.838 43.6648 397.247V397.384C43.6648 397.794 43.3922 398.067 42.9834 398.067ZM42.9834 392.331C42.5745 392.331 42.3019 392.058 42.3019 391.648C42.3019 391.239 42.5745 390.829 42.9834 390.829C43.3922 390.829 43.6648 391.102 43.6648 391.512V391.648C43.6648 392.058 43.3922 392.331 42.9834 392.331ZM42.9834 386.732C42.5745 386.732 42.3019 386.459 42.3019 386.05V385.913C42.3019 385.503 42.5745 385.23 42.9834 385.23C43.3922 385.23 43.6648 385.503 43.6648 385.913V386.05C43.6648 386.323 43.3922 386.732 42.9834 386.732ZM42.9834 380.997C42.5745 380.997 42.3019 380.724 42.3019 380.314C42.3019 379.904 42.5745 379.495 42.9834 379.495C43.3922 379.495 43.6648 379.768 43.6648 380.178V380.314C43.6648 380.724 43.3922 380.997 42.9834 380.997ZM42.9834 375.261C42.5745 375.261 42.3019 374.988 42.3019 374.579C42.3019 374.169 42.5745 373.759 42.9834 373.759C43.3922 373.759 43.6648 374.032 43.6648 374.442V374.579C43.6648 374.988 43.3922 375.261 42.9834 375.261ZM42.9834 369.526C42.5745 369.526 42.3019 369.253 42.3019 368.843V368.707C42.3019 368.297 42.5745 368.024 42.9834 368.024C43.3922 368.024 43.6648 368.297 43.6648 368.707V368.843C43.6648 369.253 43.3922 369.526 42.9834 369.526ZM42.9834 363.791C42.5745 363.791 42.3019 363.517 42.3019 363.108C42.3019 362.698 42.5745 362.288 42.9834 362.288C43.3922 362.288 43.6648 362.562 43.6648 362.971V363.108C43.6648 363.517 43.3922 363.791 42.9834 363.791ZM42.9834 358.192C42.5745 358.192 42.3019 357.919 42.3019 357.509V357.372C42.3019 356.963 42.5745 356.69 42.9834 356.69C43.3922 356.69 43.6648 356.963 43.6648 357.372V357.509C43.6648 357.782 43.3922 358.192 42.9834 358.192ZM42.9834 352.456C42.5745 352.456 42.3019 352.183 42.3019 351.773C42.3019 351.364 42.5745 350.954 42.9834 350.954C43.3922 350.954 43.6648 351.227 43.6648 351.637V351.773C43.6648 352.183 43.3922 352.456 42.9834 352.456Z" fill="#DD0000"/>
<path d="M540.732 146.936C540.323 146.936 540.05 146.663 540.05 146.253V15.1576C540.05 12.4265 537.87 10.2416 535.144 10.2416H402.665C399.939 10.2416 397.759 12.4265 397.759 15.1576V24.7167C397.759 25.1264 397.486 25.3995 397.077 25.3995C396.668 25.3995 396.396 25.1264 396.396 24.7167V15.1576C396.396 11.7437 399.258 8.87598 402.665 8.87598H535.144C538.551 8.87598 541.413 11.7437 541.413 15.1576V146.117C541.55 146.527 541.141 146.936 540.732 146.936Z" fill="black"/>
<path d="M67.1075 85.8948H49.3892C45.9819 85.8948 43.1197 83.0271 43.1197 79.6131V22.2587C43.1197 18.8448 45.9819 15.9771 49.3892 15.9771H135.936C136.345 15.9771 136.618 16.2502 136.618 16.6598C136.618 17.0695 136.345 17.3426 135.936 17.3426H49.3892C46.6633 17.3426 44.4826 19.5276 44.4826 22.2587V79.6131C44.4826 82.3443 46.6633 84.5292 49.3892 84.5292H67.1075C67.5164 84.5292 67.789 84.8023 67.789 85.212C67.789 85.6217 67.5164 85.8948 67.1075 85.8948Z" fill="black"/>
<g filter="url(#filter4_d_2207_1983)">
<path d="M123.125 348.633H14.2251C11.9081 348.633 10 346.721 10 344.399V235.289C10 232.968 11.9081 231.056 14.2251 231.056H123.125C125.442 231.056 127.35 232.968 127.35 235.289V344.399C127.214 346.721 125.305 348.633 123.125 348.633Z" fill="url(#paint10_linear_2207_1983)"/>
</g>
<path d="M107.042 246.214H30.3079V252.359H107.042V246.214Z" fill="white"/>
<path opacity="0.6" d="M97.365 259.324H39.9849V263.694H97.365V259.324Z" fill="white"/>
<path opacity="0.6" d="M91.7769 266.289H45.4366V270.658H91.7769V266.289Z" fill="white"/>
<path d="M112.357 310.533H24.8561C22.1302 310.533 19.9495 308.348 19.9495 305.617V295.921C19.9495 293.19 22.1302 291.005 24.8561 291.005H112.357C115.083 291.005 117.264 293.19 117.264 295.921V305.617C117.264 308.348 115.083 310.533 112.357 310.533ZM24.8561 292.371C22.948 292.371 21.4488 293.873 21.4488 295.785V305.481C21.4488 307.392 22.948 308.894 24.8561 308.894H112.357C114.266 308.894 115.765 307.392 115.765 305.481V295.785C115.765 293.873 114.266 292.371 112.357 292.371H24.8561Z" fill="white"/>
<path d="M98.319 298.243H38.8945V303.432H98.319V298.243Z" fill="white"/>
<path d="M112.357 335.25H24.8561C22.5391 335.25 20.631 333.338 20.631 331.017V321.321C20.631 319 22.5391 317.088 24.8561 317.088H112.357C114.674 317.088 116.583 319 116.583 321.321V331.017C116.446 333.338 114.674 335.25 112.357 335.25Z" fill="white"/>
<path d="M87.4154 323.643H49.9344V328.832H87.4154V323.643Z" fill="url(#paint11_linear_2207_1983)"/>
<g filter="url(#filter5_d_2207_1983)">
<path d="M523.695 415H337.244C334.927 415 333.019 413.088 333.019 410.766V292.78C333.019 290.459 334.927 288.547 337.244 288.547H523.695C526.012 288.547 527.92 290.459 527.92 292.78V410.766C527.92 413.088 526.012 415 523.695 415Z" fill="url(#paint12_linear_2207_1983)"/>
</g>
<path d="M516.88 406.533H451.868C449.687 406.533 448.051 404.758 448.051 402.709V300.564C448.051 298.379 449.823 296.74 451.868 296.74H516.88C519.061 296.74 520.697 298.515 520.697 300.564V402.709C520.697 404.758 518.925 406.533 516.88 406.533Z" fill="white"/>
<path d="M480.081 308.211H457.728V330.606H480.081V308.211Z" fill="url(#paint13_linear_2207_1983)"/>
<path d="M510.747 308.211H488.395V330.606H510.747V308.211Z" fill="#FF9696"/>
<path d="M480.081 339.483H457.728V361.878H480.081V339.483Z" fill="url(#paint14_linear_2207_1983)"/>
<path d="M510.747 339.483H488.395V361.878H510.747V339.483Z" fill="url(#paint15_linear_2207_1983)"/>
<path d="M480.081 370.618H457.728V393.014H480.081V370.618Z" fill="#FF9696"/>
<path opacity="0.5" d="M510.747 370.618H488.395V393.014H510.747V370.618Z" fill="#FFD5D5"/>
<path d="M425.563 401.754H359.869C357.143 401.754 354.962 399.569 354.962 396.837V378.948C354.962 376.217 357.143 374.032 359.869 374.032H425.563C428.289 374.032 430.469 376.217 430.469 378.948V396.837C430.469 399.569 428.289 401.754 425.563 401.754ZM359.869 375.398C357.961 375.398 356.461 376.9 356.461 378.812V396.701C356.461 398.613 357.961 400.115 359.869 400.115H425.563C427.471 400.115 428.97 398.613 428.97 396.701V378.812C428.97 376.9 427.471 375.398 425.563 375.398H359.869Z" fill="white"/>
<path d="M369.955 387.825H363.276C363.004 387.825 362.867 388.098 362.867 388.234C362.867 388.507 363.14 388.644 363.276 388.644H369.955C370.227 388.644 370.363 388.371 370.363 388.234C370.363 388.098 370.227 387.825 369.955 387.825Z" fill="white"/>
<path d="M422.292 387.825H419.43V384.957C419.43 384.684 419.157 384.547 419.021 384.547C418.748 384.547 418.612 384.82 418.612 384.957V387.825H415.75C415.477 387.825 415.341 388.098 415.341 388.234C415.341 388.508 415.613 388.644 415.75 388.644H418.612V391.512C418.612 391.785 418.884 391.921 419.021 391.921C419.293 391.921 419.43 391.648 419.43 391.512V388.644H422.292C422.564 388.644 422.701 388.371 422.701 388.234C422.701 388.098 422.564 387.825 422.292 387.825Z" fill="white"/>
<path d="M390.399 381.543H385.356V394.243H390.399V381.543Z" fill="white"/>
<path d="M400.348 381.543H393.125V394.243H400.348V381.543Z" fill="white"/>
<path d="M57.8395 131.505H23.6295V135.056H57.8395V131.505Z" fill="#FF9696"/>
<path d="M54.9773 124.678H23.6295V128.228H54.9773V124.678Z" fill="#FF9696"/>
<path d="M43.6648 117.986H23.6295V121.537H43.6648V117.986Z" fill="#FF9696"/>
<path d="M53.0692 111.295H23.6295V114.845H53.0692V111.295Z" fill="#FF9696"/>
<path d="M524.104 74.0142H489.894V77.5647H524.104V74.0142Z" fill="#FF9696"/>
<path d="M524.24 67.1865H492.892V70.737H524.24V67.1865Z" fill="#FF9696"/>
<path d="M524.104 60.4951H504.069V64.0456H524.104V60.4951Z" fill="#FF9696"/>
<path d="M524.104 53.8037H494.664V57.3542H524.104V53.8037Z" fill="#FF9696"/>
<g opacity="0.5">
<path d="M181.05 376.627C177.779 378.675 173.281 377.72 171.237 374.442C169.192 371.165 170.146 366.658 173.417 364.61C176.689 362.562 181.186 363.517 183.231 366.795C185.411 370.209 184.457 374.579 181.05 376.627ZM174.235 365.839C171.509 367.478 170.828 371.028 172.463 373.759C174.099 376.49 177.643 377.173 180.368 375.535C183.094 373.896 183.776 370.345 182.14 367.614C180.505 364.883 176.961 364.064 174.235 365.839Z" fill="#DD0000"/>
<path d="M187.456 386.596C185.957 387.552 184.185 388.371 182.413 388.781L182.004 388.917L178.733 384.821C178.188 384.821 177.643 384.957 177.097 384.957L174.099 389.327L173.69 389.19C171.918 388.781 170.146 388.235 168.511 387.415C166.875 386.596 165.376 385.503 164.149 384.138L163.877 383.865L165.785 378.949C165.649 378.676 165.512 378.539 165.376 378.266C165.24 377.993 165.103 377.856 164.967 377.583L159.788 377.173L159.652 376.764C159.106 374.988 158.698 373.213 158.698 371.438C158.561 369.663 158.834 367.751 159.243 365.976L159.379 365.566L164.558 364.747C164.831 364.337 164.967 363.791 165.24 363.381L162.923 358.601L163.195 358.192C165.649 355.461 168.783 353.412 172.327 352.456L172.736 352.32L176.007 356.417C176.552 356.417 177.097 356.28 177.643 356.28L180.641 351.91L181.05 352.047C182.822 352.456 184.594 353.003 186.229 353.822C187.865 354.641 189.364 355.734 190.591 357.099L190.863 357.372L188.955 362.289C189.091 362.562 189.228 362.698 189.364 362.971C189.5 363.244 189.637 363.381 189.773 363.654L194.952 364.064L195.088 364.473C195.633 366.249 196.042 368.024 196.042 369.799C196.179 371.574 195.906 373.486 195.497 375.262L195.361 375.671L190.182 376.491C189.909 376.9 189.773 377.447 189.364 377.856L191.681 382.636L191.408 383.045C190.318 384.411 188.955 385.64 187.456 386.596ZM182.413 387.415C185.411 386.459 188.001 384.821 190.182 382.499L188.001 377.856L188.274 377.583C188.682 376.9 188.955 376.354 189.228 375.671L189.364 375.262L194.407 374.442C194.816 372.94 194.952 371.438 194.816 369.799C194.816 368.297 194.543 366.795 193.998 365.293L188.955 364.883L188.819 364.473C188.682 364.2 188.546 363.791 188.274 363.518C188.137 363.244 187.865 362.971 187.592 362.698L187.32 362.425L189.091 357.646C188.001 356.553 186.638 355.734 185.275 354.914C183.912 354.232 182.413 353.685 180.914 353.276L178.051 357.509H177.643C176.961 357.509 176.28 357.509 175.462 357.646H175.053L171.918 353.685C168.92 354.641 166.33 356.28 164.149 358.601L166.33 363.244L166.058 363.518C165.649 364.2 165.376 364.747 165.103 365.429L164.967 365.839L159.924 366.658C159.515 368.161 159.379 369.663 159.515 371.301C159.515 372.804 159.788 374.306 160.333 375.808L165.376 376.217L165.512 376.627C165.649 376.9 165.785 377.31 166.058 377.583C166.194 377.856 166.466 378.129 166.739 378.402L167.012 378.676L165.24 383.455C166.33 384.548 167.693 385.367 169.056 386.186C170.419 386.869 171.918 387.415 173.417 387.825L176.28 383.592H176.689C177.37 383.592 178.051 383.592 178.869 383.455H179.278L182.413 387.415Z" fill="#DD0000"/>
</g>
<path d="M307.532 0C302.216 0 297.991 4.2333 297.991 9.55907C297.991 14.8848 302.216 19.1181 307.532 19.1181C312.847 19.1181 317.072 14.8848 317.072 9.55907C317.072 4.2333 312.847 0 307.532 0ZM311.893 10.3784H308.486V13.9289C308.486 14.4752 308.077 14.8848 307.532 14.8848C306.986 14.8848 306.578 14.4752 306.578 13.9289V10.3784H303.034C302.489 10.3784 302.08 9.96874 302.08 9.42251C302.08 8.87628 302.489 8.4666 303.034 8.4666H306.578V5.18921C306.578 4.64297 306.986 4.2333 307.532 4.2333C308.077 4.2333 308.486 4.64297 308.486 5.18921V8.73972H312.029C312.574 8.73972 312.983 9.14939 312.983 9.69562C312.847 10.1053 312.438 10.3784 311.893 10.3784Z" fill="#DD0000"/>
<path d="M319.798 411.586L314.755 405.441C315.573 404.485 315.982 403.392 316.118 402.163C316.254 400.525 315.846 399.023 314.755 397.794C312.711 395.199 308.894 394.926 306.441 396.974C303.852 399.023 303.579 402.846 305.623 405.304C307.123 407.216 309.576 407.899 311.757 407.216C312.166 407.08 312.711 406.943 313.12 406.67L318.163 412.815C318.435 413.088 318.844 413.225 319.253 413.088C319.389 413.088 319.525 412.951 319.662 412.951C320.071 412.678 320.207 411.996 319.798 411.586ZM307.259 404.075C305.896 402.437 306.169 399.978 307.804 398.613C308.213 398.203 308.758 398.067 309.303 397.794C310.666 397.384 312.302 397.794 313.256 399.023C313.937 399.842 314.21 400.798 314.074 401.89C313.937 402.983 313.529 403.802 312.711 404.485C311.075 405.987 308.622 405.714 307.259 404.075Z" fill="#DD0000"/>
<path fill-rule="evenodd" clip-rule="evenodd" d="M87.5518 170.288V45.6104H180.777V170.288H87.5518ZM154.782 79L178.597 47.1125H89.5962L113.338 79H111.622L88.9147 48.4781V167.557L113.136 135H114.853L89.5962 168.922V169.059H178.597L153.218 135H155.057L179.278 167.557V48.4781L156.571 79H154.782Z" fill="white"/>
<path d="M122.16 133.33C117.353 133.33 113.27 132.443 109.91 130.67C106.597 128.85 104.077 126.283 102.35 122.97C100.623 119.657 99.76 115.737 99.76 111.21V80.9H111.24V111.63C111.24 113.87 111.66 115.83 112.5 117.51C113.387 119.143 114.623 120.403 116.21 121.29C117.843 122.177 119.827 122.62 122.16 122.62C124.54 122.62 126.523 122.177 128.11 121.29C129.743 120.403 130.98 119.143 131.82 117.51C132.66 115.877 133.08 113.917 133.08 111.63V80.9H144.56V111.21C144.56 115.737 143.697 119.657 141.97 122.97C140.243 126.283 137.723 128.85 134.41 130.67C131.097 132.443 127.013 133.33 122.16 133.33ZM155.226 132V80.9H166.706V132H155.226Z" fill="white"/>
<path d="M368.28 357.14C364.16 357.14 360.66 356.38 357.78 354.86C354.94 353.3 352.78 351.1 351.3 348.26C349.82 345.42 349.08 342.06 349.08 338.18V312.2H358.92V338.54C358.92 340.46 359.28 342.14 360 343.58C360.76 344.98 361.82 346.06 363.18 346.82C364.58 347.58 366.28 347.96 368.28 347.96C370.32 347.96 372.02 347.58 373.38 346.82C374.78 346.06 375.84 344.98 376.56 343.58C377.28 342.18 377.64 340.5 377.64 338.54V312.2H387.48V338.18C387.48 342.06 386.74 345.42 385.26 348.26C383.78 351.1 381.62 353.3 378.78 354.86C375.94 356.38 372.44 357.14 368.28 357.14ZM391.595 356L406.535 332.66L406.655 333.68L392.855 312.2H403.655L412.175 325.88H413.555L421.955 312.2H432.455L418.595 333.8L418.415 332.84L433.835 356H422.975L413.015 340.52H411.575L402.095 356H391.595Z" fill="white"/>
<defs>
<filter id="filter0_d_2207_1983" x="56.2393" y="23.0996" width="443.569" height="331.825" filterUnits="userSpaceOnUse" color-interpolation-filters="sRGB">
<feFlood flood-opacity="0" result="BackgroundImageFix"/>
<feColorMatrix in="SourceAlpha" type="matrix" values="0 0 0 0 0 0 0 0 0 0 0 0 0 0 0 0 0 0 127 0" result="hardAlpha"/>
<feOffset dy="5"/>
<feGaussianBlur stdDeviation="10"/>
<feComposite in2="hardAlpha" operator="out"/>
<feColorMatrix type="matrix" values="0 0 0 0 0 0 0 0 0 0 0 0 0 0 0 0 0 0 0.25 0"/>
<feBlend mode="normal" in2="BackgroundImageFix" result="effect1_dropShadow_2207_1983"/>
<feBlend mode="normal" in="SourceGraphic" in2="effect1_dropShadow_2207_1983" result="shape"/>
</filter>
<filter id="filter1_d_2207_1983" x="66.1964" y="28.0469" width="423.569" height="172.672" filterUnits="userSpaceOnUse" color-interpolation-filters="sRGB">
<feFlood flood-opacity="0" result="BackgroundImageFix"/>
<feColorMatrix in="SourceAlpha" type="matrix" values="0 0 0 0 0 0 0 0 0 0 0 0 0 0 0 0 0 0 127 0" result="hardAlpha"/>
<feOffset dx="5" dy="5"/>
<feGaussianBlur stdDeviation="5"/>
<feComposite in2="hardAlpha" operator="out"/>
<feColorMatrix type="matrix" values="0 0 0 0 0 0 0 0 0 0 0 0 0 0 0 0 0 0 0.25 0"/>
<feBlend mode="normal" in2="BackgroundImageFix" result="effect1_dropShadow_2207_1983"/>
<feBlend mode="normal" in="SourceGraphic" in2="effect1_dropShadow_2207_1983" result="shape"/>
</filter>
<filter id="filter2_d_2207_1983" x="396.575" y="146.17" width="168.425" height="66.5664" filterUnits="userSpaceOnUse" color-interpolation-filters="sRGB">
<feFlood flood-opacity="0" result="BackgroundImageFix"/>
<feColorMatrix in="SourceAlpha" type="matrix" values="0 0 0 0 0 0 0 0 0 0 0 0 0 0 0 0 0 0 127 0" result="hardAlpha"/>
<feOffset dx="5" dy="5"/>
<feGaussianBlur stdDeviation="5"/>
<feComposite in2="hardAlpha" operator="out"/>
<feColorMatrix type="matrix" values="0 0 0 0 0 0 0 0 0 0 0 0 0 0 0 0 0 0 0.25 0"/>
<feBlend mode="normal" in2="BackgroundImageFix" result="effect1_dropShadow_2207_1983"/>
<feBlend mode="normal" in="SourceGraphic" in2="effect1_dropShadow_2207_1983" result="shape"/>
</filter>
<filter id="filter3_d_2207_1983" x="396.575" y="208.44" width="168.425" height="66.5664" filterUnits="userSpaceOnUse" color-interpolation-filters="sRGB">
<feFlood flood-opacity="0" result="BackgroundImageFix"/>
<feColorMatrix in="SourceAlpha" type="matrix" values="0 0 0 0 0 0 0 0 0 0 0 0 0 0 0 0 0 0 127 0" result="hardAlpha"/>
<feOffset dx="5" dy="5"/>
<feGaussianBlur stdDeviation="5"/>
<feComposite in2="hardAlpha" operator="out"/>
<feColorMatrix type="matrix" values="0 0 0 0 0 0 0 0 0 0 0 0 0 0 0 0 0 0 0.25 0"/>
<feBlend mode="normal" in2="BackgroundImageFix" result="effect1_dropShadow_2207_1983"/>
<feBlend mode="normal" in="SourceGraphic" in2="effect1_dropShadow_2207_1983" result="shape"/>
</filter>
<filter id="filter4_d_2207_1983" x="0" y="226.056" width="137.35" height="137.577" filterUnits="userSpaceOnUse" color-interpolation-filters="sRGB">
<feFlood flood-opacity="0" result="BackgroundImageFix"/>
<feColorMatrix in="SourceAlpha" type="matrix" values="0 0 0 0 0 0 0 0 0 0 0 0 0 0 0 0 0 0 127 0" result="hardAlpha"/>
<feOffset dy="5"/>
<feGaussianBlur stdDeviation="5"/>
<feComposite in2="hardAlpha" operator="out"/>
<feColorMatrix type="matrix" values="0 0 0 0 0 0 0 0 0 0 0 0 0 0 0 0 0 0 0.25 0"/>
<feBlend mode="normal" in2="BackgroundImageFix" result="effect1_dropShadow_2207_1983"/>
<feBlend mode="normal" in="SourceGraphic" in2="effect1_dropShadow_2207_1983" result="shape"/>
</filter>
<filter id="filter5_d_2207_1983" x="328.019" y="283.547" width="214.902" height="146.453" filterUnits="userSpaceOnUse" color-interpolation-filters="sRGB">
<feFlood flood-opacity="0" result="BackgroundImageFix"/>
<feColorMatrix in="SourceAlpha" type="matrix" values="0 0 0 0 0 0 0 0 0 0 0 0 0 0 0 0 0 0 127 0" result="hardAlpha"/>
<feOffset dx="5" dy="5"/>
<feGaussianBlur stdDeviation="5"/>
<feComposite in2="hardAlpha" operator="out"/>
<feColorMatrix type="matrix" values="0 0 0 0 0 0 0 0 0 0 0 0 0 0 0 0 0 0 0.25 0"/>
<feBlend mode="normal" in2="BackgroundImageFix" result="effect1_dropShadow_2207_1983"/>
<feBlend mode="normal" in="SourceGraphic" in2="effect1_dropShadow_2207_1983" result="shape"/>
</filter>
<linearGradient id="paint0_linear_2207_1983" x1="254.542" y1="-15.6982" x2="292.636" y2="245.015" gradientUnits="userSpaceOnUse">
<stop stop-color="#FF9696"/>
<stop offset="1" stop-color="#DD0000"/>
</linearGradient>
<linearGradient id="paint1_linear_2207_1983" x1="270.817" y1="270.426" x2="323.856" y2="270.426" gradientUnits="userSpaceOnUse">
<stop stop-color="#FF9696"/>
<stop offset="1"/>
</linearGradient>
<linearGradient id="paint2_linear_2207_1983" x1="210.918" y1="270.426" x2="263.957" y2="270.426" gradientUnits="userSpaceOnUse">
<stop stop-color="#FF9696"/>
<stop offset="1" stop-color="#DD0000"/>
</linearGradient>
<linearGradient id="paint3_linear_2207_1983" x1="151.02" y1="270.426" x2="204.059" y2="270.426" gradientUnits="userSpaceOnUse">
<stop stop-color="#FF9696"/>
<stop offset="1"/>
</linearGradient>
<linearGradient id="paint4_linear_2207_1983" x1="91.1205" y1="270.426" x2="144.16" y2="270.426" gradientUnits="userSpaceOnUse">
<stop stop-color="#FF9696"/>
<stop offset="1" stop-color="#DD0000"/>
</linearGradient>
<linearGradient id="paint5_linear_2207_1983" x1="490.847" y1="140.398" x2="461.961" y2="205.626" gradientUnits="userSpaceOnUse">
<stop stop-color="#FF9696"/>
<stop offset="1" stop-color="#DD0000"/>
</linearGradient>
<linearGradient id="paint6_linear_2207_1983" x1="490.847" y1="202.614" x2="432.883" y2="284.918" gradientUnits="userSpaceOnUse">
<stop stop-color="#FF9696"/>
<stop offset="1"/>
</linearGradient>
<linearGradient id="paint7_linear_2207_1983" x1="271.077" y1="404.997" x2="276.154" y2="404.997" gradientUnits="userSpaceOnUse">
<stop stop-color="#FF9696"/>
<stop offset="1" stop-color="#DD0000"/>
</linearGradient>
<linearGradient id="paint8_linear_2207_1983" x1="160.174" y1="4.87924" x2="185.78" y2="31.2433" gradientUnits="userSpaceOnUse">
<stop stop-color="#FF9696"/>
<stop offset="1" stop-color="#DD0000"/>
</linearGradient>
<linearGradient id="paint9_linear_2207_1983" x1="221.543" y1="-2.31242" x2="258.427" y2="35.6629" gradientUnits="userSpaceOnUse">
<stop stop-color="#FF9696"/>
<stop offset="1" stop-color="#DD0000"/>
</linearGradient>
<linearGradient id="paint10_linear_2207_1983" x1="127" y1="231" x2="63.1038" y2="369.048" gradientUnits="userSpaceOnUse">
<stop offset="0.3125" stop-color="#FF9696"/>
<stop offset="1"/>
</linearGradient>
<linearGradient id="paint11_linear_2207_1983" x1="65.5217" y1="312.329" x2="71.6416" y2="339.636" gradientUnits="userSpaceOnUse">
<stop stop-color="#FF9696"/>
<stop offset="1" stop-color="#DD0000"/>
</linearGradient>
<linearGradient id="paint12_linear_2207_1983" x1="333.112" y1="351.846" x2="527.861" y2="351.846" gradientUnits="userSpaceOnUse">
<stop stop-color="#FF9696"/>
<stop offset="1" stop-color="#DD0000"/>
</linearGradient>
<linearGradient id="paint13_linear_2207_1983" x1="461.011" y1="300.256" x2="479.363" y2="344.433" gradientUnits="userSpaceOnUse">
<stop stop-color="#FF9696"/>
<stop offset="1" stop-color="#DD0000"/>
</linearGradient>
<linearGradient id="paint14_linear_2207_1983" x1="457.791" y1="350.64" x2="480.118" y2="350.64" gradientUnits="userSpaceOnUse">
<stop stop-color="#FF9696"/>
<stop offset="1"/>
</linearGradient>
<linearGradient id="paint15_linear_2207_1983" x1="491.677" y1="331.528" x2="510.03" y2="375.705" gradientUnits="userSpaceOnUse">
<stop stop-color="#FF9696"/>
<stop offset="1" stop-color="#DD0000"/>
</linearGradient>
</defs>
</svg>
