<svg width="526" height="156" viewBox="0 0 526 156" fill="none" xmlns="http://www.w3.org/2000/svg">
<path d="M189.28 103.259C185.16 103.259 181.66 102.499 178.78 100.979C175.94 99.4191 173.78 97.2191 172.3 94.3791C170.82 91.5391 170.08 88.1791 170.08 84.2991V58.3191H179.92V84.6591C179.92 86.5791 180.28 88.2591 181 89.6991C181.76 91.0991 182.82 92.1791 184.18 92.9391C185.58 93.6991 187.28 94.0791 189.28 94.0791C191.32 94.0791 193.02 93.6991 194.38 92.9391C195.78 92.1791 196.84 91.0991 197.56 89.6991C198.28 88.2991 198.64 86.6191 198.64 84.6591V58.3191H208.48V84.2991C208.48 88.1791 207.74 91.5391 206.26 94.3791C204.78 97.2191 202.62 99.4191 199.78 100.979C196.94 102.499 193.44 103.259 189.28 103.259ZM212.595 102.119L227.535 78.7791L227.655 79.7991L213.855 58.3191H224.655L233.175 71.9991H234.555L242.955 58.3191H253.455L239.595 79.9191L239.415 78.9591L254.835 102.119H243.975L234.015 86.6391H232.575L223.095 102.119H212.595ZM281.513 102.359V93.1791H289.673C291.713 93.1791 293.553 92.8791 295.193 92.2791C296.833 91.6391 298.233 90.7591 299.393 89.6391C300.553 88.4791 301.433 87.0991 302.033 85.4991C302.633 83.8591 302.933 82.0591 302.933 80.0991C302.933 78.0591 302.633 76.2391 302.033 74.6391C301.433 73.0391 300.553 71.6791 299.393 70.5591C298.233 69.4391 296.833 68.5991 295.193 68.0391C293.553 67.4391 291.713 67.1391 289.673 67.1391H281.513V57.9591H289.133C293.093 57.9591 296.553 58.5391 299.513 59.6991C302.473 60.8591 304.953 62.4391 306.953 64.4391C308.953 66.4391 310.433 68.7391 311.393 71.3391C312.393 73.8991 312.893 76.5991 312.893 79.4391V80.7591C312.893 83.3991 312.393 86.0191 311.393 88.6191C310.433 91.1791 308.953 93.4991 306.953 95.5791C304.953 97.6191 302.473 99.2591 299.513 100.499C296.553 101.739 293.093 102.359 289.133 102.359H281.513ZM272.873 102.359V57.9591H282.713V102.359H272.873ZM334.268 103.259C331.468 103.259 328.988 102.779 326.828 101.819C324.708 100.859 322.928 99.5791 321.488 97.9791C320.088 96.3391 319.008 94.5191 318.248 92.5191C317.528 90.4791 317.168 88.3991 317.168 86.2791V85.0791C317.168 82.8791 317.528 80.7791 318.248 78.7791C319.008 76.7391 320.088 74.9191 321.488 73.3191C322.888 71.7191 324.628 70.4591 326.708 69.5391C328.828 68.5791 331.228 68.0991 333.908 68.0991C337.428 68.0991 340.388 68.8991 342.788 70.4991C345.228 72.0591 347.088 74.1191 348.368 76.6791C349.648 79.1991 350.288 81.9591 350.288 84.9591V88.1991H321.188V82.7391H344.468L341.348 85.2591C341.348 83.2991 341.068 81.6191 340.508 80.2191C339.948 78.8191 339.108 77.7591 337.988 77.0391C336.908 76.2791 335.548 75.8991 333.908 75.8991C332.228 75.8991 330.808 76.2791 329.648 77.0391C328.488 77.7991 327.608 78.9191 327.008 80.3991C326.408 81.8391 326.108 83.6191 326.108 85.7391C326.108 87.6991 326.388 89.4191 326.948 90.8991C327.508 92.3391 328.388 93.4591 329.588 94.2591C330.788 95.0591 332.348 95.4591 334.268 95.4591C336.028 95.4591 337.468 95.1191 338.588 94.4391C339.708 93.7591 340.468 92.9191 340.868 91.9191H349.688C349.208 94.1191 348.268 96.0791 346.868 97.7991C345.468 99.5191 343.708 100.859 341.588 101.819C339.468 102.779 337.028 103.259 334.268 103.259ZM369.13 103.139C364.45 103.139 360.79 102.179 358.15 100.259C355.51 98.3391 354.11 95.6391 353.95 92.1591H362.47C362.63 93.1991 363.25 94.1391 364.33 94.9791C365.45 95.7791 367.11 96.1791 369.31 96.1791C370.99 96.1791 372.37 95.8991 373.45 95.3391C374.57 94.7391 375.13 93.8991 375.13 92.8191C375.13 91.8591 374.71 91.0991 373.87 90.5391C373.03 89.9391 371.53 89.5191 369.37 89.2791L366.79 89.0391C362.83 88.6391 359.85 87.5391 357.85 85.7391C355.89 83.9391 354.91 81.6391 354.91 78.8391C354.91 76.5191 355.49 74.5791 356.65 73.0191C357.81 71.4591 359.41 70.2791 361.45 69.4791C363.53 68.6791 365.89 68.2791 368.53 68.2791C372.77 68.2791 376.19 69.2191 378.79 71.0991C381.39 72.9391 382.75 75.6191 382.87 79.1391H374.35C374.19 78.0591 373.63 77.1591 372.67 76.4391C371.71 75.6791 370.29 75.2991 368.41 75.2991C366.93 75.2991 365.75 75.5791 364.87 76.1391C363.99 76.6991 363.55 77.4591 363.55 78.4191C363.55 79.3391 363.93 80.0391 364.69 80.5191C365.45 80.9991 366.69 81.3391 368.41 81.5391L370.99 81.7791C375.03 82.2191 378.17 83.3391 380.41 85.1391C382.65 86.9391 383.77 89.3591 383.77 92.3991C383.77 94.5991 383.17 96.5191 381.97 98.1591C380.77 99.7591 379.07 100.999 376.87 101.879C374.67 102.719 372.09 103.139 369.13 103.139ZM391.549 102.119V69.2391H401.149V102.119H391.549ZM387.169 76.3191V69.2391H401.149V76.3191H387.169ZM395.269 65.9991C393.469 65.9991 392.129 65.5391 391.249 64.6191C390.409 63.6591 389.989 62.4591 389.989 61.0191C389.989 59.5391 390.409 58.3391 391.249 57.4191C392.129 56.4591 393.469 55.9791 395.269 55.9791C397.069 55.9791 398.389 56.4591 399.229 57.4191C400.109 58.3391 400.549 59.5391 400.549 61.0191C400.549 62.4591 400.109 63.6591 399.229 64.6191C398.389 65.5391 397.069 65.9991 395.269 65.9991ZM422.988 115.199C421.388 115.199 419.748 115.139 418.068 115.019C416.388 114.899 414.848 114.739 413.448 114.539V106.439C414.848 106.639 416.388 106.799 418.068 106.919C419.788 107.079 421.348 107.159 422.748 107.159C425.348 107.159 427.448 106.859 429.048 106.259C430.688 105.659 431.888 104.739 432.648 103.499C433.408 102.299 433.788 100.739 433.788 98.8191V92.2791L435.528 88.4391C435.448 91.3591 434.868 93.8591 433.788 95.9391C432.748 98.0191 431.288 99.6191 429.408 100.739C427.528 101.819 425.288 102.359 422.688 102.359C420.448 102.359 418.408 101.959 416.568 101.159C414.768 100.319 413.228 99.1591 411.948 97.6791C410.668 96.1991 409.688 94.4791 409.008 92.5191C408.328 90.5191 407.988 88.3591 407.988 86.0391V84.6591C407.988 82.3391 408.348 80.1791 409.068 78.1791C409.788 76.1791 410.828 74.4391 412.188 72.9591C413.548 71.4791 415.168 70.3391 417.048 69.5391C418.928 68.6991 421.008 68.2791 423.288 68.2791C425.928 68.2791 428.208 68.8591 430.128 70.0191C432.088 71.1791 433.628 72.8791 434.748 75.1191C435.868 77.3591 436.468 80.0591 436.548 83.2191L435.228 83.5791V69.2391H442.848V98.2191C442.848 102.259 442.128 105.519 440.688 107.999C439.248 110.479 437.048 112.299 434.088 113.459C431.168 114.619 427.468 115.199 422.988 115.199ZM425.688 94.2591C427.168 94.2591 428.508 93.9391 429.708 93.2991C430.908 92.6191 431.848 91.6591 432.528 90.4191C433.248 89.1791 433.608 87.6791 433.608 85.9191V84.1791C433.608 82.4591 433.228 81.0191 432.468 79.8591C431.748 78.6591 430.788 77.7591 429.588 77.1591C428.388 76.5191 427.108 76.1991 425.748 76.1991C424.148 76.1991 422.728 76.5791 421.488 77.3391C420.248 78.0991 419.288 79.1591 418.608 80.5191C417.928 81.8791 417.588 83.4791 417.588 85.3191C417.588 87.1991 417.928 88.8191 418.608 90.1791C419.328 91.4991 420.288 92.5191 421.488 93.2391C422.728 93.9191 424.128 94.2591 425.688 94.2591ZM451.161 102.119V69.2391H458.781V83.3391H458.241C458.241 79.9791 458.661 77.1791 459.501 74.9391C460.381 72.6991 461.701 71.0191 463.461 69.8991C465.221 68.7791 467.361 68.2191 469.881 68.2191H470.301C474.141 68.2191 477.061 69.4791 479.061 71.9991C481.101 74.4791 482.121 78.2591 482.121 83.3391V102.119H472.521V82.7991C472.521 81.0391 472.001 79.5991 470.961 78.4791C469.921 77.3591 468.521 76.7991 466.761 76.7991C464.961 76.7991 463.501 77.3791 462.381 78.5391C461.301 79.6591 460.761 81.1391 460.761 82.9791V102.119H451.161Z" fill="#DD0000"/>
<path d="M484.907 48.0922L485.498 49.0625C482.446 51.0887 480.069 54.0059 478.677 57.4333C477.285 60.8608 476.942 64.6395 477.693 68.2762L472.799 60.2361C473.171 59.8412 473.389 59.3211 473.41 58.7734C473.432 58.2257 473.257 57.6879 472.917 57.261C472.578 56.834 472.097 56.5471 471.566 56.4541C471.034 56.3611 470.488 56.4683 470.03 56.7557C469.572 57.0431 469.234 57.4908 469.078 58.0151C468.922 58.5394 468.96 59.1041 469.185 59.6035C469.409 60.1029 469.804 60.5026 470.296 60.7278C470.789 60.9529 471.344 60.988 471.858 60.8265L478.906 72.4042L477.965 72.9945C477.84 73.0728 477.752 73.1984 477.718 73.3437C477.685 73.489 477.709 73.642 477.787 73.7692L479.538 76.6466C479.616 76.7738 479.74 76.8647 479.883 76.8993C480.025 76.9339 480.176 76.9093 480.301 76.831L481.241 76.2407L488.289 87.8184C487.917 88.2133 487.699 88.7334 487.677 89.2811C487.656 89.8288 487.831 90.3666 488.171 90.7935C488.51 91.2205 488.991 91.5074 489.522 91.6004C490.054 91.6934 490.6 91.5862 491.058 91.2988C491.515 91.0114 491.854 90.5637 492.01 90.0394C492.165 89.5151 492.128 88.9504 491.903 88.451C491.679 87.9516 491.284 87.5519 490.792 87.3267C490.299 87.1016 489.744 87.0665 489.23 87.228L484.335 79.188C487.203 81.4966 490.685 82.875 494.327 83.1432C497.969 83.4114 501.602 82.557 504.751 80.6915L505.342 81.6618C505.419 81.789 505.543 81.8798 505.686 81.9144C505.829 81.949 505.979 81.9245 506.104 81.8462L508.926 80.0751C509.051 79.9969 509.14 79.8713 509.173 79.726C509.207 79.5807 509.182 79.4276 509.104 79.3004L507.353 76.423C507.275 76.2958 507.152 76.2049 507.009 76.1704C506.866 76.1358 506.715 76.1603 506.591 76.2386L503.769 78.0096C503.644 78.0879 503.555 78.2135 503.522 78.3588C503.488 78.5041 503.513 78.6572 503.59 78.7844L504.167 79.7323C500.646 81.8093 496.505 82.5317 492.494 81.7686C488.484 81.0056 484.869 78.8075 482.306 75.5727L483.123 75.06C483.247 74.9817 483.336 74.8561 483.37 74.7108C483.403 74.5655 483.378 74.4125 483.301 74.2853L481.55 71.4079C481.472 71.2807 481.348 71.1898 481.205 71.1552C481.062 71.1206 480.912 71.1452 480.787 71.2235L479.97 71.7362C478.267 67.9613 477.947 63.6958 479.068 59.7124C480.189 55.729 482.677 52.2911 486.082 50.0216L486.659 50.9696C486.736 51.0967 486.86 51.1876 487.003 51.2222C487.146 51.2568 487.296 51.2322 487.421 51.1539L490.243 49.3829C490.368 49.3046 490.457 49.179 490.49 49.0337C490.524 48.8885 490.499 48.7354 490.421 48.6082L488.67 45.7308C488.592 45.6036 488.469 45.5127 488.326 45.4781C488.183 45.4436 488.032 45.4681 487.908 45.5464L485.086 47.3174C484.961 47.3957 484.872 47.5213 484.838 47.6666C484.805 47.8119 484.83 47.965 484.907 48.0922Z" fill="#DD0000"/>
<path d="M485.892 68.9822C485.84 69.0679 485.818 69.169 485.83 69.269C485.842 69.369 485.888 69.462 485.96 69.533C486.032 69.604 486.126 69.6488 486.227 69.6602C486.328 69.6716 486.429 69.6488 486.515 69.5956L498.87 61.9491C498.943 61.9034 499.002 61.8374 499.039 61.7591C499.075 61.6808 499.088 61.5935 499.076 61.5078C499.014 61.1013 499.095 60.6866 499.305 60.3335C499.516 59.9804 499.842 59.7104 500.23 59.5691C500.618 59.4278 501.043 59.4237 501.435 59.5575C501.827 59.6913 502.16 59.9549 502.38 60.3038C502.599 60.6528 502.692 61.0658 502.641 61.4734C502.59 61.881 502.399 62.2582 502.101 62.5417C501.803 62.8251 501.415 62.9974 501.002 63.0295C500.59 63.0617 500.179 62.9518 499.838 62.7182C499.766 62.6696 499.681 62.6427 499.594 62.6409C499.507 62.6392 499.421 62.6625 499.347 62.7082L486.993 70.3547C486.907 70.4078 486.842 70.4883 486.808 70.583C486.774 70.6777 486.773 70.7812 486.806 70.8766C486.839 70.9721 486.903 71.0539 486.988 71.1088C487.073 71.1637 487.174 71.1885 487.275 71.1792L506.299 69.4247C506.368 69.4183 506.435 69.3958 506.494 69.3592C506.553 69.3226 506.603 69.2727 506.64 69.2136L510.449 63.0187L503.465 51.923L496.18 52.5949C496.11 52.6013 496.043 52.6237 495.984 52.6604C495.925 52.697 495.875 52.7469 495.839 52.806L485.892 68.9822Z" fill="#DD0000"/>
<path d="M504.181 50.6861L511.962 63.9431C512.088 64.1584 512.361 64.2284 512.57 64.0993L514.845 62.6973C515.054 62.5682 515.121 62.289 514.995 62.0737L507.213 48.8167C507.087 48.6014 506.815 48.5314 506.605 48.6605L504.331 50.0625C504.121 50.1916 504.054 50.4708 504.181 50.6861Z" fill="#DD0000"/>
<path d="M518.083 59.2556C518.183 59.1934 518.255 59.0927 518.283 58.9757C518.311 58.8587 518.293 58.735 518.232 58.6317L511.802 47.7297C511.741 47.6264 511.643 47.5521 511.529 47.5231C511.415 47.494 511.295 47.5127 511.194 47.5748L508.546 49.2162L515.435 60.897L518.083 59.2556Z" fill="#DD0000"/>
<path d="M62.2234 109.112C56.16 109.112 51.0091 107.993 46.7706 105.756C42.5909 103.46 39.4121 100.223 37.234 96.0431C35.0559 91.8634 33.9668 86.9185 33.9668 81.2083V42.9736H48.4483V81.7382C48.4483 84.5638 48.9781 87.0363 50.0377 89.1555C51.1562 91.2159 52.7162 92.8053 54.7177 93.9238C56.7781 95.0423 59.28 95.6016 62.2234 95.6016C65.2257 95.6016 67.7276 95.0423 69.7291 93.9238C71.7894 92.8053 73.3494 91.2159 74.4091 89.1555C75.4687 87.0951 75.9985 84.6227 75.9985 81.7382V42.9736H90.48V81.2083C90.48 86.9185 89.3909 91.8634 87.2128 96.0431C85.0347 100.223 81.8559 103.46 77.6762 105.756C73.4966 107.993 68.3457 109.112 62.2234 109.112Z" fill="url(#paint0_linear_2207_1968)"/>
<path d="M103.934 107.434V42.9736H118.416V107.434H103.934Z" fill="url(#paint1_linear_2207_1968)"/>
<rect x="5.41504" y="5.41504" width="145.17" height="145.17" fill="#FF9696" fill-opacity="0.3" stroke="#DD0000" stroke-width="2"/>
<rect width="11.7736" height="11.7736" fill="#DD0000"/>
<rect x="144.226" width="11.7736" height="11.7736" fill="#DD0000"/>
<rect x="144.226" y="144.227" width="11.7736" height="11.7736" fill="#DD0000"/>
<rect y="144.227" width="11.7736" height="11.7736" fill="#DD0000"/>
<defs>
<linearGradient id="paint0_linear_2207_1968" x1="27.9622" y1="22.0756" x2="132.201" y2="47.0428" gradientUnits="userSpaceOnUse">
<stop stop-color="#DD0606"/>
<stop offset="0.895833" stop-color="#FF9696"/>
</linearGradient>
<linearGradient id="paint1_linear_2207_1968" x1="27.9622" y1="22.0756" x2="132.201" y2="47.0428" gradientUnits="userSpaceOnUse">
<stop stop-color="#DD0606"/>
<stop offset="0.895833" stop-color="#FF9696"/>
</linearGradient>
</defs>
</svg>
