<svg width="100" height="100" viewBox="0 0 100 100" fill="none" xmlns="http://www.w3.org/2000/svg">
<circle cx="50" cy="50" r="50" fill="#FFD8D8"/>
<path d="M79.279 23C79.279 22.4477 78.8313 22 78.279 22H66C65.4477 22 65 22.4477 65 23V30.9953C65 31.5476 65.4477 31.9953 66 31.9953H78.279C78.8313 31.9953 79.279 31.5476 79.279 30.9953V23ZM77.8511 29.5674C77.8511 30.1197 77.4034 30.5674 76.8511 30.5674H67.4279C66.8756 30.5674 66.4279 30.1197 66.4279 29.5674V24.4279C66.4279 23.8756 66.8756 23.4279 67.4279 23.4279H76.8511C77.4034 23.4279 77.8511 23.8756 77.8511 24.4279V29.5674Z" fill="#DD0000"/>
<path d="M76.4232 34.8506H67.8558C67.4615 34.8506 67.1418 35.1702 67.1418 35.5645C67.1418 35.9588 67.4615 36.2785 67.8558 36.2785H76.4232C76.8175 36.2785 77.1371 35.9588 77.1371 35.5645C77.1371 35.1702 76.8175 34.8506 76.4232 34.8506Z" fill="#DD0000"/>
<path d="M76.4232 38.4209H67.8558C67.4615 38.4209 67.1418 38.7405 67.1418 39.1348C67.1418 39.5291 67.4615 39.8488 67.8558 39.8488H76.4232C76.8175 39.8488 77.1371 39.5291 77.1371 39.1348C77.1371 38.7405 76.8175 38.4209 76.4232 38.4209Z" fill="#DD0000"/>
<path d="M80.15 42H63.85C63.3806 42 63 42.3806 63 42.85C63 43.3194 63.3806 43.7 63.85 43.7H80.15C80.6194 43.7 81 43.3194 81 42.85C81 42.3806 80.6194 42 80.15 42Z" fill="#DD0000"/>
<path fill-rule="evenodd" clip-rule="evenodd" d="M84.6059 50.2695C84.6059 51.3741 83.7105 52.2695 82.6059 52.2695H67V50.8416H81.178C82.2826 50.8416 83.178 49.9462 83.178 48.8416V21.4279C83.178 20.3233 82.2826 19.4279 81.178 19.4279H61.4026C60.8112 19.4279 60.3317 19.9074 60.3317 20.4988V20.8558C60.3317 21.2501 60.6513 21.5697 61.0456 21.5697C61.4399 21.5697 61.7596 21.8894 61.7596 22.2837C61.7596 22.678 61.4399 22.9976 61.0456 22.9976C60.6513 22.9976 60.3317 23.3173 60.3317 23.7116V25.1395C60.3317 25.5338 60.6513 25.8534 61.0456 25.8534C61.4399 25.8534 61.7596 26.1731 61.7596 26.5674C61.7596 26.9617 61.4399 27.2813 61.0456 27.2813C60.6513 27.2813 60.3317 27.601 60.3317 27.9953V29.4232C60.3317 29.8175 60.6513 30.1371 61.0456 30.1371C61.4399 30.1371 61.7596 30.4568 61.7596 30.8511C61.7596 31.2454 61.4399 31.565 61.0456 31.565C60.6513 31.565 60.3317 31.8847 60.3317 32.279V33.7069C60.3317 34.1012 60.6513 34.4208 61.0456 34.4208C61.4399 34.4208 61.7596 34.7405 61.7596 35.1348C61.7596 35.5291 61.4399 35.8487 61.0456 35.8487C60.6513 35.8487 60.3317 36.1684 60.3317 36.5627V37.9906C60.3317 38.3849 60.6513 38.7045 61.0456 38.7045C61.4399 38.7045 61.7596 39.0242 61.7596 39.4185C61.7596 39.8128 61.4399 40.1324 61.0456 40.1324C60.6513 40.1324 60.3317 40.452 60.3317 40.8463V42H58.9038V40.8463C58.9038 40.452 58.5841 40.1324 58.1898 40.1324C57.7955 40.1324 57.4759 39.8128 57.4759 39.4185C57.4759 39.0242 57.7955 38.7045 58.1898 38.7045C58.5841 38.7045 58.9038 38.3849 58.9038 37.9906V36.5627C58.9038 36.1684 58.5841 35.8487 58.1898 35.8487C57.7955 35.8487 57.4759 35.5291 57.4759 35.1348C57.4759 34.7405 57.7955 34.4208 58.1898 34.4208C58.5841 34.4208 58.9038 34.1012 58.9038 33.7069V32.279C58.9038 31.8847 58.5841 31.565 58.1898 31.565C57.7955 31.565 57.4759 31.2454 57.4759 30.8511C57.4759 30.4568 57.7955 30.1371 58.1898 30.1371C58.5841 30.1371 58.9038 29.8175 58.9038 29.4232V27.9953C58.9038 27.601 58.5841 27.2813 58.1898 27.2813C57.7955 27.2813 57.4759 26.9617 57.4759 26.5674C57.4759 26.1731 57.7955 25.8534 58.1898 25.8534C58.5841 25.8534 58.9038 25.5338 58.9038 25.1395V23.7116C58.9038 23.3173 58.5841 22.9976 58.1898 22.9976C57.7955 22.9976 57.4759 22.678 57.4759 22.2837C57.4759 21.8894 57.7955 21.5697 58.1898 21.5697C58.5841 21.5697 58.9038 21.2501 58.9038 20.8558V19.7849C58.9038 18.7991 59.7029 18 60.6887 18H82.6059C83.7105 18 84.6059 18.8954 84.6059 20V50.2695Z" fill="#DD0000"/>
<path d="M67.66 71.5801H65.58C65.8534 71.0657 65.9976 70.4926 66 69.9101V53.8001C66.4323 52.9299 66.6582 51.9717 66.66 51.0001V44.5801C66.66 43.9621 66.4145 43.3695 65.9776 42.9325C65.5406 42.4956 64.948 42.2501 64.33 42.2501H57.33V41.2501C57.3274 38.6862 56.3077 36.2282 54.4948 34.4153C52.6819 32.6024 50.2238 31.5827 47.66 31.5801H37C34.4362 31.5827 31.9781 32.6024 30.1652 34.4153C28.3523 36.2282 27.3326 38.6862 27.33 41.2501V42.2501H20.33C19.712 42.2501 19.1194 42.4956 18.6824 42.9325C18.2455 43.3695 18 43.9621 18 44.5801V51.0001C18.0003 51.9751 18.2262 52.9369 18.66 53.8101V69.9101C18.6624 70.4926 18.8066 71.0657 19.08 71.5801H17C16.7348 71.5801 16.4804 71.6854 16.2929 71.873C16.1054 72.0605 16 72.3149 16 72.5801C16 72.8453 16.1054 73.0996 16.2929 73.2872C16.4804 73.4747 16.7348 73.5801 17 73.5801H36.2L36.08 75.2801C36.0706 75.4264 36.0935 75.5731 36.147 75.7096C36.2006 75.8461 36.2836 75.9692 36.39 76.0701L41.63 81.1501C41.8169 81.3333 42.0682 81.4359 42.33 81.4359C42.5918 81.4359 42.8431 81.3333 43.03 81.1501L48.27 76.0701C48.3764 75.9692 48.4594 75.8461 48.513 75.7096C48.5665 75.5731 48.5894 75.4264 48.58 75.2801L48.46 73.5801H67.66C67.9252 73.5801 68.1796 73.4747 68.3671 73.2872C68.5546 73.0996 68.66 72.8453 68.66 72.5801C68.66 72.3149 68.5546 72.0605 68.3671 71.873C68.1796 71.6854 67.9252 71.5801 67.66 71.5801ZM29.33 41.2501C29.3326 39.2167 30.1416 37.2673 31.5794 35.8295C33.0172 34.3917 34.9666 33.5827 37 33.5801H47.66C49.6934 33.5827 51.6428 34.3917 53.0806 35.8295C54.5184 37.2673 55.3274 39.2167 55.33 41.2501V42.2501H53.33V41.2501C53.33 39.7463 52.7326 38.3041 51.6693 37.2408C50.606 36.1775 49.1638 35.5801 47.66 35.5801H37C35.4962 35.5801 34.054 36.1775 32.9907 37.2408C31.9274 38.3041 31.33 39.7463 31.33 41.2501V42.2501H29.33V41.2501ZM51.33 41.2501V42.2501H49.41C49.296 41.9441 49.1302 41.6599 48.92 41.4101C48.6393 41.079 48.29 40.8127 47.8964 40.6297C47.5028 40.4467 47.0741 40.3513 46.64 40.3501H38.02C37.5859 40.3513 37.1572 40.4467 36.7636 40.6297C36.37 40.8127 36.0207 41.079 35.74 41.4101C35.5297 41.6599 35.364 41.9441 35.25 42.2501H33.33V41.2501C33.33 40.2767 33.7167 39.3433 34.4049 38.655C35.0932 37.9667 36.0267 37.5801 37 37.5801H47.66C48.142 37.5801 48.6192 37.675 49.0644 37.8594C49.5097 38.0439 49.9143 38.3142 50.2551 38.655C50.5959 38.9958 50.8662 39.4004 51.0506 39.8456C51.2351 40.2909 51.33 40.7681 51.33 41.2501ZM36.33 71.5801H22.33C22.1107 71.5801 21.8935 71.5369 21.6909 71.453C21.4883 71.369 21.3042 71.246 21.1491 71.091C20.9941 70.9359 20.871 70.7518 20.7871 70.5492C20.7032 70.3465 20.66 70.1294 20.66 69.9101V56.1401C21.73 56.9072 23.0134 57.3199 24.33 57.3201H25.33V58.5801C25.304 59.0775 25.3795 59.575 25.552 60.0422C25.7244 60.5095 25.9902 60.9368 26.3331 61.2981C26.676 61.6593 27.0888 61.947 27.5464 62.1436C28.0041 62.3402 28.4969 62.4416 28.995 62.4416C29.4931 62.4416 29.9859 62.3402 30.4436 62.1436C30.9012 61.947 31.314 61.6593 31.6569 61.2981C31.9998 60.9368 32.2656 60.5095 32.438 60.0422C32.6105 59.575 32.686 59.0775 32.66 58.5801V57.3201H37.33L36.33 71.5801ZM27.33 58.5801V55.5801H30.66V58.5801C30.6778 58.8096 30.648 59.0403 30.5724 59.2577C30.4968 59.4751 30.377 59.6746 30.2207 59.8435C30.0643 60.0124 29.8747 60.1472 29.6638 60.2394C29.4529 60.3316 29.2252 60.3792 28.995 60.3792C28.7648 60.3792 28.5371 60.3316 28.3262 60.2394C28.1153 60.1472 27.9257 60.0124 27.7693 59.8435C27.613 59.6746 27.4932 59.4751 27.4176 59.2577C27.342 59.0403 27.3122 58.8096 27.33 58.5801ZM37.43 55.3201H32.66V55.2501C32.6613 55.0312 32.6194 54.8143 32.5365 54.6118C32.4537 54.4092 32.3316 54.225 32.1773 54.0698C32.0231 53.9146 31.8396 53.7914 31.6376 53.7074C31.4355 53.6233 31.2188 53.5801 31 53.5801H27C26.5571 53.5801 26.1323 53.756 25.8191 54.0692C25.5059 54.3824 25.33 54.8072 25.33 55.2501V55.3201H24.33C23.1833 55.3201 22.0835 54.8653 21.2718 54.0554C20.46 53.2455 20.0026 52.1467 20 51.0001V44.5801C20 44.4926 20.0348 44.4086 20.0967 44.3467C20.1585 44.2848 20.2425 44.2501 20.33 44.2501H35.13L35.83 48.4001C35.9069 48.8833 36.1353 49.3295 36.4821 49.6746C36.829 50.0197 37.2764 50.2457 37.76 50.3201L37.43 55.3201ZM38.11 75.0001L38.33 71.6701L46.03 67.2301L46.33 71.4201L38.91 75.7101L38.11 75.0001ZM45.17 54.4001L45.45 58.5901L38.96 62.3401L39.26 57.8001L45.17 54.4001ZM39.43 55.4001L39.77 50.4001H44.89L45.02 52.2201L39.43 55.4001ZM45.6 60.8101L45.88 65.0101L38.49 69.2701L38.8 64.7401L45.6 60.8101ZM42.33 79.0001L40.38 77.1201L46.46 73.6101L46.55 74.9101L42.33 79.0001ZM46.53 48.3101H38.13C38.0505 48.311 37.9733 48.2832 37.9127 48.2317C37.8521 48.1803 37.812 48.1087 37.8 48.0301L37.04 43.4701C37.0158 43.3272 37.0229 43.1807 37.0609 43.0409C37.0989 42.901 37.1668 42.7711 37.26 42.6601C37.3539 42.5503 37.4704 42.4622 37.6016 42.4018C37.7328 42.3413 37.8756 42.3101 38.02 42.3101H46.64C46.7844 42.3101 46.9272 42.3413 47.0584 42.4018C47.1896 42.4622 47.3061 42.5503 47.4 42.6601C47.4932 42.7711 47.5611 42.901 47.5991 43.0409C47.6371 43.1807 47.6442 43.3272 47.62 43.4701L46.86 48.0301C46.8574 48.1159 46.8215 48.1972 46.7599 48.257C46.6983 48.3167 46.6158 48.3501 46.53 48.3501V48.3101ZM46.9 50.3101C47.3822 50.2363 47.8286 50.0117 48.1753 49.6686C48.522 49.3255 48.7512 48.8814 48.83 48.4001L49.53 44.2501H64.33C64.4175 44.2501 64.5015 44.2848 64.5633 44.3467C64.6252 44.4086 64.66 44.4926 64.66 44.5801V51.0001C64.6574 52.1467 64.2 53.2455 63.3882 54.0554C62.5765 54.8653 61.4767 55.3201 60.33 55.3201H59.33V55.2501C59.33 54.8072 59.1541 54.3824 58.8409 54.0692C58.5277 53.756 58.1029 53.5801 57.66 53.5801H53.66C53.4412 53.5801 53.2245 53.6233 53.0224 53.7074C52.8204 53.7914 52.6369 53.9146 52.4827 54.0698C52.3284 54.225 52.2063 54.4092 52.1235 54.6118C52.0406 54.8143 51.9987 55.0312 52 55.2501V55.3201H47.23L46.9 50.3101ZM57.33 55.5801V58.5801C57.3478 58.8096 57.318 59.0403 57.2424 59.2577C57.1668 59.4751 57.047 59.6746 56.8907 59.8435C56.7343 60.0124 56.5447 60.1472 56.3338 60.2394C56.1229 60.3316 55.8952 60.3792 55.665 60.3792C55.4348 60.3792 55.2071 60.3316 54.9962 60.2394C54.7853 60.1472 54.5957 60.0124 54.4393 59.8435C54.283 59.6746 54.1632 59.4751 54.0876 59.2577C54.012 59.0403 53.9822 58.8096 54 58.5801V55.5801H57.33ZM48.33 71.5801L47.33 57.3201H51.96V58.5801C51.934 59.0775 52.0095 59.575 52.182 60.0422C52.3544 60.5095 52.6202 60.9368 52.9631 61.2981C53.306 61.6593 53.7188 61.947 54.1764 62.1436C54.6341 62.3402 55.1269 62.4416 55.625 62.4416C56.1231 62.4416 56.6159 62.3402 57.0736 62.1436C57.5312 61.947 57.944 61.6593 58.2869 61.2981C58.6298 60.9368 58.8956 60.5095 59.068 60.0422C59.2405 59.575 59.316 59.0775 59.29 58.5801V57.3201H60.29C61.6066 57.3199 62.89 56.9072 63.96 56.1401V69.9101C63.9601 70.3461 63.7897 70.765 63.4851 71.077C63.1805 71.3891 62.7659 71.5696 62.33 71.5801H48.33Z" fill="#DD0000"/>
</svg>
