<svg width="100" height="100" viewBox="0 0 100 100" fill="none" xmlns="http://www.w3.org/2000/svg">
<circle cx="50" cy="50" r="50" fill="#FFD8D8"/>
<path d="M81.6917 67.3665C81.0651 65.6095 79.7808 64.243 78.0752 63.493C76.3696 62.7429 74.4894 62.7327 72.7735 63.4621L61.2661 68.322C61.2764 68.1884 61.2867 68.0343 61.2867 67.8904C61.2867 65.6506 59.4681 63.832 57.2282 63.832H48.9264C48.5873 63.832 48.2585 63.7601 47.9504 63.6162L40.9122 60.4414C39.8129 59.9379 38.5902 59.6708 37.3778 59.6708H31.4186V59.0954C31.4186 57.9653 30.5043 57.0405 29.3637 57.0405H18V82.9734H29.3637C30.5043 82.9734 31.4186 82.0487 31.4186 80.9185V79.3055H34.7167L46.9948 83.2508C48.0119 83.5693 49.06 83.7338 50.1181 83.7338C51.7827 83.7338 53.4471 83.3331 54.9267 82.5419L82 68.1987L81.6917 67.3665ZM25.223 79.1616C24.4318 79.1616 23.7847 78.5143 23.7847 77.7231C23.7847 76.9217 24.4318 76.2744 25.223 76.2744C26.0142 76.2744 26.6615 76.9217 26.6615 77.7231C26.6615 78.5143 26.0142 79.1616 25.223 79.1616ZM53.9711 80.7233C52.0293 81.761 49.7176 81.9562 47.6215 81.2884L35.1894 77.2916L31.4186 77.2505V61.7257H37.3778C38.3025 61.7257 39.2273 61.9312 40.0595 62.3114L47.0975 65.4965C47.6729 65.7534 48.2894 65.8869 48.9264 65.8869H57.2281C58.3377 65.8869 59.2318 66.791 59.2318 67.8904C59.2318 69.0001 58.3377 69.894 57.2281 69.894H46.4811V71.9489H57.2281C57.9783 71.9489 58.6769 71.7536 59.2729 71.3941L73.575 65.3526C74.7667 64.8492 76.0716 64.8595 77.2533 65.3732C78.1574 65.7739 78.8971 66.4314 79.3902 67.2637L53.9711 80.7233Z" fill="#DD0000"/>
<path d="M37.91 35.1934C38.3242 35.1934 38.66 34.8576 38.66 34.4434C38.66 34.0291 38.3242 33.6934 37.91 33.6934C37.4958 33.6934 37.16 34.0291 37.16 34.4434C37.16 34.8576 37.4958 35.1934 37.91 35.1934Z" fill="#DD0000"/>
<path d="M80.49 50.0527C80.49 50.0327 80.48 50.0127 80.48 49.9927C80.47 49.8927 80.44 49.7927 80.39 49.7127C80.38 49.7027 80.38 49.6827 80.37 49.6627L76.33 43.5327V23.8027C76.34 23.7827 76.34 23.7627 76.34 23.7527C76.34 23.7427 76.34 23.7427 76.33 23.7327V20.2727C76.33 18.7727 75.11 17.5527 73.61 17.5527H39.89C38.38 17.5527 37.16 18.7727 37.16 20.2727V32.4427C37.16 32.8627 37.5 33.1927 37.91 33.1927C38.32 33.1927 38.66 32.8627 38.66 32.4427V20.2727C38.66 19.6027 39.21 19.0527 39.89 19.0427H73.61C74.28 19.0527 74.83 19.6027 74.83 20.2727V23.7527C74.83 23.7727 74.84 23.7827 74.84 23.8027L74.83 43.0127H38.66V36.4427C38.66 36.0327 38.32 35.6927 37.91 35.6927C37.5 35.6927 37.17 36.0227 37.16 36.4327V36.4427V43.5327L33.12 49.6627C33.11 49.6727 33.11 49.6927 33.1 49.7127C33.05 49.8027 33.02 49.8927 33.01 49.9927C33.01 50.0127 33 50.0327 33 50.0527C33 50.0627 33 50.0627 33 50.0727V54.0727C33 54.4827 33.34 54.8227 33.75 54.8227H79.75C80.16 54.8227 80.5 54.4827 80.5 54.0727V50.0727C80.5 50.0627 80.49 50.0627 80.49 50.0527ZM38.31 44.5127H75.18L78.35 49.3227H35.14L38.31 44.5127ZM79 53.3227H34.5V50.8227H79V53.3227Z" fill="#DD0000"/>
<path d="M43.98 36.7031V41.2631C43.98 41.6731 44.32 42.0131 44.73 42.0131H47.85C48.26 42.0131 48.6 41.6731 48.6 41.2631V36.7031C48.6 36.2931 48.26 35.9531 47.85 35.9531H44.73C44.32 35.9531 43.98 36.2931 43.98 36.7031ZM45.48 37.4531H47.1V40.5131H45.48V37.4531Z" fill="#DD0000"/>
<path d="M51.11 32.9824C50.7 32.9824 50.36 33.3224 50.36 33.7324V41.2624C50.36 41.6724 50.7 42.0124 51.11 42.0124H54.23C54.64 42.0124 54.98 41.6724 54.98 41.2624V33.7324C54.98 33.3224 54.64 32.9824 54.23 32.9824H51.11ZM53.48 40.5124H51.86V34.4824H53.48V40.5124Z" fill="#DD0000"/>
<path d="M57.49 29.043C57.08 29.043 56.74 29.383 56.74 29.793V41.263C56.74 41.673 57.08 42.013 57.49 42.013H60.61C61.02 42.013 61.36 41.673 61.36 41.263V29.793C61.36 29.383 61.02 29.043 60.61 29.043H57.49ZM59.86 40.513H58.24V30.543H59.86V40.513Z" fill="#DD0000"/>
<path d="M67.73 42.0123C68.14 42.0123 68.48 41.6723 68.48 41.2623V25.3223C68.48 24.9123 68.14 24.5723 67.73 24.5723H64.61C64.2 24.5723 63.86 24.9123 63.86 25.3223V41.2623C63.86 41.6723 64.2 42.0123 64.61 42.0123H67.73ZM65.36 26.0723H66.98V40.5123H65.36V26.0723Z" fill="#DD0000"/>
<path d="M46.74 32.7935C46.89 32.9935 47.12 33.1035 47.35 33.1035C47.5 33.1035 47.66 33.0535 47.79 32.9535L59.46 24.4135L59.27 25.6235C59.21 26.0335 59.49 26.4135 59.9 26.4835C59.94 26.4935 59.98 26.4935 60.02 26.4935C60.38 26.4935 60.7 26.2335 60.76 25.8535L61.22 22.8535C61.28 22.4435 61 22.0635 60.59 21.9935L57.59 21.5335C57.19 21.4735 56.8 21.7535 56.73 22.1635C56.67 22.5735 56.95 22.9535 57.36 23.0235L58.57 23.2135L46.9 31.7535C46.56 31.9935 46.49 32.4535 46.74 32.7935Z" fill="#DD0000"/>
<path d="M25.9994 17L25.6674 17.2812C25.6674 17.2812 21.6088 20.6628 21.6088 25.0586C21.6088 25.765 21.6747 26.6532 21.7689 27.5605L21.6459 27.6348L18.8763 29.3184V32.2793H23.2299H23.5541V34.1426H24.2103C24.1196 34.4694 24.0678 34.8214 24.0677 35.1953C24.0677 36.8274 25.7064 37.8906 25.7064 37.8906L25.9994 38.1055L26.3021 37.8906C26.3021 37.8906 27.9388 36.8274 27.9388 35.1953C27.9388 34.8214 27.8851 34.4694 27.7924 34.1426H28.4447V32.2344H29.1166V32.2422H29.6146H33.1244V29.3183L30.3549 27.6348L30.2318 27.5605C30.3261 26.6532 30.392 25.765 30.392 25.0586C30.392 20.6628 26.3314 17.2812 26.3314 17.2812L25.9994 17ZM25.9994 18.4023C26.5476 18.9093 29.3803 21.6171 29.3802 25.0586C29.3803 25.9953 29.2861 27.322 29.1088 28.5625C28.9483 29.6849 28.7012 30.6423 28.4603 31.2402H28.4447H23.5541H23.5482C23.3073 30.6423 23.0582 29.6849 22.8978 28.5625C22.7204 27.322 22.6185 25.9953 22.6185 25.0586C22.6185 21.6171 25.4512 18.9093 25.9994 18.4023ZM30.1107 28.6465L32.1205 29.875V31.248H29.6146H29.5697C29.7988 30.5341 29.9699 29.6468 30.1049 28.7031C30.1076 28.6842 30.108 28.6654 30.1107 28.6465ZM21.8881 28.6524C21.8905 28.6694 21.8915 28.6862 21.894 28.7032C22.0311 29.6621 22.2041 30.5656 22.4389 31.2852H19.8881V29.875L21.8881 28.6524ZM24.5658 32.2344H27.433V33.1563H24.5658V32.2344ZM25.2963 34.1426H26.7084C26.8337 34.4385 26.9291 34.7857 26.9291 35.1954C26.9291 35.8745 26.3398 36.313 25.9994 36.6289C25.6584 36.3121 25.0717 35.8733 25.0717 35.1954C25.0717 34.7857 25.169 34.4385 25.2963 34.1426Z" fill="#DD0000"/>
<path d="M25.4935 22.5273V23.0254V23.293H24.2416V26.0312H26.7552V26.7949H24.7474H24.2416V27.7891H24.7474H25.4935V28.0566V28.5547H26.5052V28.0566V27.7891H27.7592V25.0449H25.2533V24.2871H27.2533H27.7592V23.293H27.2533H26.5052V23.0254V22.5273H25.4935Z" fill="#DD0000"/>
<path d="M18.3406 33.5859V34.0832V36.0943V36.5915H19.3518V36.0943V34.0832V33.5859H18.3406Z" fill="#DD0000"/>
<path d="M20.8987 33.5859V34.0832V36.0943V36.5915H21.9024V36.0943V34.0832V33.5859H20.8987Z" fill="#DD0000"/>
<path d="M30.0977 33.5859V34.0832V36.0943V36.5915H31.1089V36.0943V34.0832V33.5859H30.0977Z" fill="#DD0000"/>
<path d="M32.6558 33.5859V34.0832V36.0943V36.5915H33.6595V36.0943V34.0832V33.5859H32.6558Z" fill="#DD0000"/>
</svg>
