<svg width="100" height="100" viewBox="0 0 100 100" fill="none" xmlns="http://www.w3.org/2000/svg">
<circle cx="50" cy="50" r="50" fill="#FFD8D8"/>
<path d="M46.2769 20.5765V18.6727C46.2744 18.4539 46.3153 18.2368 46.3973 18.034C46.4792 17.8312 46.6007 17.6466 46.7545 17.491C46.9083 17.3355 47.0914 17.212 47.2933 17.1277C47.4952 17.0434 47.7118 17 47.9305 17H54.0011C54.4397 17 54.8603 17.1742 55.1704 17.4843C55.4805 17.7945 55.6547 18.2151 55.6547 18.6536V20.5575" stroke="#DD0000" stroke-width="2.0436" stroke-miterlimit="10"/>
<path d="M61.0726 23.5737H68.0026C70.1053 23.5737 72.1218 24.409 73.6087 25.8958C75.0955 27.3827 75.9308 29.3992 75.9308 31.5019V74.8825C75.9329 76.9848 75.1001 79.0018 73.6154 80.49C72.1307 81.9783 70.1157 82.816 68.0135 82.8189H32.9282C30.8255 82.8189 28.8089 81.9836 27.3221 80.4968C25.8353 79.0099 25 76.9934 25 74.8907V31.5019C25 29.4011 25.8338 27.3862 27.3183 25.8997C28.8027 24.4132 30.8165 23.5766 32.9173 23.5737H39.7984" stroke="#DD0000" stroke-width="2.5" stroke-miterlimit="10"/>
<path d="M61.1079 26.9243H65.8893C66.364 26.9243 66.834 27.0178 67.2726 27.1995C67.7111 27.3811 68.1096 27.6474 68.4452 27.983C68.7809 28.3187 69.0471 28.7171 69.2288 29.1557C69.4104 29.5942 69.5039 30.0642 69.5039 30.5389V72.6739C69.5043 73.1486 69.4111 73.6187 69.2298 74.0573C69.0485 74.496 68.7825 74.8947 68.4472 75.2306C68.1118 75.5665 67.7135 75.833 67.2751 76.015C66.8367 76.197 66.3667 76.2908 65.892 76.2912H35.0388C34.5641 76.2908 34.0941 76.197 33.6557 76.015C33.2173 75.833 32.819 75.5665 32.4836 75.2306C32.1483 74.8947 31.8823 74.496 31.701 74.0573C31.5197 73.6187 31.4265 73.1486 31.4269 72.6739V30.5389C31.4269 29.5807 31.8073 28.6618 32.4846 27.984C33.1619 27.3062 34.0806 26.925 35.0388 26.9243H39.8229" stroke="#DD0000" stroke-width="2.0436" stroke-miterlimit="10"/>
<path d="M58.1325 21.1069H42.7956C41.1403 21.1069 39.7984 22.4488 39.7984 24.1041V26.571C39.7984 28.2263 41.1403 29.5682 42.7956 29.5682H58.1325C59.7878 29.5682 61.1297 28.2263 61.1297 26.571V24.1041C61.1297 22.4488 59.7878 21.1069 58.1325 21.1069Z" stroke="#DD0000" stroke-width="2.0436" stroke-miterlimit="10"/>
<path d="M35.3026 34.1973H48.6132" stroke="#DD0000" stroke-width="2.0436" stroke-miterlimit="10"/>
<path d="M35.3026 38.1626H41.5635" stroke="#DD0000" stroke-width="2.0436" stroke-miterlimit="10"/>
<path d="M31.4241 43.7603H69.5066" stroke="#DD0000" stroke-width="1.27725" stroke-miterlimit="10"/>
<path d="M63.0036 39.0441C64.9023 39.0441 66.4414 37.5049 66.4414 35.6063C66.4414 33.7076 64.9023 32.1685 63.0036 32.1685C61.105 32.1685 59.5658 33.7076 59.5658 35.6063C59.5658 37.5049 61.105 39.0441 63.0036 39.0441Z" stroke="#DD0000" stroke-width="1.27725" stroke-miterlimit="10"/>
<path d="M38.346 47.8833H35.8329V50.3964H38.346V47.8833Z" fill="#DD0000"/>
<path d="M38.346 53.0615H35.8329V55.5746H38.346V53.0615Z" fill="#DD0000"/>
<path d="M38.346 58.2402H35.8329V60.7533H38.346V58.2402Z" fill="#DD0000"/>
<path d="M42.1782 49.1372H60.0961" stroke="#DD0000" stroke-width="2.0436" stroke-miterlimit="10" stroke-linecap="round"/>
<path d="M42.1782 54.3179H60.0961" stroke="#DD0000" stroke-width="2.0436" stroke-miterlimit="10" stroke-linecap="round"/>
<path d="M42.1782 59.4966H60.0961" stroke="#DD0000" stroke-width="2.0436" stroke-miterlimit="10" stroke-linecap="round"/>
</svg>
