<svg width="100" height="100" viewBox="0 0 100 100" fill="none" xmlns="http://www.w3.org/2000/svg">
<circle cx="50" cy="50" r="50" fill="#FFD8D8"/>
<path d="M36.0606 42.8635V43.1732L30.1764 45.1309C29.7229 45.2858 29.4242 45.7061 29.4242 46.1817V48.3938H26.1061C25.4977 48.3938 25 48.8915 25 49.4999V82.6817C25 83.29 25.4977 83.7878 26.1061 83.7878H44.4556L46.347 85.6791C46.5571 85.8893 46.8336 85.9999 47.1323 85.9999H53.7686C54.0673 85.9999 54.3438 85.8782 54.5539 85.6791L56.4453 83.7878H74.7948C75.4032 83.7878 75.9009 83.29 75.9009 82.6817V49.4999C75.9009 48.8915 75.4032 48.3938 74.7948 48.3938H71.4767V46.1817C71.4767 45.7061 71.167 45.2858 70.7245 45.1309L64.8403 43.1732V42.8635C64.8403 42.2552 64.3426 41.7574 63.7342 41.7574C63.3139 41.7574 62.9047 41.7796 62.4955 41.8127C63.9886 39.5121 64.8403 36.8244 64.8403 34.015C64.8403 26.0846 58.392 19.6362 50.4615 19.6362C42.5311 19.6362 36.0827 26.0846 36.0827 34.015C36.0827 36.8244 36.9455 39.5232 38.4276 41.8127C38.0183 41.7796 37.598 41.7574 37.1888 41.7574C36.5805 41.7574 36.0827 42.2552 36.0827 42.8635H36.0606ZM31.6364 46.978L36.0606 45.507V71.6211C36.0606 72.2294 36.5583 72.7271 37.1667 72.7271C42.155 72.7271 46.4465 75.7467 48.3268 80.0493C42.5974 74.0544 34.7665 74.3309 31.6364 74.7402V46.978ZM47.5747 83.7878L45.6833 81.8964C45.4732 81.6862 45.1967 81.5756 44.898 81.5756H27.2121V50.6059H29.4242V76.0453C29.4242 76.3882 29.5791 76.709 29.8445 76.9191C30.11 77.1293 30.4639 77.2067 30.7958 77.1182C30.9174 77.085 42.1992 74.4415 48.4817 83.7878H47.5747ZM55.848 52.8181C55.3392 55.3399 53.105 57.2423 50.4283 57.2423C47.7517 57.2423 45.5285 55.3399 45.0086 52.8181H55.848ZM43.792 50.6059V48.3938H57.0647V50.6059H43.792ZM71.0232 76.9191C71.2886 76.709 71.4435 76.3882 71.4435 76.0453V50.6059H73.6556V81.5756H55.9586C55.66 81.5756 55.3835 81.6973 55.1733 81.8964L53.282 83.7878H52.375C58.6021 74.4637 69.5742 76.9965 70.0609 77.1182C70.3927 77.1956 70.7356 77.1182 71.0121 76.908L71.0232 76.9191ZM64.8071 71.6211V45.507L69.2314 46.978V74.7402C66.1012 74.3309 58.2703 74.0544 52.5409 80.0493C54.4212 75.7467 58.7127 72.7271 63.7011 72.7271C64.3094 72.7271 64.8071 72.2294 64.8071 71.6211ZM62.595 44.0138V70.5482C57.9385 70.9021 53.9014 73.4903 51.5344 77.2399V59.3549C55.0074 58.8571 57.7505 56.0367 58.1265 52.5194C58.8123 52.1434 59.2768 51.4244 59.2768 50.5949V48.3827C59.2768 47.5643 58.8233 46.8674 58.1708 46.4803V46.1043C58.9118 45.6287 59.5865 45.0646 60.228 44.4673C60.9912 44.235 61.7876 44.0691 62.595 44.0027V44.0138ZM38.2727 34.015C38.2727 27.3012 43.7256 21.8484 50.4394 21.8484C57.1532 21.8484 62.6061 27.3012 62.6061 34.015C62.6061 38.3287 60.2723 42.3658 56.5227 44.5447C56.1798 44.7438 55.9697 45.1088 55.9697 45.507V46.1927H44.9091V45.507C44.9091 45.1088 44.6989 44.7438 44.3561 44.5447C40.6065 42.3658 38.2727 38.3397 38.2727 34.015ZM38.2727 44.0138C39.0802 44.0912 39.8765 44.2461 40.6397 44.4784C41.2702 45.0756 41.9448 45.6287 42.697 46.1153V46.4914C42.0444 46.8785 41.5909 47.5753 41.5909 48.3938V50.6059C41.5909 51.4355 42.0555 52.1544 42.7412 52.5305C43.1173 56.0477 45.8492 58.8571 49.3333 59.3659V77.2509C46.9664 73.5014 42.9292 70.9132 38.2727 70.5593V44.0138Z" fill="#DD0000"/>
<path d="M42.0223 41.2931C43.6703 43.2619 45.9488 44.6003 48.4374 45.0648C48.8688 45.1422 49.3002 44.9653 49.5435 44.6113C49.9638 44.003 50.9039 44.003 51.3353 44.6113C51.5455 44.91 51.8883 45.0869 52.2423 45.0869C52.3086 45.0869 52.375 45.0869 52.4414 45.0648C54.93 44.6003 57.2085 43.2619 58.8565 41.2931C59.133 40.9724 59.1883 40.5189 59.0224 40.1318C58.8676 39.7889 58.8786 39.3907 59.0667 39.07C59.2436 38.7492 59.5644 38.5501 59.9183 38.5169C60.3497 38.4727 60.7147 38.1851 60.8585 37.7759C61.2898 36.5481 61.5 35.2872 61.5 34.0153C61.5 32.7433 61.2788 31.4824 60.8585 30.2546C60.7147 29.8454 60.3497 29.5578 59.9183 29.5136C59.5533 29.4804 59.2436 29.2703 59.0667 28.9606C58.8786 28.6398 58.8676 28.2416 59.0224 27.8987C59.1994 27.5116 59.133 27.0581 58.8565 26.7374C57.2085 24.7686 54.93 23.4303 52.4414 22.9657C52.01 22.8883 51.5786 23.0653 51.3353 23.4192C50.915 24.0275 49.9748 24.0275 49.5435 23.4192C49.2891 23.0653 48.8577 22.8883 48.4374 22.9657C45.9488 23.4303 43.6703 24.7686 42.0223 26.7374C41.7458 27.0581 41.6905 27.5116 41.8564 27.8987C42.0112 28.2416 42.0002 28.6398 41.8121 28.9606C41.6352 29.2813 41.3144 29.4804 40.9605 29.5136C40.5291 29.5578 40.1641 29.8454 40.0203 30.2546C39.5889 31.4824 39.3788 32.7433 39.3788 34.0153C39.3788 35.2872 39.6 36.5481 40.0203 37.7759C40.1641 38.1851 40.5291 38.4727 40.9605 38.5169C41.3255 38.5501 41.6352 38.7603 41.8121 39.07C42.0002 39.3907 42.0112 39.7889 41.8564 40.1318C41.6794 40.5189 41.7458 40.9724 42.0223 41.2931ZM41.9338 36.4707C41.7015 35.6633 41.5909 34.8337 41.5909 34.0153C41.5909 33.1968 41.7015 32.3672 41.9338 31.5598C42.6859 31.2943 43.3385 30.7745 43.7367 30.0556C44.1348 29.3477 44.2676 28.5071 44.1017 27.7218C45.2409 26.5383 46.6788 25.6866 48.2494 25.2774C49.455 26.3503 51.4238 26.3503 52.6294 25.2774C54.2 25.6866 55.6379 26.5383 56.7771 27.7218C56.6223 28.5181 56.7439 29.3477 57.1421 30.0556C57.5514 30.7634 58.1929 31.2943 58.945 31.5598C59.1773 32.3672 59.2879 33.1968 59.2879 34.0153C59.2879 34.8337 59.1773 35.6633 58.945 36.4707C58.1929 36.7362 57.5403 37.256 57.1421 37.975C56.7439 38.6828 56.6112 39.5234 56.7771 40.3087C55.6379 41.4922 54.2 42.3439 52.6294 42.7531C52.0321 42.2222 51.2468 41.9125 50.4394 41.9125C49.632 41.9125 48.8467 42.2222 48.2494 42.7531C46.6788 42.3439 45.2409 41.4922 44.1017 40.3087C44.2565 39.5124 44.1348 38.6828 43.7367 37.975C43.3385 37.2671 42.6859 36.7362 41.9338 36.4707Z" fill="#DD0000"/>
<path d="M50.4394 40.6516C54.1005 40.6516 57.0758 37.6763 57.0758 34.0153C57.0758 30.3542 54.1005 27.3789 50.4394 27.3789C46.7783 27.3789 43.803 30.3542 43.803 34.0153C43.803 37.6763 46.7783 40.6516 50.4394 40.6516ZM50.4394 29.591C52.8838 29.591 54.8636 31.5709 54.8636 34.0153C54.8636 36.4597 52.8838 38.4395 50.4394 38.4395C47.995 38.4395 46.0152 36.4597 46.0152 34.0153C46.0152 31.5709 47.995 29.591 50.4394 29.591Z" fill="#DD0000"/>
<rect width="4.53592" height="1.10606" rx="0.55303" transform="matrix(-0.604034 0.796959 0.796959 0.604034 62.1764 16.5454)" fill="#DD0000"/>
<rect width="4.51269" height="1.10606" rx="0.55303" transform="matrix(-0.836016 0.548706 0.548706 0.836016 68.3355 22.9546)" fill="#DD0000"/>
<rect x="32.2433" y="22.9546" width="4.58148" height="1.10606" rx="0.55303" transform="rotate(33.2783 32.2433 22.9546)" fill="#DD0000"/>
<rect x="39.1543" y="16.3184" width="4.56779" height="1.10606" rx="0.55303" transform="rotate(52.8407 39.1543 16.3184)" fill="#DD0000"/>
<rect x="51" y="13" width="5" height="1" rx="0.5" transform="rotate(90 51 13)" fill="#DD0000"/>
</svg>
