<svg width="50" height="50" viewBox="0 0 50 50" fill="none" xmlns="http://www.w3.org/2000/svg">
<circle cx="25" cy="25" r="25" fill="#FFCECE" fill-opacity="0.6"/>
<path d="M38 24.4964C38.0005 26.9693 37.2677 29.3867 35.8942 31.443C34.5207 33.4992 32.5683 35.1019 30.2839 36.0483C27.9995 36.9946 25.4858 37.2422 23.0607 36.7597C20.6356 36.2771 18.4081 35.0861 16.66 33.3373C15.4957 32.1789 14.5727 30.801 13.9445 29.2835C13.3162 27.766 12.9952 26.1389 13.0001 24.4964H14.6847C14.6847 30.4603 19.5366 35.3127 25.5 35.3127C31.4634 35.3127 36.3153 30.4603 36.3153 24.4964C36.3153 18.5325 31.4634 13.6802 25.5 13.6802C24.0302 13.6802 22.5758 13.9802 21.226 14.5619C19.8761 15.1437 18.6592 15.9949 17.6498 17.0634H20.9392V18.7482H15.0271V12.84H16.7123V15.6162C18.4648 13.881 20.6915 12.7032 23.112 12.2311C25.5325 11.759 28.0385 12.0137 30.3146 12.9632C32.5906 13.9126 34.5348 15.5144 35.9024 17.5667C37.27 19.619 37.9999 22.0301 38 24.4964ZM25.1622 17.908V25.8479H32.0879V24.1586H26.8514V17.908H25.1622Z" fill="#DD0000"/>
</svg>
