<svg width="738" height="224" viewBox="0 0 738 224" fill="none" xmlns="http://www.w3.org/2000/svg">
<path d="M22.82 165.19C22.24 165.19 21.7433 165.097 21.33 164.91C20.9167 164.717 20.58 164.457 20.32 164.13C20.0667 163.803 19.8767 163.427 19.75 163C19.63 162.567 19.57 162.11 19.57 161.63V161.06C19.57 160.393 19.6867 159.79 19.92 159.25C20.1533 158.71 20.51 158.28 20.99 157.96C21.47 157.64 22.08 157.48 22.82 157.48C23.56 157.48 24.1667 157.64 24.64 157.96C25.12 158.28 25.4767 158.71 25.71 159.25C25.9433 159.79 26.06 160.393 26.06 161.06V161.63C26.06 162.11 25.9967 162.567 25.87 163C25.75 163.427 25.56 163.803 25.3 164.13C25.0467 164.457 24.7133 164.717 24.3 164.91C23.8933 165.097 23.4 165.19 22.82 165.19ZM22.82 163.68C23.36 163.68 23.76 163.493 24.02 163.12C24.2867 162.74 24.42 162.153 24.42 161.36C24.42 160.52 24.2833 159.917 24.01 159.55C23.7433 159.177 23.3467 158.99 22.82 158.99C22.28 158.99 21.8767 159.177 21.61 159.55C21.3433 159.917 21.21 160.513 21.21 161.34C21.21 162.14 21.34 162.73 21.6 163.11C21.8667 163.49 22.2733 163.68 22.82 163.68ZM30.447 165.19C29.867 165.19 29.3703 165.097 28.957 164.91C28.5436 164.717 28.207 164.457 27.947 164.13C27.6936 163.803 27.5036 163.427 27.377 163C27.257 162.567 27.197 162.11 27.197 161.63V161.06C27.197 160.393 27.3136 159.79 27.547 159.25C27.7803 158.71 28.137 158.28 28.617 157.96C29.097 157.64 29.707 157.48 30.447 157.48C31.187 157.48 31.7936 157.64 32.267 157.96C32.747 158.28 33.1036 158.71 33.337 159.25C33.5703 159.79 33.687 160.393 33.687 161.06V161.63C33.687 162.11 33.6236 162.567 33.497 163C33.377 163.427 33.187 163.803 32.927 164.13C32.6736 164.457 32.3403 164.717 31.927 164.91C31.5203 165.097 31.027 165.19 30.447 165.19ZM30.447 163.68C30.987 163.68 31.387 163.493 31.647 163.12C31.9136 162.74 32.047 162.153 32.047 161.36C32.047 160.52 31.9103 159.917 31.637 159.55C31.3703 159.177 30.9736 158.99 30.447 158.99C29.907 158.99 29.5036 159.177 29.237 159.55C28.9703 159.917 28.837 160.513 28.837 161.34C28.837 162.14 28.967 162.73 29.227 163.11C29.4936 163.49 29.9003 163.68 30.447 163.68ZM38.0739 165.19C37.4939 165.19 36.9972 165.097 36.5839 164.91C36.1706 164.717 35.8339 164.457 35.5739 164.13C35.3206 163.803 35.1306 163.427 35.0039 163C34.8839 162.567 34.8239 162.11 34.8239 161.63V161.06C34.8239 160.393 34.9406 159.79 35.1739 159.25C35.4072 158.71 35.7639 158.28 36.2439 157.96C36.7239 157.64 37.3339 157.48 38.0739 157.48C38.8139 157.48 39.4206 157.64 39.8939 157.96C40.3739 158.28 40.7306 158.71 40.9639 159.25C41.1972 159.79 41.3139 160.393 41.3139 161.06V161.63C41.3139 162.11 41.2506 162.567 41.1239 163C41.0039 163.427 40.8139 163.803 40.5539 164.13C40.3006 164.457 39.9672 164.717 39.5539 164.91C39.1472 165.097 38.6539 165.19 38.0739 165.19ZM38.0739 163.68C38.6139 163.68 39.0139 163.493 39.2739 163.12C39.5406 162.74 39.6739 162.153 39.6739 161.36C39.6739 160.52 39.5372 159.917 39.2639 159.55C38.9972 159.177 38.6006 158.99 38.0739 158.99C37.5339 158.99 37.1306 159.177 36.8639 159.55C36.5972 159.917 36.4639 160.513 36.4639 161.34C36.4639 162.14 36.5939 162.73 36.8539 163.11C37.1206 163.49 37.5272 163.68 38.0739 163.68ZM45.7009 165.19C45.1209 165.19 44.6242 165.097 44.2109 164.91C43.7975 164.717 43.4609 164.457 43.2009 164.13C42.9475 163.803 42.7575 163.427 42.6309 163C42.5109 162.567 42.4509 162.11 42.4509 161.63V161.06C42.4509 160.393 42.5675 159.79 42.8009 159.25C43.0342 158.71 43.3909 158.28 43.8709 157.96C44.3509 157.64 44.9609 157.48 45.7009 157.48C46.4409 157.48 47.0475 157.64 47.5209 157.96C48.0009 158.28 48.3575 158.71 48.5909 159.25C48.8242 159.79 48.9409 160.393 48.9409 161.06V161.63C48.9409 162.11 48.8775 162.567 48.7509 163C48.6309 163.427 48.4409 163.803 48.1809 164.13C47.9275 164.457 47.5942 164.717 47.1809 164.91C46.7742 165.097 46.2809 165.19 45.7009 165.19ZM45.7009 163.68C46.2409 163.68 46.6409 163.493 46.9009 163.12C47.1675 162.74 47.3009 162.153 47.3009 161.36C47.3009 160.52 47.1642 159.917 46.8909 159.55C46.6242 159.177 46.2275 158.99 45.7009 158.99C45.1609 158.99 44.7575 159.177 44.4909 159.55C44.2242 159.917 44.0909 160.513 44.0909 161.34C44.0909 162.14 44.2209 162.73 44.4809 163.11C44.7475 163.49 45.1542 163.68 45.7009 163.68Z" fill="#DD0000"/>
<path d="M116.82 76.19C116.24 76.19 115.743 76.0967 115.33 75.91C114.917 75.7167 114.58 75.4567 114.32 75.13C114.067 74.8033 113.877 74.4267 113.75 74C113.63 73.5667 113.57 73.11 113.57 72.63V72.06C113.57 71.3933 113.687 70.79 113.92 70.25C114.153 69.71 114.51 69.28 114.99 68.96C115.47 68.64 116.08 68.48 116.82 68.48C117.56 68.48 118.167 68.64 118.64 68.96C119.12 69.28 119.477 69.71 119.71 70.25C119.943 70.79 120.06 71.3933 120.06 72.06V72.63C120.06 73.11 119.997 73.5667 119.87 74C119.75 74.4267 119.56 74.8033 119.3 75.13C119.047 75.4567 118.713 75.7167 118.3 75.91C117.893 76.0967 117.4 76.19 116.82 76.19ZM116.82 74.68C117.36 74.68 117.76 74.4933 118.02 74.12C118.287 73.74 118.42 73.1533 118.42 72.36C118.42 71.52 118.283 70.9167 118.01 70.55C117.743 70.1767 117.347 69.99 116.82 69.99C116.28 69.99 115.877 70.1767 115.61 70.55C115.343 70.9167 115.21 71.5133 115.21 72.34C115.21 73.14 115.34 73.73 115.6 74.11C115.867 74.49 116.273 74.68 116.82 74.68ZM124.447 76.19C123.867 76.19 123.37 76.0967 122.957 75.91C122.544 75.7167 122.207 75.4567 121.947 75.13C121.694 74.8033 121.504 74.4267 121.377 74C121.257 73.5667 121.197 73.11 121.197 72.63V72.06C121.197 71.3933 121.314 70.79 121.547 70.25C121.78 69.71 122.137 69.28 122.617 68.96C123.097 68.64 123.707 68.48 124.447 68.48C125.187 68.48 125.794 68.64 126.267 68.96C126.747 69.28 127.104 69.71 127.337 70.25C127.57 70.79 127.687 71.3933 127.687 72.06V72.63C127.687 73.11 127.624 73.5667 127.497 74C127.377 74.4267 127.187 74.8033 126.927 75.13C126.674 75.4567 126.34 75.7167 125.927 75.91C125.52 76.0967 125.027 76.19 124.447 76.19ZM124.447 74.68C124.987 74.68 125.387 74.4933 125.647 74.12C125.914 73.74 126.047 73.1533 126.047 72.36C126.047 71.52 125.91 70.9167 125.637 70.55C125.37 70.1767 124.974 69.99 124.447 69.99C123.907 69.99 123.504 70.1767 123.237 70.55C122.97 70.9167 122.837 71.5133 122.837 72.34C122.837 73.14 122.967 73.73 123.227 74.11C123.494 74.49 123.9 74.68 124.447 74.68ZM130.014 76V69.78L130.454 70.12H128.584V68.7H131.644V76H130.014ZM134.291 76V69.78L134.731 70.12H132.861V68.7H135.921V76H134.291Z" fill="#DD0000"/>
<path d="M144.76 167V160.78L145.2 161.12H143.33V159.7H146.39V167H144.76ZM149.037 167V160.78L149.477 161.12H147.607V159.7H150.667V167H149.037ZM153.315 167V160.78L153.755 161.12H151.885V159.7H154.945V167H153.315ZM157.592 167V160.78L158.032 161.12H156.162V159.7H159.222V167H157.592Z" fill="#DD0000"/>
<path d="M198.76 62V55.78L199.2 56.12H197.33V54.7H200.39V62H198.76ZM203.037 62V55.78L203.477 56.12H201.607V54.7H204.667V62H203.037ZM207.315 62V55.78L207.755 56.12H205.885V54.7H208.945V62H207.315ZM211.592 62V55.78L212.032 56.12H210.162V54.7H213.222V62H211.592Z" fill="#DD0000"/>
<path d="M29.76 65V58.78L30.2 59.12H28.33V57.7H31.39V65H29.76ZM34.0373 65V58.78L34.4773 59.12H32.6073V57.7H35.6673V65H34.0373ZM38.3147 65V58.78L38.7547 59.12H36.8847V57.7H39.9447V65H38.3147ZM42.592 65V58.78L43.032 59.12H41.162V57.7H44.222V65H42.592ZM48.9294 65.19C48.3494 65.19 47.8527 65.0967 47.4394 64.91C47.026 64.7167 46.6894 64.4567 46.4294 64.13C46.176 63.8033 45.986 63.4267 45.8594 63C45.7394 62.5667 45.6794 62.11 45.6794 61.63V61.06C45.6794 60.3933 45.796 59.79 46.0294 59.25C46.2627 58.71 46.6194 58.28 47.0994 57.96C47.5794 57.64 48.1894 57.48 48.9294 57.48C49.6694 57.48 50.276 57.64 50.7494 57.96C51.2294 58.28 51.586 58.71 51.8194 59.25C52.0527 59.79 52.1694 60.3933 52.1694 61.06V61.63C52.1694 62.11 52.106 62.5667 51.9794 63C51.8594 63.4267 51.6694 63.8033 51.4094 64.13C51.156 64.4567 50.8227 64.7167 50.4094 64.91C50.0027 65.0967 49.5094 65.19 48.9294 65.19ZM48.9294 63.68C49.4694 63.68 49.8694 63.4933 50.1294 63.12C50.396 62.74 50.5294 62.1533 50.5294 61.36C50.5294 60.52 50.3927 59.9167 50.1194 59.55C49.8527 59.1767 49.456 58.99 48.9294 58.99C48.3894 58.99 47.986 59.1767 47.7194 59.55C47.4527 59.9167 47.3194 60.5133 47.3194 61.34C47.3194 62.14 47.4494 62.73 47.7094 63.11C47.976 63.49 48.3827 63.68 48.9294 63.68ZM56.5563 65.19C55.9763 65.19 55.4797 65.0967 55.0663 64.91C54.653 64.7167 54.3163 64.4567 54.0563 64.13C53.803 63.8033 53.613 63.4267 53.4863 63C53.3663 62.5667 53.3063 62.11 53.3063 61.63V61.06C53.3063 60.3933 53.423 59.79 53.6563 59.25C53.8897 58.71 54.2463 58.28 54.7263 57.96C55.2063 57.64 55.8163 57.48 56.5563 57.48C57.2963 57.48 57.903 57.64 58.3763 57.96C58.8563 58.28 59.213 58.71 59.4463 59.25C59.6797 59.79 59.7963 60.3933 59.7963 61.06V61.63C59.7963 62.11 59.733 62.5667 59.6063 63C59.4863 63.4267 59.2963 63.8033 59.0363 64.13C58.783 64.4567 58.4497 64.7167 58.0363 64.91C57.6297 65.0967 57.1363 65.19 56.5563 65.19ZM56.5563 63.68C57.0963 63.68 57.4963 63.4933 57.7563 63.12C58.023 62.74 58.1563 62.1533 58.1563 61.36C58.1563 60.52 58.0197 59.9167 57.7463 59.55C57.4797 59.1767 57.083 58.99 56.5563 58.99C56.0163 58.99 55.613 59.1767 55.3463 59.55C55.0797 59.9167 54.9463 60.5133 54.9463 61.34C54.9463 62.14 55.0763 62.73 55.3363 63.11C55.603 63.49 56.0097 63.68 56.5563 63.68Z" fill="#DD0000"/>
<path d="M80.82 161.19C80.24 161.19 79.7433 161.097 79.33 160.91C78.9167 160.717 78.58 160.457 78.32 160.13C78.0667 159.803 77.8767 159.427 77.75 159C77.63 158.567 77.57 158.11 77.57 157.63V157.06C77.57 156.393 77.6867 155.79 77.92 155.25C78.1533 154.71 78.51 154.28 78.99 153.96C79.47 153.64 80.08 153.48 80.82 153.48C81.56 153.48 82.1667 153.64 82.64 153.96C83.12 154.28 83.4767 154.71 83.71 155.25C83.9433 155.79 84.06 156.393 84.06 157.06V157.63C84.06 158.11 83.9967 158.567 83.87 159C83.75 159.427 83.56 159.803 83.3 160.13C83.0467 160.457 82.7133 160.717 82.3 160.91C81.8933 161.097 81.4 161.19 80.82 161.19ZM80.82 159.68C81.36 159.68 81.76 159.493 82.02 159.12C82.2867 158.74 82.42 158.153 82.42 157.36C82.42 156.52 82.2833 155.917 82.01 155.55C81.7433 155.177 81.3467 154.99 80.82 154.99C80.28 154.99 79.8767 155.177 79.61 155.55C79.3433 155.917 79.21 156.513 79.21 157.34C79.21 158.14 79.34 158.73 79.6 159.11C79.8667 159.49 80.2733 159.68 80.82 159.68ZM86.387 161V154.78L86.827 155.12H84.957V153.7H88.017V161H86.387ZM92.7243 161.19C92.1443 161.19 91.6476 161.097 91.2343 160.91C90.821 160.717 90.4843 160.457 90.2243 160.13C89.971 159.803 89.781 159.427 89.6543 159C89.5343 158.567 89.4743 158.11 89.4743 157.63V157.06C89.4743 156.393 89.591 155.79 89.8243 155.25C90.0576 154.71 90.4143 154.28 90.8943 153.96C91.3743 153.64 91.9843 153.48 92.7243 153.48C93.4643 153.48 94.071 153.64 94.5443 153.96C95.0243 154.28 95.381 154.71 95.6143 155.25C95.8476 155.79 95.9643 156.393 95.9643 157.06V157.63C95.9643 158.11 95.901 158.567 95.7743 159C95.6543 159.427 95.4643 159.803 95.2043 160.13C94.951 160.457 94.6176 160.717 94.2043 160.91C93.7976 161.097 93.3043 161.19 92.7243 161.19ZM92.7243 159.68C93.2643 159.68 93.6643 159.493 93.9243 159.12C94.191 158.74 94.3243 158.153 94.3243 157.36C94.3243 156.52 94.1876 155.917 93.9143 155.55C93.6476 155.177 93.251 154.99 92.7243 154.99C92.1843 154.99 91.781 155.177 91.5143 155.55C91.2476 155.917 91.1143 156.513 91.1143 157.34C91.1143 158.14 91.2443 158.73 91.5043 159.11C91.771 159.49 92.1776 159.68 92.7243 159.68ZM98.2913 161V154.78L98.7313 155.12H96.8612V153.7H99.9213V161H98.2913ZM104.629 161.19C104.049 161.19 103.552 161.097 103.139 160.91C102.725 160.717 102.389 160.457 102.129 160.13C101.875 159.803 101.685 159.427 101.559 159C101.439 158.567 101.379 158.11 101.379 157.63V157.06C101.379 156.393 101.495 155.79 101.729 155.25C101.962 154.71 102.319 154.28 102.799 153.96C103.279 153.64 103.889 153.48 104.629 153.48C105.369 153.48 105.975 153.64 106.449 153.96C106.929 154.28 107.285 154.71 107.519 155.25C107.752 155.79 107.869 156.393 107.869 157.06V157.63C107.869 158.11 107.805 158.567 107.679 159C107.559 159.427 107.369 159.803 107.109 160.13C106.855 160.457 106.522 160.717 106.109 160.91C105.702 161.097 105.209 161.19 104.629 161.19ZM104.629 159.68C105.169 159.68 105.569 159.493 105.829 159.12C106.095 158.74 106.229 158.153 106.229 157.36C106.229 156.52 106.092 155.917 105.819 155.55C105.552 155.177 105.155 154.99 104.629 154.99C104.089 154.99 103.685 155.177 103.419 155.55C103.152 155.917 103.019 156.513 103.019 157.34C103.019 158.14 103.149 158.73 103.409 159.11C103.675 159.49 104.082 159.68 104.629 159.68ZM110.196 161V154.78L110.636 155.12H108.766V153.7H111.826V161H110.196Z" fill="#DD0000"/>
<path d="M192.82 161.19C192.24 161.19 191.743 161.097 191.33 160.91C190.917 160.717 190.58 160.457 190.32 160.13C190.067 159.803 189.877 159.427 189.75 159C189.63 158.567 189.57 158.11 189.57 157.63V157.06C189.57 156.393 189.687 155.79 189.92 155.25C190.153 154.71 190.51 154.28 190.99 153.96C191.47 153.64 192.08 153.48 192.82 153.48C193.56 153.48 194.167 153.64 194.64 153.96C195.12 154.28 195.477 154.71 195.71 155.25C195.943 155.79 196.06 156.393 196.06 157.06V157.63C196.06 158.11 195.997 158.567 195.87 159C195.75 159.427 195.56 159.803 195.3 160.13C195.047 160.457 194.713 160.717 194.3 160.91C193.893 161.097 193.4 161.19 192.82 161.19ZM192.82 159.68C193.36 159.68 193.76 159.493 194.02 159.12C194.287 158.74 194.42 158.153 194.42 157.36C194.42 156.52 194.283 155.917 194.01 155.55C193.743 155.177 193.347 154.99 192.82 154.99C192.28 154.99 191.877 155.177 191.61 155.55C191.343 155.917 191.21 156.513 191.21 157.34C191.21 158.14 191.34 158.73 191.6 159.11C191.867 159.49 192.273 159.68 192.82 159.68ZM198.387 161V154.78L198.827 155.12H196.957V153.7H200.017V161H198.387ZM204.724 161.19C204.144 161.19 203.648 161.097 203.234 160.91C202.821 160.717 202.484 160.457 202.224 160.13C201.971 159.803 201.781 159.427 201.654 159C201.534 158.567 201.474 158.11 201.474 157.63V157.06C201.474 156.393 201.591 155.79 201.824 155.25C202.058 154.71 202.414 154.28 202.894 153.96C203.374 153.64 203.984 153.48 204.724 153.48C205.464 153.48 206.071 153.64 206.544 153.96C207.024 154.28 207.381 154.71 207.614 155.25C207.848 155.79 207.964 156.393 207.964 157.06V157.63C207.964 158.11 207.901 158.567 207.774 159C207.654 159.427 207.464 159.803 207.204 160.13C206.951 160.457 206.618 160.717 206.204 160.91C205.798 161.097 205.304 161.19 204.724 161.19ZM204.724 159.68C205.264 159.68 205.664 159.493 205.924 159.12C206.191 158.74 206.324 158.153 206.324 157.36C206.324 156.52 206.188 155.917 205.914 155.55C205.648 155.177 205.251 154.99 204.724 154.99C204.184 154.99 203.781 155.177 203.514 155.55C203.248 155.917 203.114 156.513 203.114 157.34C203.114 158.14 203.244 158.73 203.504 159.11C203.771 159.49 204.178 159.68 204.724 159.68ZM210.291 161V154.78L210.731 155.12H208.861V153.7H211.921V161H210.291ZM216.629 161.19C216.049 161.19 215.552 161.097 215.139 160.91C214.725 160.717 214.389 160.457 214.129 160.13C213.875 159.803 213.685 159.427 213.559 159C213.439 158.567 213.379 158.11 213.379 157.63V157.06C213.379 156.393 213.495 155.79 213.729 155.25C213.962 154.71 214.319 154.28 214.799 153.96C215.279 153.64 215.889 153.48 216.629 153.48C217.369 153.48 217.975 153.64 218.449 153.96C218.929 154.28 219.285 154.71 219.519 155.25C219.752 155.79 219.869 156.393 219.869 157.06V157.63C219.869 158.11 219.805 158.567 219.679 159C219.559 159.427 219.369 159.803 219.109 160.13C218.855 160.457 218.522 160.717 218.109 160.91C217.702 161.097 217.209 161.19 216.629 161.19ZM216.629 159.68C217.169 159.68 217.569 159.493 217.829 159.12C218.095 158.74 218.229 158.153 218.229 157.36C218.229 156.52 218.092 155.917 217.819 155.55C217.552 155.177 217.155 154.99 216.629 154.99C216.089 154.99 215.685 155.177 215.419 155.55C215.152 155.917 215.019 156.513 215.019 157.34C215.019 158.14 215.149 158.73 215.409 159.11C215.675 159.49 216.082 159.68 216.629 159.68ZM222.196 161V154.78L222.636 155.12H220.766V153.7H223.826V161H222.196Z" fill="#DD0000"/>
<path d="M203.76 92V85.78L204.2 86.12H202.33V84.7H205.39V92H203.76ZM208.037 92V85.78L208.477 86.12H206.607V84.7H209.667V92H208.037ZM214.375 92.19C213.795 92.19 213.298 92.0967 212.885 91.91C212.471 91.7167 212.135 91.4567 211.875 91.13C211.621 90.8033 211.431 90.4267 211.305 90C211.185 89.5667 211.125 89.11 211.125 88.63V88.06C211.125 87.3933 211.241 86.79 211.475 86.25C211.708 85.71 212.065 85.28 212.545 84.96C213.025 84.64 213.635 84.48 214.375 84.48C215.115 84.48 215.721 84.64 216.195 84.96C216.675 85.28 217.031 85.71 217.265 86.25C217.498 86.79 217.615 87.3933 217.615 88.06V88.63C217.615 89.11 217.551 89.5667 217.425 90C217.305 90.4267 217.115 90.8033 216.855 91.13C216.601 91.4567 216.268 91.7167 215.855 91.91C215.448 92.0967 214.955 92.19 214.375 92.19ZM214.375 90.68C214.915 90.68 215.315 90.4933 215.575 90.12C215.841 89.74 215.975 89.1533 215.975 88.36C215.975 87.52 215.838 86.9167 215.565 86.55C215.298 86.1767 214.901 85.99 214.375 85.99C213.835 85.99 213.431 86.1767 213.165 86.55C212.898 86.9167 212.765 87.5133 212.765 88.34C212.765 89.14 212.895 89.73 213.155 90.11C213.421 90.49 213.828 90.68 214.375 90.68ZM222.002 92.19C221.422 92.19 220.925 92.0967 220.512 91.91C220.098 91.7167 219.762 91.4567 219.502 91.13C219.248 90.8033 219.058 90.4267 218.932 90C218.812 89.5667 218.752 89.11 218.752 88.63V88.06C218.752 87.3933 218.868 86.79 219.102 86.25C219.335 85.71 219.692 85.28 220.172 84.96C220.652 84.64 221.262 84.48 222.002 84.48C222.742 84.48 223.348 84.64 223.822 84.96C224.302 85.28 224.658 85.71 224.892 86.25C225.125 86.79 225.242 87.3933 225.242 88.06V88.63C225.242 89.11 225.178 89.5667 225.052 90C224.932 90.4267 224.742 90.8033 224.482 91.13C224.228 91.4567 223.895 91.7167 223.482 91.91C223.075 92.0967 222.582 92.19 222.002 92.19ZM222.002 90.68C222.542 90.68 222.942 90.4933 223.202 90.12C223.468 89.74 223.602 89.1533 223.602 88.36C223.602 87.52 223.465 86.9167 223.192 86.55C222.925 86.1767 222.528 85.99 222.002 85.99C221.462 85.99 221.058 86.1767 220.792 86.55C220.525 86.9167 220.392 87.5133 220.392 88.34C220.392 89.14 220.522 89.73 220.782 90.11C221.048 90.49 221.455 90.68 222.002 90.68Z" fill="#DD0000"/>
<rect y="37" width="10" height="135" fill="#DD0000"/>
<rect x="245" y="49" width="2" height="245" transform="rotate(90 245 49)" fill="#DD0000"/>
<rect x="245" y="170" width="2" height="245" transform="rotate(90 245 170)" fill="#DD0000"/>
<rect x="235" y="49" width="10" height="135" fill="#DD0000"/>
<rect x="10.5" y="0.5" width="60" height="37" rx="1.5" fill="#FF9696" stroke="#DD0000"/>
<circle cx="41" cy="10" r="6" fill="white"/>
<rect x="33" y="18" width="16" height="3" rx="1.5" fill="url(#paint0_linear_2540_3117)"/>
<rect x="24" y="23" width="33" height="1" rx="0.5" fill="white"/>
<rect x="24" y="25" width="33" height="2" rx="1" fill="white"/>
<rect x="50" y="29" width="7" height="4" rx="1" fill="url(#paint1_linear_2540_3117)"/>
<rect x="41" y="29" width="7" height="4" rx="1" fill="url(#paint2_linear_2540_3117)"/>
<rect x="24" y="30" width="12" height="2" rx="1" fill="white"/>
<rect x="170.5" y="13.5" width="44" height="31" rx="1.5" fill="#FF9696" stroke="#DD0000"/>
<rect x="202" y="35" width="12" height="2" rx="1" fill="white"/>
<rect x="210" y="38" width="4" height="2" rx="1" fill="white"/>
<rect x="202" y="38" width="7" height="2" rx="1" fill="white"/>
<rect x="202" y="41" width="12" height="2" rx="1" fill="white"/>
<path d="M186 26.875C185.382 26.875 184.778 27.0583 184.264 27.4017C183.75 27.745 183.349 28.2331 183.113 28.8041C182.876 29.3751 182.814 30.0035 182.935 30.6097C183.056 31.2158 183.353 31.7727 183.79 32.2097C184.227 32.6467 184.784 32.9444 185.39 33.065C185.997 33.1855 186.625 33.1236 187.196 32.8871C187.767 32.6506 188.255 32.2501 188.598 31.7362C188.942 31.2223 189.125 30.6181 189.125 30C189.125 29.1712 188.796 28.3763 188.21 27.7903C187.624 27.2042 186.829 26.875 186 26.875ZM186 32.375C185.53 32.375 185.071 32.2357 184.681 31.9747C184.29 31.7138 183.986 31.3428 183.806 30.9089C183.626 30.4749 183.579 29.9974 183.671 29.5367C183.762 29.076 183.988 28.6528 184.321 28.3206C184.653 27.9885 185.076 27.7623 185.537 27.6706C185.997 27.579 186.475 27.626 186.909 27.8058C187.343 27.9855 187.714 28.29 187.975 28.6805C188.236 29.0711 188.375 29.5303 188.375 30C188.375 30.6299 188.125 31.234 187.679 31.6794C187.234 32.1248 186.63 32.375 186 32.375Z" fill="white"/>
<path d="M193.125 28H192.009C191.983 27.9998 191.957 27.9915 191.936 27.9763C191.915 27.961 191.9 27.9396 191.891 27.915C191.819 27.7087 191.735 27.5063 191.641 27.3088C191.63 27.2854 191.625 27.259 191.629 27.2333C191.633 27.2075 191.645 27.1836 191.664 27.165L192.453 26.375C192.534 26.2937 192.598 26.1973 192.642 26.0911C192.686 25.985 192.709 25.8712 192.709 25.7562C192.709 25.6413 192.686 25.5275 192.642 25.4214C192.598 25.3152 192.534 25.2188 192.453 25.1375L190.861 23.5475C190.78 23.4662 190.684 23.4018 190.577 23.3578C190.471 23.3138 190.357 23.2912 190.243 23.2912C190.128 23.2912 190.014 23.3138 189.908 23.3578C189.801 23.4018 189.705 23.4662 189.624 23.5475L188.835 24.3363C188.816 24.3545 188.793 24.3665 188.767 24.3706C188.741 24.3746 188.715 24.3705 188.691 24.3588C188.494 24.2648 188.291 24.1814 188.085 24.1088C188.06 24.1004 188.039 24.0846 188.024 24.0636C188.008 24.0425 188 24.0172 188 23.9913V22.875C188 22.6429 187.908 22.4204 187.744 22.2563C187.58 22.0922 187.357 22 187.125 22H184.875C184.643 22 184.42 22.0922 184.256 22.2563C184.092 22.4204 184 22.6429 184 22.875V23.9913C184 24.0172 183.992 24.0425 183.976 24.0636C183.961 24.0846 183.94 24.1004 183.915 24.1088C183.709 24.1814 183.506 24.2648 183.309 24.3588C183.285 24.3705 183.259 24.3746 183.233 24.3706C183.207 24.3665 183.184 24.3545 183.165 24.3363L182.375 23.5475C182.294 23.4662 182.197 23.4018 182.091 23.3578C181.985 23.3138 181.871 23.2912 181.756 23.2912C181.641 23.2912 181.528 23.3138 181.421 23.3578C181.315 23.4018 181.219 23.4662 181.138 23.5475L179.548 25.1388C179.466 25.22 179.402 25.3165 179.358 25.4226C179.314 25.5288 179.291 25.6426 179.291 25.7575C179.291 25.8724 179.314 25.9862 179.358 26.0924C179.402 26.1985 179.466 26.295 179.548 26.3762L180.336 27.165C180.355 27.1836 180.367 27.2075 180.371 27.2333C180.375 27.259 180.37 27.2854 180.359 27.3088C180.265 27.5063 180.181 27.7087 180.109 27.915C180.1 27.9396 180.085 27.961 180.064 27.9763C180.043 27.9915 180.017 27.9998 179.991 28H178.875C178.643 28 178.42 28.0922 178.256 28.2563C178.092 28.4204 178 28.6429 178 28.875V31.125C178 31.3571 178.092 31.5796 178.256 31.7437C178.42 31.9078 178.643 32 178.875 32H179.991C180.017 32.0002 180.043 32.0085 180.064 32.0237C180.085 32.039 180.1 32.0604 180.109 32.085C180.181 32.2913 180.265 32.4937 180.359 32.6912C180.37 32.7146 180.375 32.741 180.371 32.7667C180.367 32.7925 180.355 32.8164 180.336 32.835L179.548 33.625C179.466 33.7063 179.402 33.8027 179.358 33.9089C179.314 34.015 179.291 34.1288 179.291 34.2437C179.291 34.3587 179.314 34.4725 179.358 34.5786C179.402 34.6848 179.466 34.7812 179.548 34.8625L181.139 36.4537C181.22 36.535 181.316 36.5995 181.423 36.6434C181.529 36.6874 181.643 36.7101 181.757 36.7101C181.872 36.7101 181.986 36.6874 182.092 36.6434C182.199 36.5995 182.295 36.535 182.376 36.4537L183.165 35.665C183.184 35.6467 183.207 35.6347 183.233 35.6307C183.259 35.6266 183.285 35.6308 183.309 35.6425C183.506 35.7364 183.709 35.8199 183.915 35.8925C183.94 35.9008 183.961 35.9166 183.976 35.9377C183.992 35.9587 184 35.984 184 36.01V37.125C184 37.3571 184.092 37.5796 184.256 37.7437C184.42 37.9078 184.643 38 184.875 38H187.125C187.357 38 187.58 37.9078 187.744 37.7437C187.908 37.5796 188 37.3571 188 37.125V36.0087C188 35.9828 188.008 35.9575 188.024 35.9364C188.039 35.9154 188.06 35.8996 188.085 35.8912C188.291 35.8186 188.494 35.7352 188.691 35.6412C188.715 35.6295 188.741 35.6254 188.767 35.6294C188.793 35.6335 188.816 35.6455 188.835 35.6637L189.625 36.4525C189.706 36.5338 189.803 36.5982 189.909 36.6422C190.015 36.6862 190.129 36.7088 190.244 36.7088C190.359 36.7088 190.472 36.6862 190.579 36.6422C190.685 36.5982 190.781 36.5338 190.863 36.4525L192.454 34.8612C192.535 34.78 192.599 34.6835 192.643 34.5774C192.687 34.4712 192.71 34.3574 192.71 34.2425C192.71 34.1276 192.687 34.0138 192.643 33.9076C192.599 33.8015 192.535 33.705 192.454 33.6237L191.665 32.835C191.647 32.8164 191.635 32.7925 191.631 32.7667C191.627 32.741 191.631 32.7146 191.642 32.6912C191.736 32.4937 191.82 32.2913 191.892 32.085C191.901 32.0604 191.917 32.039 191.938 32.0237C191.959 32.0085 191.984 32.0002 192.01 32H193.125C193.357 32 193.58 31.9078 193.744 31.7437C193.908 31.5796 194 31.3571 194 31.125V28.875C194 28.6429 193.908 28.4204 193.744 28.2563C193.58 28.0922 193.357 28 193.125 28ZM193.25 31.125C193.25 31.1582 193.237 31.1899 193.213 31.2134C193.19 31.2368 193.158 31.25 193.125 31.25H192.009C191.827 31.2502 191.651 31.3067 191.503 31.4117C191.355 31.5168 191.244 31.6651 191.184 31.8363C191.12 32.0175 191.046 32.1952 190.964 32.3687C190.885 32.5323 190.858 32.7165 190.888 32.8957C190.919 33.0749 191.004 33.2402 191.132 33.3687L191.921 34.1575C191.945 34.1809 191.958 34.2126 191.958 34.2456C191.958 34.2786 191.945 34.3103 191.921 34.3337L190.331 35.9225C190.308 35.9458 190.276 35.9588 190.243 35.9588C190.21 35.9588 190.178 35.9458 190.155 35.9225L189.366 35.1337C189.238 35.0053 189.072 34.92 188.893 34.8897C188.714 34.8595 188.53 34.8858 188.366 34.965C188.192 35.0477 188.014 35.1211 187.833 35.185C187.662 35.245 187.514 35.3566 187.409 35.5044C187.304 35.6522 187.248 35.8288 187.248 36.01V37.125C187.248 37.1582 187.234 37.1899 187.211 37.2134C187.187 37.2368 187.156 37.25 187.123 37.25H184.875C184.842 37.25 184.81 37.2368 184.787 37.2134C184.763 37.1899 184.75 37.1582 184.75 37.125V36.0087C184.75 35.8274 184.693 35.6507 184.588 35.5029C184.483 35.3551 184.335 35.2436 184.164 35.1838C183.983 35.1198 183.805 35.0464 183.631 34.9637C183.468 34.8845 183.284 34.8582 183.104 34.8885C182.925 34.9187 182.76 35.004 182.631 35.1325L181.842 35.9213C181.819 35.9445 181.787 35.9576 181.754 35.9576C181.721 35.9576 181.69 35.9445 181.666 35.9213L180.078 34.3313C180.054 34.3078 180.041 34.2761 180.041 34.2431C180.041 34.2101 180.054 34.1784 180.078 34.155L180.866 33.3663C180.995 33.2377 181.08 33.0724 181.11 32.8932C181.141 32.714 181.114 32.5298 181.035 32.3663C180.952 32.1923 180.879 32.0142 180.815 31.8325C180.755 31.6623 180.643 31.5149 180.496 31.4106C180.348 31.3063 180.172 31.2502 179.991 31.25H178.875C178.842 31.25 178.81 31.2368 178.787 31.2134C178.763 31.1899 178.75 31.1582 178.75 31.125V28.875C178.75 28.8418 178.763 28.8101 178.787 28.7866C178.81 28.7632 178.842 28.75 178.875 28.75H179.991C180.173 28.7498 180.349 28.6933 180.497 28.5883C180.645 28.4832 180.756 28.3349 180.816 28.1638C180.88 27.9825 180.954 27.8048 181.036 27.6312C181.115 27.4677 181.142 27.2835 181.112 27.1043C181.081 26.9251 180.996 26.7598 180.868 26.6312L180.079 25.8425C180.055 25.8191 180.042 25.7874 180.042 25.7544C180.042 25.7214 180.055 25.6897 180.079 25.6662L181.669 24.0775C181.692 24.0542 181.724 24.0412 181.757 24.0412C181.79 24.0412 181.822 24.0542 181.845 24.0775L182.634 24.8663C182.762 24.9947 182.928 25.08 183.107 25.1103C183.286 25.1405 183.47 25.1142 183.634 25.035C183.808 24.9523 183.986 24.8789 184.168 24.815C184.338 24.7546 184.485 24.643 184.589 24.4955C184.694 24.348 184.75 24.1719 184.75 23.9913V22.875C184.75 22.8418 184.763 22.8101 184.787 22.7866C184.81 22.7632 184.842 22.75 184.875 22.75H187.125C187.158 22.75 187.19 22.7632 187.213 22.7866C187.237 22.8101 187.25 22.8418 187.25 22.875V23.9913C187.25 24.1726 187.307 24.3493 187.412 24.4971C187.517 24.6449 187.665 24.7564 187.836 24.8163C188.017 24.8802 188.195 24.9536 188.369 25.0363C188.532 25.1155 188.716 25.1418 188.896 25.1115C189.075 25.0813 189.24 24.996 189.369 24.8675L190.158 24.0787C190.181 24.0555 190.213 24.0424 190.246 24.0424C190.279 24.0424 190.31 24.0555 190.334 24.0787L191.925 25.67C191.948 25.6934 191.961 25.7251 191.961 25.7581C191.961 25.7911 191.948 25.8228 191.925 25.8463L191.136 26.635C191.008 26.7635 190.922 26.9289 190.892 27.1081C190.862 27.2873 190.888 27.4714 190.967 27.635C191.05 27.8089 191.124 27.9871 191.188 28.1687C191.248 28.3397 191.359 28.4877 191.507 28.5925C191.655 28.6973 191.831 28.7536 192.012 28.7537H193.125C193.158 28.7537 193.19 28.7669 193.213 28.7904C193.237 28.8138 193.25 28.8456 193.25 28.8787V31.125Z" fill="white"/>
<path d="M200.5 19.3516C200.075 19.3516 199.66 19.4776 199.306 19.7136C198.953 19.9497 198.678 20.2853 198.515 20.6778C198.352 21.0704 198.31 21.5024 198.393 21.9191C198.476 22.3359 198.68 22.7187 198.981 23.0192C199.281 23.3196 199.664 23.5243 200.081 23.6072C200.498 23.6901 200.93 23.6475 201.322 23.4849C201.715 23.3223 202.05 23.0469 202.286 22.6936C202.522 22.3403 202.648 21.9249 202.648 21.5C202.648 20.9302 202.422 20.3837 202.019 19.9808C201.616 19.5779 201.07 19.3516 200.5 19.3516ZM200.5 23.1328C200.177 23.1328 199.861 23.037 199.593 22.8576C199.324 22.6782 199.115 22.4232 198.991 22.1249C198.868 21.8265 198.836 21.4982 198.899 21.1815C198.962 20.8647 199.117 20.5738 199.345 20.3454C199.574 20.1171 199.865 19.9616 200.181 19.8986C200.498 19.8356 200.826 19.8679 201.125 19.9915C201.423 20.1151 201.678 20.3243 201.858 20.5929C202.037 20.8614 202.133 21.1771 202.133 21.5C202.133 21.933 201.961 22.3484 201.655 22.6546C201.348 22.9608 200.933 23.1328 200.5 23.1328Z" fill="#DD0000"/>
<path d="M205.398 20.125H204.631C204.613 20.1249 204.596 20.1192 204.581 20.1087C204.567 20.0982 204.556 20.0835 204.55 20.0666C204.5 19.9247 204.443 19.7856 204.378 19.6498C204.37 19.6337 204.367 19.6156 204.37 19.5979C204.373 19.5801 204.381 19.5637 204.394 19.5509L204.936 19.0078C204.992 18.952 205.036 18.8856 205.067 18.8126C205.097 18.7397 205.112 18.6614 205.112 18.5824C205.112 18.5034 205.097 18.4252 205.067 18.3522C205.036 18.2792 204.992 18.2129 204.936 18.157L203.842 17.0639C203.786 17.008 203.72 16.9637 203.647 16.9335C203.574 16.9033 203.496 16.8877 203.417 16.8877C203.338 16.8877 203.259 16.9033 203.186 16.9335C203.114 16.9637 203.047 17.008 202.991 17.0639L202.449 17.6062C202.436 17.6187 202.42 17.627 202.402 17.6298C202.384 17.6325 202.366 17.6297 202.35 17.6216C202.214 17.5571 202.075 17.4997 201.933 17.4498C201.917 17.444 201.902 17.4332 201.891 17.4187C201.881 17.4042 201.875 17.3869 201.875 17.369V16.6016C201.875 16.442 201.812 16.289 201.699 16.1762C201.586 16.0634 201.433 16 201.273 16H199.727C199.567 16 199.414 16.0634 199.301 16.1762C199.188 16.289 199.125 16.442 199.125 16.6016V17.369C199.125 17.3869 199.119 17.4042 199.109 17.4187C199.098 17.4332 199.083 17.444 199.067 17.4498C198.925 17.4997 198.786 17.5571 198.65 17.6216C198.634 17.6297 198.616 17.6325 198.598 17.6298C198.58 17.627 198.564 17.6187 198.551 17.6062L198.008 17.0639C197.952 17.008 197.886 16.9637 197.813 16.9335C197.74 16.9033 197.661 16.8877 197.582 16.8877C197.503 16.8877 197.425 16.9033 197.352 16.9335C197.279 16.9637 197.213 17.008 197.157 17.0639L196.064 18.1579C196.008 18.2138 195.964 18.2801 195.933 18.3531C195.903 18.426 195.888 18.5043 195.888 18.5833C195.888 18.6623 195.903 18.7405 195.933 18.8135C195.964 18.8865 196.008 18.9528 196.064 19.0087L196.606 19.5509C196.619 19.5637 196.627 19.5801 196.63 19.5979C196.633 19.6156 196.63 19.6337 196.622 19.6498C196.557 19.7856 196.5 19.9247 196.45 20.0666C196.444 20.0835 196.433 20.0982 196.419 20.1087C196.404 20.1192 196.387 20.1249 196.369 20.125H195.602C195.442 20.125 195.289 20.1884 195.176 20.3012C195.063 20.414 195 20.567 195 20.7266V22.2734C195 22.433 195.063 22.586 195.176 22.6988C195.289 22.8116 195.442 22.875 195.602 22.875H196.369C196.387 22.8751 196.404 22.8808 196.419 22.8913C196.433 22.9018 196.444 22.9165 196.45 22.9334C196.5 23.0753 196.557 23.2144 196.622 23.3502C196.63 23.3663 196.633 23.3844 196.63 23.4021C196.627 23.4199 196.619 23.4363 196.606 23.4491L196.064 23.9922C196.008 24.048 195.964 24.1144 195.933 24.1874C195.903 24.2603 195.888 24.3386 195.888 24.4176C195.888 24.4966 195.903 24.5748 195.933 24.6478C195.964 24.7208 196.008 24.7871 196.064 24.843L197.158 25.937C197.214 25.9928 197.28 26.0371 197.353 26.0674C197.426 26.0976 197.504 26.1132 197.583 26.1132C197.662 26.1132 197.741 26.0976 197.814 26.0674C197.886 26.0371 197.953 25.9928 198.009 25.937L198.551 25.3947C198.564 25.3821 198.58 25.3739 198.598 25.3711C198.616 25.3683 198.634 25.3712 198.65 25.3792C198.786 25.4438 198.925 25.5012 199.067 25.5511C199.083 25.5568 199.098 25.5677 199.109 25.5821C199.119 25.5966 199.125 25.614 199.125 25.6319V26.3984C199.125 26.558 199.188 26.711 199.301 26.8238C199.414 26.9366 199.567 27 199.727 27H201.273C201.433 27 201.586 26.9366 201.699 26.8238C201.812 26.711 201.875 26.558 201.875 26.3984V25.631C201.875 25.6131 201.881 25.5958 201.891 25.5813C201.902 25.5668 201.917 25.556 201.933 25.5502C202.075 25.5003 202.214 25.4429 202.35 25.3784C202.366 25.3703 202.384 25.3675 202.402 25.3702C202.42 25.373 202.436 25.3813 202.449 25.3938L202.992 25.9361C203.048 25.992 203.114 26.0363 203.187 26.0665C203.26 26.0967 203.339 26.1123 203.418 26.1123C203.497 26.1123 203.575 26.0967 203.648 26.0665C203.721 26.0363 203.787 25.992 203.843 25.9361L204.937 24.8421C204.993 24.7862 205.037 24.7199 205.067 24.6469C205.098 24.574 205.113 24.4957 205.113 24.4167C205.113 24.3377 205.098 24.2595 205.067 24.1865C205.037 24.1135 204.993 24.0472 204.937 23.9913L204.395 23.4491C204.382 23.4363 204.374 23.4199 204.371 23.4021C204.368 23.3844 204.371 23.3663 204.379 23.3502C204.444 23.2144 204.501 23.0753 204.551 22.9334C204.557 22.9165 204.568 22.9018 204.582 22.8913C204.597 22.8808 204.614 22.8751 204.632 22.875H205.398C205.558 22.875 205.711 22.8116 205.824 22.6988C205.937 22.586 206 22.433 206 22.2734V20.7266C206 20.567 205.937 20.414 205.824 20.3012C205.711 20.1884 205.558 20.125 205.398 20.125ZM205.484 22.2734C205.484 22.2962 205.475 22.3181 205.459 22.3342C205.443 22.3503 205.421 22.3594 205.398 22.3594H204.631C204.506 22.3595 204.385 22.3984 204.283 22.4706C204.182 22.5428 204.105 22.6448 204.064 22.7624C204.02 22.887 203.969 23.0092 203.913 23.1285C203.858 23.241 203.84 23.3676 203.861 23.4908C203.882 23.614 203.94 23.7277 204.029 23.816L204.571 24.3583C204.587 24.3744 204.596 24.3962 204.596 24.4189C204.596 24.4416 204.587 24.4634 204.571 24.4795L203.478 25.5717C203.462 25.5877 203.44 25.5967 203.417 25.5967C203.394 25.5967 203.373 25.5877 203.357 25.5717L202.814 25.0295C202.726 24.9411 202.612 24.8825 202.489 24.8617C202.366 24.8409 202.239 24.859 202.127 24.9134C202.007 24.9703 201.885 25.0207 201.76 25.0647C201.642 25.106 201.541 25.1827 201.469 25.2843C201.396 25.3859 201.358 25.5073 201.358 25.6319V26.3984C201.358 26.4212 201.349 26.4431 201.332 26.4592C201.316 26.4753 201.295 26.4844 201.272 26.4844H199.727C199.704 26.4844 199.682 26.4753 199.666 26.4592C199.65 26.4431 199.641 26.4212 199.641 26.3984V25.631C199.64 25.5064 199.602 25.3848 199.529 25.2832C199.457 25.1816 199.355 25.105 199.238 25.0638C199.113 25.0199 198.991 24.9694 198.871 24.9126C198.759 24.8581 198.632 24.84 198.509 24.8608C198.386 24.8816 198.272 24.9403 198.184 25.0286L197.642 25.5709C197.626 25.5869 197.604 25.5958 197.581 25.5958C197.558 25.5958 197.537 25.5869 197.521 25.5709L196.428 24.4777C196.412 24.4616 196.403 24.4399 196.403 24.4171C196.403 24.3944 196.412 24.3727 196.428 24.3566L196.971 23.8143C197.059 23.7259 197.118 23.6123 197.138 23.4891C197.159 23.3659 197.141 23.2392 197.087 23.1268C197.03 23.0072 196.979 22.8847 196.935 22.7598C196.894 22.6428 196.817 22.5415 196.716 22.4698C196.614 22.3981 196.493 22.3595 196.369 22.3594H195.602C195.579 22.3594 195.557 22.3503 195.541 22.3342C195.525 22.3181 195.516 22.2962 195.516 22.2734V20.7266C195.516 20.7038 195.525 20.6819 195.541 20.6658C195.557 20.6497 195.579 20.6406 195.602 20.6406H196.369C196.494 20.6405 196.615 20.6016 196.717 20.5294C196.818 20.4572 196.895 20.3552 196.936 20.2376C196.98 20.113 197.031 19.9908 197.087 19.8715C197.142 19.759 197.16 19.6324 197.139 19.5092C197.118 19.386 197.06 19.2723 196.971 19.184L196.429 18.6417C196.413 18.6256 196.404 18.6038 196.404 18.5811C196.404 18.5584 196.413 18.5366 196.429 18.5205L197.522 17.4283C197.538 17.4123 197.56 17.4033 197.583 17.4033C197.606 17.4033 197.627 17.4123 197.643 17.4283L198.186 17.9705C198.274 18.0589 198.388 18.1175 198.511 18.1383C198.634 18.1591 198.761 18.141 198.873 18.0866C198.993 18.0297 199.115 17.9793 199.24 17.9353C199.357 17.8938 199.459 17.8171 199.53 17.7157C199.602 17.6143 199.64 17.4932 199.641 17.369V16.6016C199.641 16.5788 199.65 16.5569 199.666 16.5408C199.682 16.5247 199.704 16.5156 199.727 16.5156H201.273C201.296 16.5156 201.318 16.5247 201.334 16.5408C201.35 16.5569 201.359 16.5788 201.359 16.6016V17.369C201.36 17.4936 201.398 17.6152 201.471 17.7168C201.543 17.8184 201.645 17.895 201.762 17.9362C201.887 17.9801 202.009 18.0306 202.129 18.0874C202.241 18.1419 202.368 18.16 202.491 18.1392C202.614 18.1184 202.728 18.0597 202.816 17.9714L203.358 17.4291C203.374 17.4131 203.396 17.4042 203.419 17.4042C203.442 17.4042 203.463 17.4131 203.479 17.4291L204.573 18.5231C204.589 18.5392 204.598 18.561 204.598 18.5837C204.598 18.6064 204.589 18.6282 204.573 18.6443L204.031 19.1866C203.943 19.2749 203.884 19.3886 203.863 19.5118C203.843 19.635 203.861 19.7616 203.915 19.8741C203.972 19.9936 204.022 20.1161 204.066 20.241C204.108 20.3585 204.184 20.4603 204.286 20.5324C204.388 20.6044 204.509 20.6431 204.634 20.6432H205.398C205.421 20.6432 205.443 20.6523 205.459 20.6684C205.475 20.6845 205.484 20.7063 205.484 20.7291V22.2734Z" fill="#DD0000"/>
<path d="M123 34C123 33.4477 123.448 33 124 33H125V49H123V34Z" fill="#DD0000"/>
<rect x="113" y="17" width="2" height="8" fill="#DD0000"/>
<rect x="124" y="5" width="2" height="20" fill="#DD0000"/>
<path d="M170 33L170 35L123 35L123 34C123 33.4477 123.448 33 124 33L170 33Z" fill="#DD0000"/>
<rect x="171" y="25" width="2" height="100" transform="rotate(90 171 25)" fill="#DD0000"/>
<rect x="111.5" y="12.5" width="5" height="4" rx="0.5" stroke="#DD0000"/>
<rect x="122" width="6" height="5" rx="1" fill="#DD0000"/>
<path d="M123 187C123 187.552 122.552 188 122 188L121 188L121 172L123 172L123 187Z" fill="#DD0000"/>
<rect x="154" y="195" width="2" height="25" transform="rotate(-180 154 195)" fill="#DD0000"/>
<rect x="133" y="204" width="2" height="8" transform="rotate(-180 133 204)" fill="#DD0000"/>
<path d="M77 196L76 196C75.4477 196 75 195.552 75 195L75 188L77 188L77 196Z" fill="#DD0000"/>
<rect x="122" y="216" width="2" height="20" transform="rotate(-180 122 216)" fill="#DD0000"/>
<path d="M14 188L14 186L123 186L123 187C123 187.552 122.552 188 122 188L14 188Z" fill="#DD0000"/>
<path d="M76 196C75.4477 196 75 195.552 75 195L75 194L225 194L225 196L76 196Z" fill="#DD0000"/>
<rect x="134.5" y="208.5" width="5" height="4" rx="0.5" transform="rotate(-180 134.5 208.5)" stroke="#DD0000"/>
<rect x="124" y="221" width="6" height="5" rx="1" transform="rotate(-180 124 221)" fill="#DD0000"/>
<rect x="235" y="200" width="14" height="11" rx="1" transform="rotate(-180 235 200)" fill="#DD0000"/>
<rect x="5.5" y="191.5" width="9" height="8" rx="0.5" transform="rotate(-90 5.5 191.5)" stroke="#DD0000"/>
<rect x="10" y="51" width="225" height="119" fill="#FF9696" fill-opacity="0.3"/>
<path d="M53.07 134L40.47 82.9H52.3L62.17 126.3L59.72 124.69H66.09L63.36 126.3L70.99 84.79H80.51L70.5 134H53.07ZM83.52 134L72.74 84.79H82.75L91.57 126.3L88.91 124.69H95L92.69 126.3L101.3 82.9H112.5L101.3 134H83.52ZM134.825 135.33C131.558 135.33 128.665 134.77 126.145 133.65C123.671 132.53 121.595 131.037 119.915 129.17C118.281 127.257 117.021 125.133 116.135 122.8C115.295 120.42 114.875 117.993 114.875 115.52V114.12C114.875 111.553 115.295 109.103 116.135 106.77C117.021 104.39 118.281 102.267 119.915 100.4C121.548 98.5333 123.578 97.0633 126.005 95.99C128.478 94.87 131.278 94.31 134.405 94.31C138.511 94.31 141.965 95.2433 144.765 97.11C147.611 98.93 149.781 101.333 151.275 104.32C152.768 107.26 153.515 110.48 153.515 113.98V117.76H119.565V111.39H146.725L143.085 114.33C143.085 112.043 142.758 110.083 142.105 108.45C141.451 106.817 140.471 105.58 139.165 104.74C137.905 103.853 136.318 103.41 134.405 103.41C132.445 103.41 130.788 103.853 129.435 104.74C128.081 105.627 127.055 106.933 126.355 108.66C125.655 110.34 125.305 112.417 125.305 114.89C125.305 117.177 125.631 119.183 126.285 120.91C126.938 122.59 127.965 123.897 129.365 124.83C130.765 125.763 132.585 126.23 134.825 126.23C136.878 126.23 138.558 125.833 139.865 125.04C141.171 124.247 142.058 123.267 142.525 122.1H152.815C152.255 124.667 151.158 126.953 149.525 128.96C147.891 130.967 145.838 132.53 143.365 133.65C140.891 134.77 138.045 135.33 134.825 135.33ZM184.526 135.26C181.4 135.26 178.646 134.607 176.266 133.3C173.886 131.947 172.02 130.01 170.666 127.49C169.313 124.97 168.59 121.89 168.496 118.25H169.826V134H160.936V82.9H172.136V108.87L169.476 112.23C169.616 108.357 170.34 105.113 171.646 102.5C173 99.84 174.843 97.8567 177.176 96.55C179.51 95.1967 182.17 94.52 185.156 94.52C187.77 94.52 190.126 95.01 192.226 95.99C194.373 96.9233 196.193 98.2767 197.686 100.05C199.18 101.777 200.323 103.83 201.116 106.21C201.956 108.59 202.376 111.18 202.376 113.98V115.52C202.376 118.32 201.956 120.91 201.116 123.29C200.323 125.67 199.133 127.77 197.546 129.59C196.006 131.363 194.14 132.763 191.946 133.79C189.753 134.77 187.28 135.26 184.526 135.26ZM181.586 125.88C183.5 125.88 185.156 125.413 186.556 124.48C188.003 123.547 189.123 122.24 189.916 120.56C190.71 118.833 191.106 116.897 191.106 114.75C191.106 112.557 190.71 110.643 189.916 109.01C189.123 107.377 188.003 106.117 186.556 105.23C185.156 104.297 183.5 103.83 181.586 103.83C179.906 103.83 178.32 104.227 176.826 105.02C175.333 105.813 174.12 106.957 173.186 108.45C172.3 109.897 171.856 111.67 171.856 113.77V116.36C171.856 118.367 172.323 120.093 173.256 121.54C174.236 122.94 175.473 124.013 176.966 124.76C178.46 125.507 180 125.88 181.586 125.88Z" fill="url(#paint3_linear_2540_3117)"/>
<path d="M271.3 134.2V126.55H278.1C279.8 126.55 281.333 126.3 282.7 125.8C284.067 125.267 285.233 124.533 286.2 123.6C287.167 122.633 287.9 121.483 288.4 120.15C288.9 118.783 289.15 117.283 289.15 115.65C289.15 113.95 288.9 112.433 288.4 111.1C287.9 109.767 287.167 108.633 286.2 107.7C285.233 106.767 284.067 106.067 282.7 105.6C281.333 105.1 279.8 104.85 278.1 104.85H271.3V97.2H277.65C280.95 97.2 283.833 97.6833 286.3 98.65C288.767 99.6167 290.833 100.933 292.5 102.6C294.167 104.267 295.4 106.183 296.2 108.35C297.033 110.483 297.45 112.733 297.45 115.1V116.2C297.45 118.4 297.033 120.583 296.2 122.75C295.4 124.883 294.167 126.817 292.5 128.55C290.833 130.25 288.767 131.617 286.3 132.65C283.833 133.683 280.95 134.2 277.65 134.2H271.3ZM264.1 134.2V97.2H272.3V134.2H264.1ZM315.263 134.95C312.929 134.95 310.863 134.55 309.063 133.75C307.296 132.95 305.813 131.883 304.613 130.55C303.446 129.183 302.546 127.667 301.913 126C301.313 124.3 301.013 122.567 301.013 120.8V119.8C301.013 117.967 301.313 116.217 301.913 114.55C302.546 112.85 303.446 111.333 304.613 110C305.779 108.667 307.229 107.617 308.963 106.85C310.729 106.05 312.729 105.65 314.963 105.65C317.896 105.65 320.363 106.317 322.363 107.65C324.396 108.95 325.946 110.667 327.013 112.8C328.079 114.9 328.613 117.2 328.613 119.7V122.4H304.363V117.85H323.763L321.163 119.95C321.163 118.317 320.929 116.917 320.463 115.75C319.996 114.583 319.296 113.7 318.363 113.1C317.463 112.467 316.329 112.15 314.963 112.15C313.563 112.15 312.379 112.467 311.413 113.1C310.446 113.733 309.713 114.667 309.213 115.9C308.713 117.1 308.463 118.583 308.463 120.35C308.463 121.983 308.696 123.417 309.163 124.65C309.629 125.85 310.363 126.783 311.363 127.45C312.363 128.117 313.663 128.45 315.263 128.45C316.729 128.45 317.929 128.167 318.863 127.6C319.796 127.033 320.429 126.333 320.763 125.5H328.113C327.713 127.333 326.929 128.967 325.763 130.4C324.596 131.833 323.129 132.95 321.363 133.75C319.596 134.55 317.563 134.95 315.263 134.95ZM338.921 134L330.721 106.6H338.971L346.671 134H338.921ZM341.421 134V127.35H349.471V134H341.421ZM344.371 134L351.021 106.6H358.721L351.621 134H344.371ZM375.37 134.95C373.037 134.95 370.97 134.55 369.17 133.75C367.403 132.95 365.92 131.883 364.72 130.55C363.553 129.183 362.653 127.667 362.02 126C361.42 124.3 361.12 122.567 361.12 120.8V119.8C361.12 117.967 361.42 116.217 362.02 114.55C362.653 112.85 363.553 111.333 364.72 110C365.887 108.667 367.337 107.617 369.07 106.85C370.837 106.05 372.837 105.65 375.07 105.65C378.003 105.65 380.47 106.317 382.47 107.65C384.503 108.95 386.053 110.667 387.12 112.8C388.187 114.9 388.72 117.2 388.72 119.7V122.4H364.47V117.85H383.87L381.27 119.95C381.27 118.317 381.037 116.917 380.57 115.75C380.103 114.583 379.403 113.7 378.47 113.1C377.57 112.467 376.437 112.15 375.07 112.15C373.67 112.15 372.487 112.467 371.52 113.1C370.553 113.733 369.82 114.667 369.32 115.9C368.82 117.1 368.57 118.583 368.57 120.35C368.57 121.983 368.803 123.417 369.27 124.65C369.737 125.85 370.47 126.783 371.47 127.45C372.47 128.117 373.77 128.45 375.37 128.45C376.837 128.45 378.037 128.167 378.97 127.6C379.903 127.033 380.537 126.333 380.87 125.5H388.22C387.82 127.333 387.037 128.967 385.87 130.4C384.703 131.833 383.237 132.95 381.47 133.75C379.703 134.55 377.67 134.95 375.37 134.95ZM394.371 134V97.5H402.421V134H394.371ZM391.121 103.4V97.5H402.421V103.4H391.121ZM423.143 134.95C420.743 134.95 418.609 134.583 416.743 133.85C414.876 133.083 413.293 132.05 411.993 130.75C410.726 129.45 409.759 127.967 409.093 126.3C408.426 124.6 408.093 122.817 408.093 120.95V119.8C408.093 117.9 408.426 116.1 409.093 114.4C409.793 112.667 410.793 111.15 412.093 109.85C413.426 108.55 415.026 107.533 416.893 106.8C418.759 106.033 420.843 105.65 423.143 105.65C425.509 105.65 427.609 106.033 429.443 106.8C431.309 107.533 432.893 108.55 434.193 109.85C435.493 111.15 436.493 112.667 437.193 114.4C437.893 116.1 438.243 117.9 438.243 119.8V120.95C438.243 122.817 437.909 124.6 437.243 126.3C436.576 127.967 435.593 129.45 434.293 130.75C433.026 132.05 431.459 133.083 429.593 133.85C427.726 134.583 425.576 134.95 423.143 134.95ZM423.143 128.2C424.709 128.2 426.009 127.867 427.043 127.2C428.076 126.533 428.859 125.6 429.393 124.4C429.959 123.2 430.243 121.867 430.243 120.4C430.243 118.833 429.959 117.467 429.393 116.3C428.826 115.1 428.009 114.15 426.943 113.45C425.909 112.75 424.643 112.4 423.143 112.4C421.676 112.4 420.409 112.75 419.343 113.45C418.276 114.15 417.459 115.1 416.893 116.3C416.359 117.467 416.093 118.833 416.093 120.4C416.093 121.867 416.359 123.2 416.893 124.4C417.426 125.6 418.226 126.533 419.293 127.2C420.359 127.867 421.643 128.2 423.143 128.2ZM443.826 144V106.6H450.176V118.45L449.326 118.4C449.459 115.667 450.026 113.367 451.026 111.5C452.026 109.6 453.376 108.183 455.076 107.25C456.776 106.283 458.692 105.8 460.826 105.8C462.726 105.8 464.442 106.15 465.976 106.85C467.542 107.55 468.876 108.533 469.976 109.8C471.109 111.033 471.959 112.5 472.526 114.2C473.126 115.867 473.426 117.7 473.426 119.7V120.85C473.426 122.817 473.142 124.667 472.576 126.4C472.009 128.1 471.176 129.583 470.076 130.85C469.009 132.117 467.692 133.117 466.126 133.85C464.592 134.55 462.826 134.9 460.826 134.9C458.759 134.9 456.892 134.483 455.226 133.65C453.592 132.783 452.276 131.483 451.276 129.75C450.276 127.983 449.726 125.75 449.626 123.05L451.826 126.05V144H443.826ZM458.576 128.2C459.942 128.2 461.126 127.867 462.126 127.2C463.159 126.533 463.959 125.6 464.526 124.4C465.092 123.2 465.376 121.817 465.376 120.25C465.376 118.683 465.092 117.317 464.526 116.15C463.959 114.983 463.176 114.083 462.176 113.45C461.176 112.783 459.976 112.45 458.576 112.45C457.376 112.45 456.242 112.733 455.176 113.3C454.109 113.867 453.242 114.683 452.576 115.75C451.942 116.783 451.626 118.05 451.626 119.55V121.4C451.626 122.833 451.959 124.067 452.626 125.1C453.326 126.1 454.209 126.867 455.276 127.4C456.342 127.933 457.442 128.2 458.576 128.2ZM478.982 134V106.6H485.332V118.4H484.882C484.882 115.6 485.232 113.267 485.932 111.4C486.632 109.533 487.682 108.133 489.082 107.2C490.482 106.233 492.199 105.75 494.232 105.75H494.582C496.649 105.75 498.365 106.233 499.732 107.2C501.132 108.133 502.182 109.533 502.882 111.4C503.615 113.267 503.982 115.6 503.982 118.4H502.032C502.032 115.6 502.382 113.267 503.082 111.4C503.815 109.533 504.882 108.133 506.282 107.2C507.682 106.233 509.399 105.75 511.432 105.75H511.782C513.849 105.75 515.582 106.233 516.982 107.2C518.415 108.133 519.499 109.533 520.232 111.4C520.965 113.267 521.332 115.6 521.332 118.4V134H513.332V117.95C513.332 116.45 512.932 115.233 512.132 114.3C511.365 113.367 510.265 112.9 508.832 112.9C507.399 112.9 506.265 113.383 505.432 114.35C504.599 115.283 504.182 116.533 504.182 118.1V134H496.132V117.95C496.132 116.45 495.732 115.233 494.932 114.3C494.165 113.367 493.082 112.9 491.682 112.9C490.215 112.9 489.065 113.383 488.232 114.35C487.399 115.283 486.982 116.533 486.982 118.1V134H478.982ZM540.702 134.95C538.369 134.95 536.302 134.55 534.502 133.75C532.735 132.95 531.252 131.883 530.052 130.55C528.885 129.183 527.985 127.667 527.352 126C526.752 124.3 526.452 122.567 526.452 120.8V119.8C526.452 117.967 526.752 116.217 527.352 114.55C527.985 112.85 528.885 111.333 530.052 110C531.219 108.667 532.669 107.617 534.402 106.85C536.169 106.05 538.169 105.65 540.402 105.65C543.335 105.65 545.802 106.317 547.802 107.65C549.835 108.95 551.385 110.667 552.452 112.8C553.519 114.9 554.052 117.2 554.052 119.7V122.4H529.802V117.85H549.202L546.602 119.95C546.602 118.317 546.369 116.917 545.902 115.75C545.435 114.583 544.735 113.7 543.802 113.1C542.902 112.467 541.769 112.15 540.402 112.15C539.002 112.15 537.819 112.467 536.852 113.1C535.885 113.733 535.152 114.667 534.652 115.9C534.152 117.1 533.902 118.583 533.902 120.35C533.902 121.983 534.135 123.417 534.602 124.65C535.069 125.85 535.802 126.783 536.802 127.45C537.802 128.117 539.102 128.45 540.702 128.45C542.169 128.45 543.369 128.167 544.302 127.6C545.235 127.033 545.869 126.333 546.202 125.5H553.552C553.152 127.333 552.369 128.967 551.202 130.4C550.035 131.833 548.569 132.95 546.802 133.75C545.035 134.55 543.002 134.95 540.702 134.95ZM559.353 134V106.6H565.703V118.35H565.253C565.253 115.55 565.603 113.217 566.303 111.35C567.036 109.483 568.136 108.083 569.603 107.15C571.07 106.217 572.853 105.75 574.953 105.75H575.303C578.503 105.75 580.936 106.8 582.603 108.9C584.303 110.967 585.153 114.117 585.153 118.35V134H577.153V117.9C577.153 116.433 576.72 115.233 575.853 114.3C574.986 113.367 573.82 112.9 572.353 112.9C570.853 112.9 569.636 113.383 568.703 114.35C567.803 115.283 567.353 116.517 567.353 118.05V134H559.353ZM604.42 134.35C601.654 134.35 599.42 134.017 597.72 133.35C596.02 132.65 594.77 131.5 593.97 129.9C593.204 128.267 592.82 126.067 592.82 123.3V99.2H600.27V123.6C600.27 124.9 600.604 125.9 601.27 126.6C601.97 127.267 602.954 127.6 604.22 127.6H608.27V134.35H604.42ZM588.67 112.45V106.6H608.27V112.45H588.67ZM634.198 134L639.198 107.5H647.948L653.748 134H647.548L641.598 107.7H645.148L639.798 134H634.198ZM632.298 134L632.248 127.35H637.748L637.798 134H632.298ZM628.698 134L621.348 106.6H629.198L636.048 134H628.698ZM649.598 134L649.648 127.35H655.148V134H649.598ZM651.848 134L657.948 106.6H665.298L658.698 134H651.848ZM671.542 134V106.6H679.542V134H671.542ZM667.892 112.5V106.6H679.542V112.5H667.892ZM674.642 103.9C673.142 103.9 672.025 103.517 671.292 102.75C670.592 101.95 670.242 100.95 670.242 99.75C670.242 98.5167 670.592 97.5167 671.292 96.75C672.025 95.95 673.142 95.55 674.642 95.55C676.142 95.55 677.242 95.95 677.942 96.75C678.675 97.5167 679.042 98.5167 679.042 99.75C679.042 100.95 678.675 101.95 677.942 102.75C677.242 103.517 676.142 103.9 674.642 103.9ZM699.391 134.35C696.624 134.35 694.391 134.017 692.691 133.35C690.991 132.65 689.741 131.5 688.941 129.9C688.174 128.267 687.791 126.067 687.791 123.3V99.2H695.241V123.6C695.241 124.9 695.574 125.9 696.241 126.6C696.941 127.267 697.924 127.6 699.191 127.6H703.241V134.35H699.391ZM683.641 112.45V106.6H703.241V112.45H683.641ZM708.621 134V97.5H716.621V118.55H715.421C715.421 115.783 715.771 113.45 716.471 111.55C717.171 109.65 718.204 108.217 719.571 107.25C720.937 106.25 722.654 105.75 724.721 105.75H725.071C728.104 105.75 730.421 106.833 732.021 109C733.621 111.133 734.421 114.267 734.421 118.4V134H726.421V117.9C726.421 116.4 725.971 115.2 725.071 114.3C724.204 113.367 723.054 112.9 721.621 112.9C720.121 112.9 718.904 113.383 717.971 114.35C717.071 115.317 716.621 116.6 716.621 118.2V134H708.621Z" fill="#DD0000"/>
<path d="M551.92 206V162.2H565.48L575.5 186.8H576.64L586.54 162.2H600.34V206H590.62V168.62L592 168.74L580.42 197.12H571.06L559.42 168.74L560.92 168.62V206H551.92ZM610.162 206V162.2H619.762V206H610.162ZM618.562 206V197.84H637.702V206H618.562ZM618.562 187.82V179.66H636.322V187.82H618.562ZM618.562 170.36V162.2H637.282V170.36H618.562ZM645.787 206V161.84H655.627V206H645.787ZM672.367 206L659.527 187.16H670.327L683.767 206H672.367ZM652.987 191.96V184.22H663.787C665.227 184.22 666.467 183.94 667.507 183.38C668.587 182.78 669.407 181.96 669.967 180.92C670.567 179.84 670.867 178.6 670.867 177.2C670.867 175.8 670.567 174.58 669.967 173.54C669.407 172.46 668.587 171.64 667.507 171.08C666.467 170.48 665.227 170.18 663.787 170.18H652.987V161.84H663.007C666.647 161.84 669.807 162.4 672.487 163.52C675.167 164.6 677.227 166.22 678.667 168.38C680.107 170.54 680.827 173.26 680.827 176.54V177.5C680.827 180.74 680.087 183.44 678.607 185.6C677.167 187.72 675.107 189.32 672.427 190.4C669.787 191.44 666.647 191.96 663.007 191.96H652.987ZM689.615 206V162.2H705.755L722.255 198.02H724.295L723.095 199.1V162.2H732.335V206H716.075L699.575 170.18H697.535L698.735 169.1V206H689.615Z" fill="#DD0000"/>
<defs>
<linearGradient id="paint0_linear_2540_3117" x1="33" y1="19" x2="48" y2="19" gradientUnits="userSpaceOnUse">
<stop stop-color="#DD0000"/>
<stop offset="1" stop-color="#FF9696"/>
</linearGradient>
<linearGradient id="paint1_linear_2540_3117" x1="50" y1="30.3333" x2="56.5625" y2="30.3333" gradientUnits="userSpaceOnUse">
<stop offset="0.270833" stop-color="#DD0000"/>
<stop offset="1" stop-color="#FF9696"/>
</linearGradient>
<linearGradient id="paint2_linear_2540_3117" x1="41" y1="30.3333" x2="47.5625" y2="30.3333" gradientUnits="userSpaceOnUse">
<stop offset="0.270833" stop-color="#DD0000"/>
<stop offset="1" stop-color="#FF9696"/>
</linearGradient>
<linearGradient id="paint3_linear_2540_3117" x1="39" y1="66" x2="205.353" y2="155.207" gradientUnits="userSpaceOnUse">
<stop stop-color="#DD0000"/>
<stop offset="1" stop-color="#FF9696"/>
</linearGradient>
</defs>
</svg>
