<svg width="237" height="62" viewBox="0 0 237 62" fill="none" xmlns="http://www.w3.org/2000/svg">
<path d="M3.67172 35.9944C3.98055 35.6104 4.3188 35.2561 4.69381 34.9386C4.74528 34.9017 4.84823 34.8131 5.01735 34.6728C5.18648 34.5326 5.37765 34.3923 5.59825 34.2372C5.81884 34.0896 6.01738 33.9715 6.18651 33.8902C6.36298 33.809 6.46592 33.8016 6.5174 33.8681C7.05418 35.0567 7.79685 36.0903 8.73806 36.9763C9.7381 37.8475 10.8558 38.5119 12.0911 38.9697C12.5397 39.1468 13.0029 39.3093 13.4735 39.4791C14.3927 39.7892 15.2824 40.1583 16.128 40.5865C16.981 41.0147 17.6795 41.6275 18.2384 42.4175C18.8928 43.4806 19.084 44.5585 18.8193 45.6511C18.5546 46.7438 18.0178 47.7183 17.2163 48.5821C16.4957 49.3795 15.6427 50.0956 14.6647 50.7232C15.0471 51.4393 15.2824 52.1997 15.3706 53.0192C15.4 53.2998 15.4221 53.5877 15.4295 53.8904C15.4515 54.3851 15.4956 54.865 15.5839 55.3448C15.6648 55.8247 15.8633 56.2603 16.1648 56.6664C16.4442 57.0355 16.8045 57.257 17.2457 57.3308C17.5031 57.0872 17.7751 56.8583 18.0545 56.6368C18.0766 56.6147 18.1575 56.5556 18.3119 56.4523C18.4663 56.3489 18.6355 56.2382 18.8266 56.1348C19.0105 56.0315 19.1722 55.9576 19.3046 55.9281C19.4369 55.8912 19.4884 55.9281 19.4737 56.0536C19.3414 56.5556 19.0913 57.0134 18.731 57.4194C18.3707 57.8255 17.9957 58.1946 17.6134 58.5269C17.2457 58.8517 16.856 59.1618 16.4295 59.4497C16.0104 59.7377 15.5545 59.9444 15.0765 60.0699C14.378 60.2249 13.7971 60.092 13.3412 59.6786C12.8853 59.2651 12.5911 58.7262 12.4588 58.0765C12.3632 57.5819 12.3117 57.0872 12.297 56.5852C12.2896 56.1865 12.2602 55.7952 12.2088 55.3965C12.0911 54.6952 11.8705 54.0307 11.5323 53.4179C11.0837 52.6058 10.4955 51.9266 9.77486 51.3803C9.55426 52.3917 9.12778 53.285 8.50276 54.0602C7.87039 54.8354 7.13507 55.5294 6.28945 56.1348C5.6056 56.659 4.85558 57.0355 4.03202 57.2865C3.20847 57.5376 2.39961 57.4563 1.59076 57.0503C0.965743 56.6811 0.517198 56.1717 0.24513 55.5073C-0.0269381 54.8502 -0.0710562 54.1636 0.10542 53.4622C0.223071 53.1226 0.428958 52.8125 0.737792 52.5172C1.04663 52.2219 1.34811 51.9635 1.64224 51.7272C1.71577 51.6756 1.7893 51.6313 1.84077 51.5796C1.87018 51.5574 1.95842 51.4984 2.11284 51.4024C2.26726 51.299 2.43638 51.1957 2.62757 51.0849C2.8114 50.9742 2.97316 50.9004 3.10552 50.8708C3.23788 50.8339 3.28199 50.8708 3.25994 50.9963C3.06875 51.7863 3.17905 52.532 3.59083 53.2333C4.00261 53.9347 4.60557 54.3851 5.39236 54.5844C5.73796 54.6509 6.08356 54.6582 6.42916 54.6139C6.55417 54.2079 6.6424 53.8018 6.68652 53.3884C6.81153 51.9266 6.83359 50.4352 6.74535 48.9365C6.72329 48.368 6.70858 47.7996 6.70123 47.2311C6.69387 45.9908 6.67917 44.7431 6.65711 43.5027C6.64976 42.5208 6.63505 41.5389 6.6277 40.5496C5.19382 39.5455 4.11291 38.2387 3.37023 36.6293C3.34082 36.5407 3.35553 36.4521 3.41436 36.3487C3.47318 36.2454 3.53201 36.1568 3.59819 36.083C3.62025 36.0608 3.63495 36.046 3.65701 36.0239L3.67172 35.9944ZM13.2382 43.4584C12.2602 42.9269 11.2381 42.4913 10.1719 42.1443C10.069 42.1074 9.95869 42.0705 9.84104 42.0262C9.84104 42.3362 9.84104 42.6463 9.85574 42.9638C9.85574 43.2812 9.85575 43.5987 9.87045 43.9162C9.89251 43.9162 9.90722 43.9309 9.91457 43.9605C10.0396 44.2189 10.1646 44.492 10.2896 44.7874C10.6058 45.5552 10.9881 46.2935 11.4293 47.0022C11.8705 47.7036 12.4588 48.2351 13.2014 48.5895C13.9441 48.8996 14.7162 48.9587 15.5177 48.7741C15.5839 48.6191 15.6427 48.4493 15.6942 48.2647C15.8927 47.2237 15.7604 46.2861 15.2824 45.4592C14.8044 44.6323 14.1279 43.9605 13.2456 43.4511L13.2382 43.4584Z" fill="url(#paint0_linear_2528_1145)"/>
<path d="M26.3416 54.622C26.2828 54.2676 26.2681 53.8985 26.2975 53.5219V53.3595C25.6063 54.0314 24.8269 54.622 23.9665 55.124C23.4371 55.4341 22.8709 55.6261 22.2753 55.6999C21.6723 55.7737 21.1209 55.6999 20.6135 55.471C20.1061 55.2422 19.7164 54.8066 19.4443 54.1716C19.1281 53.2783 19.084 52.3702 19.3193 51.4547C19.5546 50.5393 19.9517 49.7124 20.5106 48.9667C21.3341 47.9257 22.29 47.0029 23.3636 46.2055C23.6062 46.021 23.8415 45.8438 24.0842 45.674C24.121 45.6444 24.1577 45.6223 24.1871 45.6001C24.2092 45.5928 24.246 45.5632 24.3048 45.5115C24.3416 45.482 24.3783 45.4525 24.4224 45.4229C24.4592 45.3934 24.496 45.3713 24.5254 45.3491C25.0842 44.6182 25.7387 43.9981 26.4813 43.4813C26.5328 43.4517 26.621 43.4 26.7608 43.3262C26.9005 43.2524 27.0402 43.1859 27.1872 43.1343C27.3343 43.0752 27.4299 43.0604 27.4887 43.09C27.5475 43.1195 27.5181 43.2229 27.4005 43.3927C26.7534 44.3155 26.0034 45.1498 25.1357 45.8807C24.768 46.1908 24.393 46.4861 24.0107 46.774C23.7901 46.9364 23.5621 47.0989 23.3342 47.2687C23.3268 47.276 23.3048 47.2908 23.2827 47.313C23.2606 47.3351 23.2312 47.3499 23.2018 47.372C23.1798 47.3942 23.1577 47.4089 23.1283 47.4311C23.1209 47.4385 23.1062 47.4532 23.0842 47.4606V47.4754L23.0695 47.4901C22.9739 47.6452 22.8856 47.8002 22.8121 47.97C22.5033 48.6345 22.3488 49.3285 22.3341 50.052C22.3268 50.8124 22.5253 51.4843 22.9297 52.0528C23.3415 52.6286 23.9371 52.9387 24.7239 52.983C24.9078 52.9756 25.0842 52.9461 25.2534 52.8944C25.2828 52.887 25.3122 52.8723 25.3416 52.8649C25.3489 52.8649 25.3563 52.8649 25.3563 52.8501C25.4592 52.6951 25.5548 52.5474 25.6431 52.3998C25.8269 52.0306 26.0034 51.6689 26.1725 51.2997C26.1799 51.2923 26.1872 51.2776 26.1872 51.2554C26.2166 51.1963 26.2534 51.1373 26.3049 51.0782V47.7116C26.3049 47.5935 26.3563 47.4754 26.4593 47.3499C26.5622 47.2244 26.6652 47.1136 26.7681 47.0176C26.8049 46.966 26.8416 46.9291 26.8711 46.8995C27.2387 46.5008 27.6284 46.1465 28.0549 45.8142C28.0917 45.7847 28.1873 45.7183 28.327 45.6149C28.4741 45.5115 28.6285 45.4008 28.8049 45.2974C28.9814 45.1941 29.1285 45.1202 29.2682 45.0907C29.4006 45.0538 29.4667 45.1055 29.4667 45.2458V51.8091C29.4741 51.8608 29.4814 51.8977 29.4814 51.9273C29.4888 51.9642 29.4961 52.0011 29.5035 52.0306C29.5035 52.0601 29.5182 52.0823 29.5256 52.1044C29.6726 52.6139 29.9815 52.9756 30.4594 53.1897C30.7682 53.2857 31.0918 53.3226 31.4227 53.3078H34.2169C34.3345 53.3078 34.364 53.3669 34.3198 53.485C34.2684 53.6032 34.1875 53.7508 34.0625 53.9132C33.9375 54.0757 33.8125 54.2233 33.6875 54.3636C33.5625 54.4965 33.4816 54.5851 33.4448 54.622C33.0698 54.9985 32.6654 55.3381 32.2242 55.6482C32.2021 55.6556 32.1801 55.6704 32.1506 55.6925C32.0477 55.7663 31.9153 55.8549 31.7536 55.9509C31.5918 56.0469 31.4594 56.0986 31.3418 56.0986H28.3858C27.8784 56.0986 27.4373 55.9804 27.0622 55.7516C26.6872 55.5227 26.4446 55.1462 26.3416 54.622Z" fill="url(#paint1_linear_2528_1145)"/>
<path d="M49.4158 54.621C49.0335 54.9975 48.6217 55.3371 48.1805 55.6472C48.1585 55.6546 48.1438 55.6694 48.1217 55.6915C48.004 55.7653 47.8717 55.8539 47.7173 55.9499C47.5628 56.0459 47.4305 56.0976 47.3128 56.0976H46.0996C45.4819 56.1049 44.8789 56.1049 44.2686 56.0976C43.7245 56.0754 43.2759 55.9204 42.923 55.6177C42.57 55.3224 42.3789 54.9015 42.3421 54.3626C42.3347 54.3552 42.3274 54.3404 42.3274 54.3183C42.3347 53.5579 42.3347 52.79 42.3274 52.0222V51.69C42.3274 51.439 42.3274 51.1806 42.3421 50.9222C42.3789 50.2282 42.3494 49.549 42.2539 48.8845C42.1656 48.4046 41.9744 47.9986 41.6729 47.6737C41.3715 47.3489 40.967 47.1864 40.467 47.1717C40.3935 47.1717 40.3126 47.1717 40.2391 47.1864C40.1802 47.275 40.1214 47.3636 40.0626 47.4596C40.0626 47.6516 40.0626 47.8435 40.0479 48.0355C40.0479 48.2127 40.0479 48.3751 40.0332 48.5449C40.0332 49.3644 40.0332 50.1913 40.0185 51.0181C40.0185 51.845 40.0185 52.6719 40.0038 53.4914C39.9964 53.6095 39.9376 53.7277 39.842 53.8532C39.7464 53.9787 39.6435 54.0968 39.5405 54.2002C39.5038 54.2371 39.467 54.274 39.4376 54.3035C39.0699 54.7022 38.6802 55.064 38.2537 55.3888C38.217 55.4183 38.1214 55.4848 37.9816 55.5881C37.8346 55.6915 37.6802 55.8022 37.5037 55.9056C37.3272 56.009 37.1802 56.0828 37.0478 56.1049C36.9154 56.1345 36.8493 56.0902 36.8419 55.972C36.8493 54.6874 36.864 53.4102 36.8713 52.1403C36.8713 51.8524 36.8713 51.5645 36.886 51.2692C36.9522 50.4497 36.9228 49.6523 36.7978 48.8697C36.7095 48.3898 36.5184 47.9838 36.2169 47.6589C35.9154 47.3341 35.511 47.1717 35.011 47.1569C34.9374 47.1569 34.8639 47.1569 34.7977 47.1717C34.7757 47.2012 34.761 47.2234 34.7389 47.2455C34.7315 47.2677 34.7168 47.2824 34.7095 47.3046V53.6834C34.7095 53.7867 34.658 53.9049 34.5551 54.0304C34.4521 54.1559 34.3492 54.274 34.2462 54.3774C34.2095 54.4143 34.1727 54.4512 34.1433 54.4807C33.7756 54.8794 33.3859 55.2411 32.9594 55.566C32.9227 55.5955 32.8271 55.662 32.6874 55.7653C32.5403 55.8687 32.3859 55.9794 32.2094 56.0828C32.0329 56.1862 31.8859 56.26 31.7461 56.2895C31.6138 56.3264 31.5476 56.2747 31.5476 56.1492V46.7213C31.5476 46.6032 31.5991 46.4851 31.702 46.3596C31.805 46.234 31.9079 46.1233 32.0109 46.0273C32.0476 45.9757 32.0844 45.9387 32.1138 45.9092C32.4815 45.5105 32.8712 45.1562 33.2977 44.8239C33.3344 44.7944 33.43 44.7279 33.5697 44.6246C33.7168 44.5212 33.8712 44.4105 34.055 44.3071C34.2315 44.2038 34.3859 44.1299 34.5183 44.1004C34.6507 44.0635 34.7095 44.1152 34.7095 44.2554V45.9018C34.9815 45.6803 35.2536 45.4736 35.5477 45.2817C36.0845 44.8978 36.6948 44.6098 37.386 44.4252C38.0699 44.2407 38.7023 44.3736 39.2832 44.8313C39.6288 45.1709 39.8494 45.5844 39.945 46.0716C40.2832 45.7837 40.6288 45.5179 40.9965 45.2743C41.5332 44.8904 42.1435 44.6024 42.8347 44.4179C43.5186 44.2333 44.151 44.3662 44.7172 44.8239C45.1142 45.2078 45.3495 45.6877 45.4231 46.2488C45.4966 46.8099 45.526 47.371 45.4966 47.9321C45.4893 48.0945 45.4819 48.257 45.4819 48.412V49.8738C45.4893 50.5087 45.4893 51.151 45.4819 51.8007C45.4893 51.8007 45.4966 51.8007 45.4966 51.8155V51.8746C45.4966 51.8746 45.5113 51.9336 45.5187 51.9705C45.5187 52.0075 45.5334 52.037 45.5407 52.0665C45.5995 52.2806 45.6951 52.48 45.8275 52.6571C46.1805 53.1001 46.7393 53.3142 47.4967 53.2921H50.1879C50.3056 53.2921 50.335 53.3511 50.2835 53.4693C50.2321 53.5874 50.1438 53.735 50.0188 53.8975C49.8938 54.0599 49.7688 54.2075 49.6512 54.3478C49.5335 54.4807 49.4526 54.5693 49.4158 54.6062V54.621Z" fill="url(#paint2_linear_2528_1145)"/>
<path d="M54.5997 54.622C54.5409 54.2676 54.5262 53.8985 54.5556 53.5219V53.3595C53.8644 54.0314 53.0849 54.622 52.2246 55.124C51.6952 55.4341 51.129 55.6261 50.5334 55.6999C49.9304 55.7737 49.3789 55.6999 48.8716 55.471C48.3642 55.2422 47.9745 54.8066 47.7024 54.1716C47.3862 53.2783 47.3421 52.3702 47.5774 51.4547C47.8127 50.5393 48.2098 49.7124 48.7686 48.9667C49.5922 47.9257 50.5481 47.0029 51.6216 46.2055C51.8643 46.021 52.0996 45.8438 52.3423 45.674C52.379 45.6444 52.4158 45.6223 52.4452 45.6001C52.4673 45.5928 52.504 45.5632 52.5629 45.5115C52.5996 45.482 52.6364 45.4525 52.6805 45.4229C52.7246 45.3934 52.754 45.3713 52.7834 45.3491C53.3423 44.6182 53.9967 43.9981 54.7394 43.4813C54.7835 43.4517 54.8791 43.4 55.0188 43.3262C55.1585 43.2524 55.2982 43.1859 55.4453 43.1343C55.5924 43.0752 55.688 43.0604 55.7468 43.09C55.8056 43.1195 55.7762 43.2229 55.6585 43.3927C55.0115 44.3155 54.2614 45.1498 53.3938 45.8807C53.0261 46.1908 52.6511 46.4861 52.2687 46.774C52.0481 46.9364 51.8202 47.0989 51.5922 47.2687C51.5849 47.276 51.5628 47.2908 51.5408 47.313C51.5187 47.3351 51.4893 47.3499 51.4599 47.372C51.4378 47.3942 51.4158 47.4089 51.3863 47.4311C51.379 47.4385 51.3643 47.4532 51.3422 47.4606V47.4754L51.3275 47.4901C51.2319 47.6452 51.1437 47.8002 51.0701 47.97C50.7613 48.6345 50.6069 49.3285 50.5922 50.052C50.5848 50.8124 50.7834 51.4843 51.1878 52.0528C51.5922 52.6286 52.1952 52.9387 52.982 52.983C53.1658 52.9756 53.3423 52.9461 53.5114 52.8944C53.5408 52.887 53.5702 52.8723 53.5996 52.8649C53.607 52.8649 53.6144 52.8649 53.6144 52.8501C53.7173 52.6951 53.8129 52.5474 53.9011 52.3998C54.085 52.0306 54.2614 51.6689 54.4306 51.2997C54.4379 51.2923 54.4453 51.2776 54.4453 51.2554C54.4747 51.1963 54.5114 51.1373 54.5629 51.0782V47.7116C54.5629 47.5935 54.6144 47.4754 54.7173 47.3499C54.8203 47.2244 54.9232 47.1136 55.0262 47.0176C55.0629 46.966 55.0997 46.9291 55.1291 46.8995C55.4968 46.5008 55.8865 46.1465 56.313 45.8142C56.3497 45.7847 56.4453 45.7183 56.585 45.6149C56.7321 45.5115 56.8865 45.4008 57.063 45.2974C57.2395 45.1941 57.3865 45.1202 57.5263 45.0907C57.6586 45.0538 57.7248 45.1055 57.7248 45.2458V51.8091C57.7321 51.8608 57.7395 51.8977 57.7395 51.9273C57.7468 51.9642 57.7542 52.0011 57.7616 52.0306C57.7616 52.0601 57.7763 52.0823 57.7836 52.1044C57.9307 52.6139 58.2395 52.9756 58.7175 53.1897C59.0263 53.2857 59.3425 53.3226 59.6807 53.3078H62.4749C62.5926 53.3078 62.622 53.3669 62.5779 53.485C62.5264 53.6032 62.4455 53.7508 62.3205 53.9132C62.1955 54.0757 62.0705 54.2233 61.9455 54.3636C61.8205 54.4965 61.7396 54.5851 61.7029 54.622C61.3279 54.9985 60.9234 55.3381 60.4822 55.6482C60.4602 55.6556 60.4381 55.6704 60.4087 55.6925C60.3058 55.7663 60.1734 55.8549 60.0116 55.9509C59.8499 56.0469 59.7175 56.0986 59.5999 56.0986H56.6439C56.1365 56.0986 55.6953 55.9804 55.3203 55.7516C54.9453 55.5227 54.7026 55.1462 54.5997 54.622Z" fill="url(#paint3_linear_2528_1145)"/>
<path d="M59.9013 50.3175C59.9087 50.2806 59.9161 50.2437 59.9161 50.1994C59.9528 49.4094 60.1146 48.649 60.4087 47.9255C60.6808 47.3939 61.0337 46.914 61.4676 46.4711C61.9014 46.0355 62.3573 45.6368 62.8279 45.275C63.2029 44.9871 63.5926 44.7287 64.0118 44.5072C64.4236 44.2857 64.8647 44.1381 65.3354 44.0716C65.703 44.0199 66.056 44.0273 66.4016 44.0864C66.3795 42.5508 66.3648 41.0225 66.3574 39.4869C66.3648 39.3835 66.4163 39.2654 66.5192 39.1399C66.6148 39.0144 66.7178 38.8962 66.8207 38.7929C66.8575 38.756 66.8942 38.7191 66.9236 38.6895C67.2913 38.2908 67.681 37.9291 68.1075 37.6042C68.1443 37.5747 68.2399 37.5083 68.3796 37.3975C68.5266 37.2868 68.681 37.176 68.8575 37.0727C69.034 36.9693 69.1811 36.8955 69.3134 36.8733C69.4458 36.8438 69.512 36.8955 69.5193 37.021C69.5414 39.4869 69.5634 41.9601 69.5928 44.4408C69.6223 46.8919 69.6443 49.343 69.6664 51.8015C69.6737 51.831 69.6811 51.8532 69.6811 51.8753C69.6884 51.9122 69.6958 51.9491 69.7031 51.9861C69.7031 52.023 69.7179 52.0451 69.7252 52.0673C69.784 52.2888 69.8723 52.4881 69.9973 52.6727C70.3502 53.1083 70.8208 53.315 71.3944 53.2928C71.99 53.3002 72.5856 53.3002 73.1812 53.2928H74.0856C74.2033 53.2928 74.2327 53.3593 74.1812 53.4774C74.1298 53.6029 74.0415 53.7432 73.9165 53.9056C73.7915 54.068 73.6665 54.2157 73.5489 54.356C73.4312 54.4962 73.3503 54.5848 73.3136 54.6217C72.9312 54.9983 72.5194 55.3379 72.0782 55.6332C72.0562 55.6553 72.0341 55.6701 72.0047 55.6923C71.9017 55.7661 71.7694 55.8547 71.615 55.9433C71.4606 56.0319 71.3282 56.0836 71.2105 56.0836C70.9017 56.0836 70.5929 56.0836 70.2914 56.0983C69.6737 56.1057 69.0708 56.0983 68.4605 56.0836C67.3722 56.0466 66.7325 55.5225 66.5339 54.5184C66.0927 54.858 65.6221 55.1533 65.1221 55.4117C64.7103 55.6406 64.2765 55.8178 63.8206 55.9359C63.3647 56.054 62.9014 56.054 62.4308 55.9359C61.747 55.7218 61.2029 55.3526 60.7837 54.8285C60.3646 54.3043 60.0925 53.6915 59.9675 52.9975C59.8205 52.1042 59.8058 51.2035 59.9234 50.3101L59.9013 50.3175ZM66.3574 48.5013C65.8942 48.1174 65.4015 47.7631 64.8721 47.453C64.3427 47.1429 63.7765 46.9436 63.1735 46.8697C63.0559 47.6228 62.997 48.3758 62.9897 49.1437C62.9823 49.845 63.1 50.5243 63.3426 51.1666C63.5853 51.8163 64.0044 52.3478 64.5853 52.7686C65.1589 53.1821 65.7986 53.3297 66.4898 53.2042C66.4824 51.6538 66.4677 50.1034 66.4457 48.5456C66.4163 48.5383 66.3869 48.5235 66.3574 48.5013Z" fill="url(#paint4_linear_2528_1145)"/>
<path d="M78.7256 54.622C78.6668 54.2676 78.6521 53.8985 78.6815 53.5219V53.3595C77.9903 54.0314 77.2109 54.622 76.3506 55.124C75.8211 55.4341 75.2549 55.6261 74.6593 55.6999C74.0564 55.7737 73.5049 55.6999 72.9975 55.471C72.4902 55.2422 72.1004 54.8066 71.8284 54.1716C71.5122 53.2783 71.4681 52.3702 71.7034 51.4547C71.9387 50.5393 72.3357 49.7124 72.8946 48.9667C73.7181 47.9257 74.6741 47.0029 75.7476 46.2055C75.9903 46.021 76.2256 45.8438 76.4682 45.674C76.505 45.6444 76.5418 45.6223 76.5712 45.6001C76.5932 45.5928 76.63 45.5632 76.6888 45.5115C76.7256 45.482 76.7623 45.4525 76.8065 45.4229C76.8506 45.3934 76.88 45.3713 76.9094 45.3491C77.4683 44.6182 78.1227 43.9981 78.8654 43.4813C78.9095 43.4517 79.0051 43.4 79.1448 43.3262C79.2845 43.2524 79.4242 43.1859 79.5713 43.1343C79.7183 43.0752 79.8139 43.0604 79.8728 43.09C79.9316 43.1195 79.9022 43.2229 79.7845 43.3927C79.1374 44.3155 78.3874 45.1498 77.5197 45.8807C77.1521 46.1908 76.7771 46.4861 76.3947 46.774C76.1741 46.9364 75.9461 47.0989 75.7182 47.2687C75.7108 47.276 75.6888 47.2908 75.6667 47.313C75.6447 47.3351 75.6153 47.3499 75.5858 47.372C75.5638 47.3942 75.5417 47.4089 75.5123 47.4311C75.505 47.4385 75.4903 47.4532 75.4682 47.4606V47.4754L75.4535 47.4901C75.3579 47.6452 75.2697 47.8002 75.1961 47.97C74.8873 48.6345 74.7329 49.3285 74.7182 50.052C74.7108 50.8124 74.9093 51.4843 75.3138 52.0528C75.7182 52.6286 76.3212 52.9387 77.108 52.983C77.2918 52.9756 77.4683 52.9461 77.6374 52.8944C77.6668 52.887 77.6962 52.8723 77.7256 52.8649C77.733 52.8649 77.7403 52.8649 77.7403 52.8501C77.8433 52.6951 77.9389 52.5474 78.0271 52.3998C78.2109 52.0306 78.3874 51.6689 78.5565 51.2997C78.5639 51.2923 78.5712 51.2776 78.5712 51.2554C78.6007 51.1963 78.6374 51.1373 78.6889 51.0782V47.7116C78.6889 47.5935 78.7404 47.4754 78.8433 47.3499C78.9462 47.2244 79.0492 47.1136 79.1521 47.0176C79.1889 46.966 79.2257 46.9291 79.2551 46.8995C79.6227 46.5008 80.0125 46.1465 80.4389 45.8142C80.4757 45.7847 80.5713 45.7183 80.711 45.6149C80.8581 45.5115 81.0125 45.4008 81.189 45.2974C81.3654 45.1941 81.5125 45.1202 81.6522 45.0907C81.7846 45.0538 81.8508 45.1055 81.8508 45.2458V51.8091C81.8581 51.8608 81.8655 51.8977 81.8655 51.9273C81.8728 51.9642 81.8802 52.0011 81.8875 52.0306C81.8875 52.0601 81.9022 52.0823 81.9096 52.1044C82.0566 52.6139 82.3655 52.9756 82.8434 53.1897C83.1523 53.2857 83.4685 53.3226 83.8067 53.3078H86.6009C86.7186 53.3078 86.748 53.3669 86.7039 53.485C86.6524 53.6032 86.5715 53.7508 86.4465 53.9132C86.3215 54.0757 86.1965 54.2233 86.0715 54.3636C85.9465 54.4965 85.8656 54.5851 85.8288 54.622C85.4538 54.9985 85.0494 55.3381 84.6082 55.6482C84.5861 55.6556 84.5641 55.6704 84.5347 55.6925C84.4317 55.7663 84.2994 55.8549 84.1376 55.9509C83.9758 56.0469 83.8435 56.0986 83.7258 56.0986H80.7698C80.2625 56.0986 79.8213 55.9804 79.4463 55.7516C79.0713 55.5227 78.8286 55.1462 78.7256 54.622Z" fill="url(#paint5_linear_2528_1145)"/>
<path d="M89.2774 54.378V50.9376C89.3288 50.2436 89.2994 49.5644 89.1891 48.8999C89.1009 48.4274 88.9097 48.0288 88.6082 47.7039C88.3068 47.3791 87.9023 47.2093 87.4023 47.1871C87.3288 47.1871 87.2553 47.1945 87.1891 47.2166C87.167 47.2388 87.1523 47.2609 87.1302 47.2905C87.1229 47.2978 87.1082 47.3126 87.1008 47.3348V53.7136C87.1008 53.8169 87.0494 53.935 86.9464 54.0679C86.8435 54.2008 86.7405 54.3116 86.6376 54.4075C86.6008 54.4445 86.5641 54.4814 86.5346 54.5257C86.167 54.9096 85.7773 55.2713 85.3508 55.611C85.314 55.6405 85.2184 55.7069 85.0787 55.8103C84.9316 55.9137 84.7772 56.0244 84.6007 56.1278C84.4243 56.2311 84.2772 56.3049 84.1375 56.3345C84.0051 56.3714 83.939 56.3197 83.939 56.1794V46.7515C83.939 46.6482 83.9904 46.53 84.1007 46.3971C84.2037 46.2642 84.3066 46.1535 84.4022 46.0575C84.439 46.0206 84.4757 45.9837 84.5052 45.9394C84.8728 45.5555 85.2625 45.1937 85.689 44.8689C85.7258 44.832 85.8214 44.7581 85.9611 44.6548C86.1082 44.5514 86.2626 44.4407 86.4464 44.3373C86.6229 44.234 86.7773 44.1601 86.9096 44.138C87.042 44.1085 87.1008 44.1601 87.1008 44.2856V45.932C87.3729 45.7105 87.645 45.5038 87.9391 45.3119C88.4759 44.9279 89.0862 44.6474 89.7774 44.4628C90.4612 44.2856 91.0936 44.4185 91.6745 44.8763C92.0716 45.2528 92.2995 45.7253 92.3731 46.2938C92.4466 46.8623 92.4687 47.4234 92.4392 47.9697V51.8309C92.4392 51.8309 92.4392 51.8826 92.454 51.9048C92.454 51.9343 92.4539 51.9712 92.4687 52.0081C92.476 52.045 92.4834 52.0746 92.4834 52.0967C92.5422 52.3182 92.6378 52.5175 92.7701 52.7021C93.1231 53.1377 93.6893 53.3444 94.454 53.3223C95.0496 53.3296 95.6452 53.3296 96.2408 53.3223H97.1306C97.2482 53.3223 97.2776 53.3813 97.2335 53.4995C97.1894 53.6176 97.1012 53.7652 96.9762 53.9277C96.8512 54.0901 96.7262 54.2451 96.6085 54.3854C96.4909 54.5257 96.4026 54.6069 96.3585 54.6364C95.9835 55.0129 95.5791 55.3526 95.1379 55.6626C95.1158 55.6848 95.0937 55.6996 95.0643 55.7069C94.9614 55.7955 94.829 55.8841 94.6673 55.9727C94.5055 56.0613 94.3731 56.113 94.2555 56.113C93.7555 56.113 93.3584 56.113 93.0569 56.1278C92.4392 56.1278 91.8289 56.1278 91.2113 56.113C90.6745 56.1056 90.2259 55.9506 89.8803 55.6479C89.5274 55.3526 89.3288 54.9243 89.2847 54.378H89.2774Z" fill="url(#paint6_linear_2528_1145)"/>
<path d="M101.823 50.3753C100.889 50.4712 100.087 50.2867 99.4036 49.8142C98.7197 49.3417 98.205 48.7067 97.8594 47.902C97.5138 47.1047 97.3741 46.2704 97.4403 45.414C97.602 44.1515 98.08 43.0145 98.8668 42.0031C99.9918 40.5487 101.352 39.36 102.94 38.4445C103.565 38.0902 104.271 37.7949 105.051 37.566C105.83 37.3371 106.617 37.2485 107.396 37.2854C108.176 37.3224 108.889 37.5734 109.522 38.0237C109.985 38.4003 110.286 38.8506 110.441 39.3822C110.845 38.9983 111.301 38.6144 111.816 38.2231C112.33 37.8392 112.867 37.5955 113.419 37.4995C113.764 37.4479 114.139 37.47 114.536 37.5586C114.933 37.6472 115.294 37.7579 115.625 37.9056C116.228 38.1788 116.669 38.6217 116.934 39.2345C116.97 39.3231 117.007 39.4117 117.037 39.5077C117.36 39.2124 117.691 38.9244 118.029 38.6513C118.323 38.4224 118.64 38.2009 118.956 37.9942C119.279 37.7875 119.617 37.6324 119.985 37.5217C120.456 37.4479 120.934 37.4774 121.412 37.6251H121.47C121.912 37.721 122.316 37.8761 122.691 38.0902C123.059 38.3043 123.353 38.6144 123.573 39.0278C123.919 39.7808 124.118 40.5782 124.176 41.4125C124.353 43.0441 124.419 44.6757 124.39 46.3147V47.2375C124.397 47.9094 124.404 48.5886 124.404 49.2605C124.404 49.9323 124.404 50.6041 124.419 51.2686C124.419 51.7116 124.412 52.1545 124.39 52.5975C124.36 53.1955 124.353 53.7935 124.375 54.3915C124.382 54.9157 124.463 55.4251 124.618 55.9346C124.772 56.444 125.029 56.887 125.397 57.2709C126.162 58.0608 127.096 58.4004 128.191 58.2823C128.265 58.2749 128.309 58.2823 128.324 58.3266C128.331 58.3635 128.324 58.4152 128.309 58.4743C128.287 58.5333 128.272 58.5776 128.25 58.6219C128.243 58.6293 128.235 58.6441 128.235 58.6515C128.059 58.9468 127.838 59.2199 127.559 59.4636C127.507 59.5153 127.463 59.5595 127.412 59.6112C127.029 59.9878 126.618 60.3274 126.177 60.6374C126.169 60.6448 126.154 60.6596 126.132 60.667C126.015 60.7556 125.882 60.8442 125.735 60.9254C125.588 61.014 125.441 61.0657 125.309 61.0878C124.125 61.2133 123.11 60.8589 122.257 60.0173C121.904 59.6186 121.647 59.1756 121.493 58.6736C121.338 58.1716 121.25 57.6622 121.22 57.138C121.191 56.5104 121.198 55.8903 121.235 55.2701C121.243 54.9305 121.257 54.5983 121.265 54.2586C121.265 53.417 121.265 52.5754 121.25 51.7263C121.25 51.3203 121.25 50.9142 121.235 50.5082V49.2235C121.265 47.7396 121.228 46.2556 121.118 44.7864C121.081 43.9743 120.941 43.1696 120.691 42.3649C120.448 41.5601 119.934 40.9769 119.14 40.6077C118.662 40.4232 118.162 40.3198 117.639 40.2903H117.456L117.441 40.305C117.441 40.305 117.419 40.3272 117.412 40.3346C117.389 40.3567 117.375 40.3789 117.353 40.4084C117.331 40.4305 117.316 40.4453 117.294 40.4527C117.478 41.4198 117.573 42.3796 117.581 43.332V43.3763C117.684 46.0637 117.72 48.7584 117.684 51.4458V55.0634C117.684 55.1815 117.632 55.2996 117.529 55.4251C117.426 55.5507 117.323 55.6614 117.22 55.7574C117.184 55.7943 117.147 55.8312 117.117 55.8755C116.75 56.2594 116.36 56.6212 115.934 56.946C115.897 56.9829 115.801 57.0568 115.661 57.1601C115.514 57.2635 115.36 57.3742 115.184 57.4776C115.007 57.5809 114.86 57.6548 114.728 57.6769C114.595 57.6991 114.529 57.6548 114.522 57.5293C114.514 55.6392 114.5 53.7419 114.492 51.8445C114.492 51.4679 114.492 51.0914 114.478 50.7149V49.4598C114.485 48.3302 114.478 47.2006 114.433 46.0784C114.411 45.4435 114.367 44.8086 114.301 44.1663C114.235 43.5313 114.103 42.9112 113.911 42.3132C113.669 41.6413 113.294 41.1467 112.772 40.844C112.25 40.5413 111.654 40.3567 110.97 40.2903C110.933 40.2903 110.875 40.2903 110.794 40.305H110.676C110.676 40.305 110.639 40.3272 110.632 40.3493C110.625 40.3567 110.61 40.3715 110.602 40.3789C110.632 40.6889 110.647 40.9843 110.647 41.2722C110.654 42.3206 110.654 43.3689 110.647 44.4099V55.1667C110.639 55.2849 110.58 55.403 110.485 55.5211C110.389 55.6392 110.286 55.7574 110.183 55.8607C110.147 55.8976 110.11 55.9346 110.08 55.9789C109.713 56.3628 109.323 56.7245 108.897 57.0494C108.86 57.0863 108.764 57.1601 108.624 57.2635C108.477 57.3668 108.323 57.4776 108.139 57.5809C107.963 57.6843 107.808 57.7581 107.683 57.7803C107.558 57.8098 107.492 57.7581 107.485 57.6326V44.2844C107.507 43.7602 107.485 43.2434 107.419 42.7266C107.352 42.2098 107.176 41.7373 106.882 41.3017C106.485 40.7702 105.977 40.4232 105.352 40.246C104.727 40.0688 104.08 40.0245 103.404 40.0909C102.727 40.1648 102.11 40.3124 101.551 40.5339C101.543 40.5413 101.507 40.5634 101.455 40.5856C101.404 40.6077 101.337 40.6446 101.264 40.6816C101.168 40.8366 101.087 40.9916 101.021 41.1614C100.58 42.1286 100.433 43.1401 100.587 44.1958C100.779 45.1777 101.249 46.012 101.992 46.6838C102.735 47.3557 103.624 47.651 104.646 47.5624C104.72 47.555 104.771 47.5624 104.786 47.6067C104.801 47.6436 104.801 47.6953 104.786 47.7543C104.764 47.8134 104.742 47.8577 104.713 47.902C104.713 47.9094 104.713 47.9241 104.698 47.9315C104.536 48.2416 104.315 48.5074 104.036 48.7437C103.977 48.7953 103.926 48.8396 103.874 48.8913C103.499 49.2678 103.095 49.6074 102.654 49.9175C102.632 49.9249 102.617 49.9397 102.595 49.9471C102.477 50.0357 102.352 50.1242 102.205 50.2055C102.058 50.2941 101.918 50.3457 101.771 50.3679L101.823 50.3753ZM100.999 40.8588C100.962 40.8661 100.94 40.8809 100.94 40.8883C100.948 40.8883 100.97 40.8809 100.999 40.8588Z" fill="url(#paint7_linear_2528_1145)"/>
<path d="M137.412 55.8981C137.103 55.8981 136.794 55.8981 136.493 55.9129C135.89 55.9203 135.28 55.9129 134.662 55.8981C134.14 55.8907 133.713 55.7431 133.368 55.4699C133.022 55.1968 132.809 54.8128 132.736 54.3182C132.463 54.5397 132.184 54.7538 131.883 54.9531C131.353 55.3296 130.75 55.6102 130.059 55.7948C129.375 55.9793 128.743 55.8464 128.162 55.3887C127.765 55.0048 127.529 54.5249 127.456 53.949C127.382 53.3732 127.36 52.8121 127.397 52.251V47.5333C127.404 47.4152 127.456 47.2971 127.559 47.1716C127.654 47.0461 127.757 46.9353 127.86 46.8393C127.897 46.8024 127.934 46.7655 127.963 46.7212C128.331 46.3373 128.721 45.9756 129.147 45.6507C129.184 45.6138 129.28 45.54 129.419 45.4366C129.566 45.3332 129.721 45.2225 129.905 45.1191C130.081 45.0158 130.235 44.942 130.368 44.9198C130.5 44.8903 130.559 44.942 130.559 45.0675V48.3233C130.559 48.5965 130.559 48.8696 130.544 49.165C130.493 49.918 130.53 50.6489 130.647 51.365C130.735 51.8449 130.927 52.251 131.221 52.5758C131.515 52.9007 131.919 53.0631 132.434 53.0779C132.508 53.0779 132.581 53.0779 132.647 53.0631C132.669 53.0336 132.684 53.0114 132.706 52.9893C132.713 52.9671 132.728 52.9524 132.736 52.945V46.5514C132.736 46.4481 132.787 46.3299 132.89 46.2044C132.993 46.0789 133.096 45.9608 133.199 45.8574C133.236 45.8205 133.272 45.7836 133.302 45.7541C133.669 45.3554 134.059 45.001 134.486 44.6688C134.522 44.6393 134.618 44.5728 134.758 44.4694C134.905 44.3661 135.059 44.2553 135.236 44.152C135.412 44.0486 135.559 43.9748 135.699 43.9453C135.831 43.9084 135.897 43.96 135.897 44.0855V51.7047C135.905 51.7416 135.912 51.7785 135.919 51.8154C135.919 51.8523 135.934 51.8818 135.942 51.9114C136 52.1255 136.096 52.3248 136.228 52.502C136.581 52.945 137.044 53.1517 137.611 53.1222C138.206 53.1296 138.809 53.1296 139.412 53.1222H140.302C140.42 53.1222 140.449 53.1886 140.398 53.3067C140.346 53.4323 140.258 53.5799 140.133 53.7423C140.008 53.9048 139.883 54.0524 139.765 54.1927C139.648 54.3256 139.567 54.4142 139.53 54.4511C139.147 54.8276 138.736 55.1672 138.302 55.4625C138.272 55.4847 138.25 55.4995 138.228 55.5216C138.111 55.5954 137.978 55.684 137.824 55.7726C137.67 55.8612 137.537 55.9129 137.419 55.9129L137.412 55.8981Z" fill="url(#paint8_linear_2528_1145)"/>
<path d="M139.736 37.4481C139.772 37.4186 139.868 37.3521 140.008 37.2488C140.155 37.1454 140.309 37.0346 140.493 36.9313C140.67 36.8279 140.824 36.7541 140.956 36.7246C141.089 36.6876 141.148 36.7393 141.148 36.8648C141.14 38.275 141.125 39.6777 141.118 41.0731C141.111 42.4832 141.096 43.8859 141.074 45.2961C141.677 44.8531 142.317 44.4913 142.986 44.2182C143.655 43.945 144.339 43.8416 145.052 43.9229C145.714 43.9893 146.28 44.2551 146.751 44.7202C147.008 45.0081 147.192 45.3404 147.287 45.7021C147.39 46.0713 147.457 46.4404 147.493 46.8169C147.611 47.6143 147.662 48.419 147.655 49.2238C147.648 50.0285 147.471 50.8037 147.126 51.542C147.177 51.5641 147.199 51.6084 147.199 51.6749C147.199 51.6527 147.199 51.6453 147.199 51.6527C147.199 51.6601 147.199 51.6675 147.199 51.6823C147.199 51.697 147.199 51.7118 147.199 51.7339C147.207 51.7708 147.221 51.8078 147.229 51.8521C147.236 51.889 147.243 51.9259 147.243 51.9554C147.317 52.2064 147.442 52.4353 147.618 52.6346C148.001 53.0112 148.471 53.181 149.015 53.1441H151.957C152.074 53.1441 152.104 53.2105 152.052 53.3286C152.001 53.4541 151.913 53.6018 151.788 53.7642C151.663 53.9266 151.538 54.0743 151.42 54.2146C151.302 54.3475 151.221 54.4361 151.185 54.473C150.802 54.8495 150.39 55.1891 149.949 55.4844C149.927 55.5066 149.913 55.5213 149.89 55.5435C149.773 55.6173 149.64 55.7059 149.486 55.7945C149.332 55.8831 149.199 55.9348 149.082 55.9348C148.743 55.9348 148.412 55.9348 148.074 55.9495C147.39 55.9495 146.714 55.9495 146.045 55.9348C145.104 55.9274 144.471 55.5361 144.155 54.7609C143.589 55.1965 142.971 55.5213 142.295 55.7428C141.471 55.9643 140.692 55.8757 139.964 55.4844C139.736 55.6838 139.5 55.8831 139.258 56.0751C139.221 56.1046 139.125 56.171 138.986 56.2744C138.839 56.3778 138.684 56.4885 138.5 56.5919C138.324 56.6952 138.169 56.769 138.044 56.7986C137.919 56.8355 137.853 56.7838 137.846 56.6583C137.875 53.779 137.897 50.8923 137.919 48.013C137.949 45.1189 137.971 42.2248 137.993 39.3381C138 39.2347 138.059 39.1166 138.162 38.9911C138.265 38.8656 138.361 38.7475 138.456 38.6441C138.493 38.6072 138.53 38.5703 138.559 38.5408C138.927 38.1421 139.317 37.7803 139.743 37.4555L139.736 37.4481ZM142.728 46.8465C142.192 46.6545 141.633 46.6176 141.059 46.7283C141.052 48.2345 141.037 49.7332 141.03 51.2393C141.037 51.2393 141.052 51.2393 141.059 51.254C141.662 51.8299 142.331 52.3172 143.059 52.7159C143.427 52.9078 143.809 53.0259 144.214 53.0776H144.331V53.0628C144.354 53.0112 144.368 52.9669 144.376 52.9152C144.537 52.0957 144.574 51.2762 144.479 50.4567V50.4124C144.442 49.6889 144.317 48.9875 144.111 48.3157C143.905 47.6438 143.449 47.1492 142.736 46.8391L142.728 46.8465Z" fill="url(#paint9_linear_2528_1145)"/>
<path d="M156.597 54.4443C156.538 54.0899 156.523 53.7207 156.552 53.3442V53.1818C155.861 53.8536 155.082 54.4443 154.221 54.9463C153.692 55.2564 153.126 55.4483 152.53 55.5222C151.927 55.596 151.376 55.5222 150.868 55.2933C150.361 55.0644 149.971 54.6288 149.699 53.9939C149.383 53.1006 149.339 52.1925 149.574 51.277C149.81 50.3615 150.207 49.5347 150.765 48.789C151.589 47.748 152.545 46.8251 153.618 46.0278C153.861 45.8432 154.096 45.666 154.339 45.4962C154.376 45.4667 154.413 45.4446 154.442 45.4224C154.464 45.415 154.501 45.3855 154.56 45.3338C154.596 45.3043 154.633 45.2747 154.677 45.2452C154.721 45.2157 154.751 45.1935 154.78 45.1714C155.339 44.4405 155.994 43.8203 156.736 43.3035C156.78 43.274 156.876 43.2223 157.016 43.1485C157.155 43.0746 157.295 43.0082 157.442 42.9565C157.589 42.8975 157.685 42.8827 157.744 42.9122C157.802 42.9418 157.773 43.0451 157.655 43.2149C157.008 44.1378 156.258 44.972 155.391 45.7029C155.023 46.013 154.648 46.3083 154.266 46.5963C154.045 46.7587 153.817 46.9211 153.589 47.0909C153.582 47.0983 153.56 47.1131 153.538 47.1352C153.516 47.1574 153.486 47.1721 153.457 47.1943C153.435 47.2164 153.413 47.2312 153.383 47.2534C153.376 47.2607 153.361 47.2755 153.339 47.2829V47.2976L153.324 47.3124C153.229 47.4675 153.141 47.6225 153.067 47.7923C152.758 48.4568 152.604 49.1507 152.589 49.8743C152.582 50.6347 152.78 51.3065 153.185 51.875C153.589 52.4509 154.192 52.761 154.979 52.8053C155.163 52.7979 155.339 52.7684 155.508 52.7167C155.538 52.7093 155.567 52.6945 155.596 52.6871C155.604 52.6871 155.611 52.6871 155.611 52.6724C155.714 52.5173 155.81 52.3697 155.898 52.222C156.082 51.8529 156.258 51.4911 156.427 51.122C156.435 51.1146 156.442 51.0998 156.442 51.0777C156.472 51.0186 156.508 50.9596 156.56 50.9005V47.5339C156.56 47.4158 156.611 47.2976 156.714 47.1721C156.817 47.0466 156.92 46.9359 157.023 46.8399C157.06 46.7882 157.097 46.7513 157.126 46.7218C157.494 46.3231 157.883 45.9687 158.31 45.6365C158.347 45.607 158.442 45.5405 158.582 45.4372C158.729 45.3338 158.883 45.2231 159.06 45.1197C159.236 45.0163 159.383 44.9425 159.523 44.913C159.655 44.8761 159.722 44.9277 159.722 45.068V51.6314C159.729 51.6831 159.736 51.72 159.736 51.7495C159.744 51.7864 159.751 51.8233 159.758 51.8529C159.758 51.8824 159.773 51.9046 159.78 51.9267C159.928 52.4361 160.236 52.7979 160.714 53.012C161.023 53.108 161.339 53.1449 161.678 53.1301H164.472C164.589 53.1301 164.619 53.1892 164.575 53.3073C164.523 53.4254 164.442 53.5731 164.317 53.7355C164.192 53.8979 164.067 54.0456 163.942 54.1859C163.817 54.3188 163.736 54.4073 163.7 54.4443C163.325 54.8208 162.92 55.1604 162.479 55.4705C162.457 55.4779 162.435 55.4926 162.406 55.5148C162.303 55.5886 162.17 55.6772 162.008 55.7732C161.847 55.8692 161.714 55.9208 161.597 55.9208H158.641C158.133 55.9208 157.692 55.8027 157.317 55.5738C156.942 55.345 156.699 54.9684 156.597 54.4443Z" fill="url(#paint10_linear_2528_1145)"/>
<path d="M162.405 46.4259C162.773 46.0273 163.163 45.6655 163.589 45.3407C163.626 45.3111 163.722 45.2447 163.861 45.1413C164.008 45.038 164.163 44.9272 164.347 44.8239C164.523 44.7205 164.678 44.6467 164.81 44.6171C164.942 44.5802 165.001 44.6319 165.001 44.7574V46.389C165.464 46.0125 165.957 45.6803 166.486 45.3923C167.185 45.0084 167.891 44.8608 168.597 44.942C169.303 45.0306 169.817 45.4736 170.148 46.2857C170.17 46.3816 170.148 46.4776 170.097 46.5736C170.045 46.6696 169.987 46.7582 169.92 46.832C169.898 46.8615 169.884 46.8837 169.876 46.8911C169.56 47.275 169.214 47.6294 168.839 47.9468C168.803 47.9837 168.692 48.0723 168.516 48.2052C168.339 48.3381 168.141 48.4858 167.92 48.6408C167.7 48.7958 167.501 48.914 167.332 49.0026C167.163 49.0912 167.053 49.0912 167.016 49.0173C166.7 48.0945 166.06 47.6515 165.104 47.6884C165.075 47.7253 165.045 47.7622 165.016 47.8065V50.5087C164.994 50.8852 164.994 51.2617 165.016 51.6382C165.016 51.6456 165.016 51.6678 165.016 51.6899C165.016 51.7121 165.016 51.7342 165.016 51.7416C165.023 51.7638 165.031 51.7785 165.031 51.8007C165.053 51.8671 165.067 51.9336 165.089 52C165.156 52.2141 165.258 52.4061 165.391 52.5759C165.641 52.8564 165.928 53.0188 166.259 53.0779C166.582 53.1296 166.92 53.1444 167.266 53.1296H174.237C174.354 53.1296 174.384 53.1887 174.34 53.3068C174.288 53.4249 174.207 53.5726 174.082 53.735C173.957 53.8974 173.832 54.0451 173.715 54.1853C173.597 54.3182 173.516 54.4068 173.479 54.4437C173.097 54.8203 172.685 55.1599 172.244 55.47C172.222 55.4773 172.2 55.4921 172.17 55.5143C172.068 55.6028 171.935 55.6914 171.781 55.78C171.626 55.8686 171.487 55.9203 171.362 55.9203H164.258C163.972 55.9203 163.685 55.8982 163.398 55.8612C163.111 55.8243 162.854 55.7357 162.619 55.6028C162.383 55.47 162.192 55.2559 162.052 54.9679C161.927 54.6948 161.861 54.4142 161.854 54.1115C161.832 53.6095 161.832 53.1074 161.854 52.5906V47.2381C161.854 47.1199 161.905 47.0018 162.008 46.8763C162.111 46.7508 162.214 46.6327 162.317 46.5293C162.354 46.4924 162.391 46.4555 162.42 46.4259H162.405Z" fill="url(#paint11_linear_2528_1145)"/>
<path d="M178.781 54.4443C178.722 54.0899 178.707 53.7207 178.737 53.3442V53.1818C178.046 53.8536 177.266 54.4443 176.406 54.9463C175.876 55.2564 175.31 55.4483 174.715 55.5222C174.112 55.596 173.56 55.5222 173.053 55.2933C172.545 55.0644 172.156 54.6288 171.884 53.9939C171.567 53.1006 171.523 52.1925 171.759 51.277C171.994 50.3615 172.391 49.5347 172.95 48.789C173.773 47.748 174.729 46.8251 175.803 46.0278C176.045 45.8432 176.281 45.666 176.523 45.4962C176.56 45.4667 176.597 45.4446 176.626 45.4224C176.648 45.415 176.685 45.3855 176.744 45.3338C176.781 45.3043 176.818 45.2747 176.862 45.2452C176.906 45.2157 176.935 45.1935 176.965 45.1714C177.523 44.4405 178.178 43.8203 178.921 43.3035C178.965 43.274 179.06 43.2223 179.2 43.1485C179.34 43.0746 179.479 43.0082 179.626 42.9565C179.774 42.8975 179.869 42.8827 179.928 42.9122C179.987 42.9418 179.957 43.0451 179.84 43.2149C179.193 44.1378 178.443 44.972 177.575 45.7029C177.207 46.013 176.832 46.3083 176.45 46.5963C176.229 46.7587 176.001 46.9211 175.773 47.0909C175.766 47.0983 175.744 47.1131 175.722 47.1352C175.7 47.1574 175.67 47.1721 175.641 47.1943C175.619 47.2164 175.597 47.2312 175.567 47.2534C175.56 47.2607 175.545 47.2755 175.523 47.2829V47.2976L175.509 47.3124C175.413 47.4675 175.325 47.6225 175.251 47.7923C174.942 48.4568 174.788 49.1507 174.773 49.8743C174.766 50.6347 174.965 51.3065 175.369 51.875C175.773 52.4509 176.376 52.761 177.163 52.8053C177.347 52.7979 177.523 52.7684 177.693 52.7167C177.722 52.7093 177.751 52.6945 177.781 52.6871C177.788 52.6871 177.796 52.6871 177.796 52.6724C177.898 52.5173 177.994 52.3697 178.082 52.222C178.266 51.8529 178.443 51.4911 178.612 51.122C178.619 51.1146 178.626 51.0998 178.626 51.0777C178.656 51.0186 178.693 50.9596 178.744 50.9005V47.5339C178.744 47.4158 178.796 47.2976 178.898 47.1721C179.001 47.0466 179.104 46.9359 179.207 46.8399C179.244 46.7882 179.281 46.7513 179.31 46.7218C179.678 46.3231 180.068 45.9687 180.494 45.6365C180.531 45.607 180.626 45.5405 180.766 45.4372C180.913 45.3338 181.068 45.2231 181.244 45.1197C181.421 45.0163 181.568 44.9425 181.707 44.913C181.84 44.8761 181.906 44.9277 181.906 45.068V51.6314C181.913 51.6831 181.921 51.72 181.921 51.7495C181.928 51.7864 181.935 51.8233 181.943 51.8529C181.943 51.8824 181.957 51.9046 181.965 51.9267C182.112 52.4361 182.421 52.7979 182.899 53.012C183.207 53.108 183.524 53.1449 183.862 53.1301H186.656C186.774 53.1301 186.803 53.1892 186.759 53.3073C186.708 53.4254 186.627 53.5731 186.502 53.7355C186.377 53.8979 186.252 54.0456 186.127 54.1859C186.002 54.3188 185.921 54.4073 185.884 54.4443C185.509 54.8208 185.105 55.1604 184.663 55.4705C184.641 55.4779 184.619 55.4926 184.59 55.5148C184.487 55.5886 184.355 55.6772 184.193 55.7732C184.031 55.8692 183.899 55.9208 183.781 55.9208H180.825C180.318 55.9208 179.876 55.8027 179.501 55.5738C179.126 55.345 178.884 54.9684 178.781 54.4443Z" fill="url(#paint12_linear_2528_1145)"/>
<path d="M191.796 55.898C191.318 55.8685 190.848 55.7725 190.392 55.6101C189.936 55.4476 189.532 55.1892 189.186 54.8275C188.811 54.3845 188.487 53.8455 188.208 53.2106C187.921 52.5683 187.576 51.9924 187.186 51.5052C187.179 51.9112 187.171 52.3173 187.171 52.7234C187.171 53.2032 187.171 53.6905 187.157 54.1704C187.149 54.2738 187.09 54.3919 186.995 54.5174C186.899 54.6429 186.796 54.761 186.693 54.8644C186.656 54.9013 186.62 54.9382 186.59 54.9677C186.223 55.3664 185.833 55.7282 185.406 56.053C185.37 56.0826 185.274 56.149 185.134 56.2524C184.987 56.3557 184.833 56.4665 184.649 56.5698C184.473 56.6732 184.318 56.747 184.193 56.7765C184.068 56.8135 184.002 56.7618 183.995 56.6363C184.024 53.7422 184.046 50.8555 184.068 47.9762C184.098 45.0969 184.12 42.2028 184.142 39.3161C184.149 39.2127 184.208 39.0946 184.311 38.9691C184.414 38.8436 184.509 38.7254 184.605 38.6221C184.642 38.5852 184.678 38.5482 184.708 38.5187C185.076 38.12 185.465 37.7583 185.892 37.4334C185.929 37.4039 186.024 37.3375 186.164 37.2341C186.311 37.1307 186.465 37.02 186.649 36.9166C186.826 36.8133 186.98 36.7394 187.112 36.7099C187.245 36.673 187.304 36.7247 187.304 36.8502C187.296 38.3341 187.282 39.8181 187.274 41.2873C187.252 42.7639 187.237 44.2404 187.23 45.7244C187.348 45.5324 187.458 45.3405 187.561 45.1485C187.715 44.8385 187.862 44.521 188.009 44.1961C188.259 43.5538 188.568 42.9706 188.943 42.4464C189.318 41.9222 189.87 41.6195 190.598 41.5235C190.723 41.5162 190.855 41.5457 190.988 41.6195C191.12 41.6934 191.245 41.7672 191.363 41.841C191.414 41.8705 191.451 41.8927 191.495 41.9148C191.943 42.2028 192.37 42.5276 192.774 42.882C192.811 42.9041 192.899 42.9706 193.024 43.0961C193.157 43.2216 193.289 43.3619 193.429 43.5243C193.568 43.6867 193.664 43.8196 193.723 43.9451C193.782 44.0633 193.745 44.1371 193.62 44.1518C192.966 44.2478 192.465 44.5579 192.105 45.0821C191.752 45.6063 191.458 46.1821 191.23 46.8097C191.076 47.1936 190.914 47.548 190.738 47.8654C190.576 48.1607 190.399 48.4487 190.208 48.7218C190.627 49.2239 190.988 49.7997 191.289 50.4568C191.532 50.9662 191.796 51.4313 192.098 51.8448C192.421 52.2656 192.818 52.5831 193.289 52.7824C193.752 52.9817 194.252 53.0925 194.782 53.1146C195.819 53.1737 196.855 53.1737 197.892 53.1146C197.995 53.1146 198.025 53.1737 197.98 53.2918C197.929 53.41 197.848 53.5576 197.723 53.72C197.598 53.8825 197.473 54.0375 197.355 54.1778C197.238 54.3181 197.157 54.4066 197.12 54.4436C196.745 54.8201 196.341 55.1597 195.899 55.455C195.877 55.4772 195.855 55.4919 195.826 55.5141C195.723 55.5879 195.591 55.6765 195.444 55.7577C195.296 55.8389 195.157 55.8906 195.017 55.9054C193.951 55.9718 192.877 55.9718 191.804 55.9054L191.796 55.898Z" fill="url(#paint13_linear_2528_1145)"/>
<path d="M15.9299 10.1611L15.3339 12.8144L12.635 12.566L14.9628 13.9548L13.8945 16.45L15.9299 14.6548L17.954 16.45L16.8857 13.9548L19.2135 12.566L16.5259 12.8144L15.9299 10.1611Z" fill="#C32126"/>
<path d="M52.9717 15.0379C52.9717 17.759 52.4882 20.1526 51.5323 22.2074C50.5765 24.2623 49.2046 25.843 47.4166 26.9608C45.6286 28.0786 43.582 28.6318 41.2767 28.6318C38.9714 28.6318 36.9585 28.0786 35.1593 26.9834C33.3713 25.8769 31.9769 24.3075 30.9985 22.2639C30.009 20.2203 29.5142 17.8606 29.5029 15.2073V13.8411C29.5029 11.1201 29.9865 8.71516 30.9648 6.64897C31.9431 4.58279 33.3263 2.99081 35.1143 1.88433C36.9023 0.777851 38.9377 0.224609 41.243 0.224609C43.5482 0.224609 45.5836 0.777851 47.3716 1.88433C49.1596 2.99081 50.5428 4.58279 51.5211 6.64897C52.4994 8.72645 52.9942 11.1201 52.9942 13.8298V15.0605L52.9717 15.0379ZM47.2142 13.7847C47.2142 10.883 46.6969 8.68129 45.6623 7.16835C44.6278 5.65541 43.1546 4.91023 41.2317 4.91023C39.3088 4.91023 37.8581 5.6554 36.8236 7.14576C35.789 8.63613 35.2717 10.8152 35.2492 13.6943V15.0492C35.2492 17.8719 35.7665 20.0622 36.8011 21.6316C37.8356 23.1897 39.3313 23.9688 41.2654 23.9688C43.1996 23.9688 44.639 23.2123 45.6623 21.722C46.6856 20.2203 47.2029 18.0299 47.2142 15.1508V13.8072V13.7847Z" fill="url(#paint14_linear_2528_1145)"/>
<path d="M57.0647 28.7218V0.19043H65.8023C68.2987 0.19043 70.5365 0.754961 72.5044 1.88402C74.4723 3.01308 76.0129 4.61636 77.115 6.70512C78.217 8.79389 78.7793 11.1536 78.7793 13.8069V15.1166C78.7793 17.7699 78.2395 20.1297 77.1487 22.1846C76.0579 24.2507 74.5286 25.8427 72.5494 26.9831C70.5702 28.1234 68.3437 28.688 65.8585 28.7105H57.0535L57.0647 28.7218ZM62.9235 4.95507V24.0023H65.7573C68.0513 24.0023 69.7943 23.2572 71.0088 21.7442C72.212 20.2426 72.8418 18.0974 72.8643 15.2973V13.7843C72.8643 10.8827 72.2683 8.69226 71.065 7.19061C69.8618 5.70025 68.1188 4.94379 65.8135 4.94379H62.9235V4.95507Z" fill="url(#paint15_linear_2528_1145)"/>
<path d="M99.3921 16.3925H88.1244V24.0475H101.349V28.7783H82.2656V0.19043H101.315V4.96636H88.1244V11.7746H99.3921V16.3925Z" fill="url(#paint16_linear_2528_1145)"/>
<mask id="mask0_2528_1145" style="mask-type:luminance" maskUnits="userSpaceOnUse" x="219" y="17" width="4" height="10">
<path d="M222.549 17.2158V26.4403C222.549 26.5193 222.527 26.587 222.47 26.6435C222.425 26.6999 222.335 26.7564 222.223 26.7903C222.111 26.8354 221.953 26.858 221.762 26.8806C221.571 26.9032 221.323 26.9145 221.031 26.9145C220.739 26.9145 220.503 26.9145 220.3 26.8806C220.109 26.858 219.951 26.8241 219.839 26.7903C219.727 26.7564 219.648 26.6999 219.592 26.6435C219.547 26.5758 219.513 26.508 219.513 26.4403V17.2158H222.527H222.549Z" fill="white"/>
</mask>
<g mask="url(#mask0_2528_1145)">
<path d="M220.379 17.2158H219.535V26.9258H220.379V17.2158Z" fill="#0E1E2F"/>
<path d="M220.491 17.2158H220.367V26.9258H220.491V17.2158Z" fill="#0E1E2F"/>
<path d="M220.626 17.2158H220.502V26.9258H220.626V17.2158Z" fill="#0D1D2E"/>
<path d="M220.75 17.2158H220.626V26.9258H220.75V17.2158Z" fill="#0D1C2D"/>
<path d="M220.873 17.2158H220.75V26.9258H220.873V17.2158Z" fill="#0C1B2C"/>
<path d="M221.009 17.2158H220.885V26.9258H221.009V17.2158Z" fill="#0B1A2B"/>
<path d="M221.132 17.2158H221.009V26.9258H221.132V17.2158Z" fill="#0B1A2B"/>
<path d="M221.267 17.2158H221.144V26.9258H221.267V17.2158Z" fill="#0B192A"/>
<path d="M221.391 17.2158H221.267V26.9258H221.391V17.2158Z" fill="#0B1829"/>
<path d="M221.514 17.2158H221.391V26.9258H221.514V17.2158Z" fill="#0A1828"/>
<path d="M221.65 17.2158H221.526V26.9258H221.65V17.2158Z" fill="#0A1827"/>
<path d="M221.773 17.2158H221.649V26.9258H221.773V17.2158Z" fill="#0A1726"/>
<path d="M221.908 17.2158H221.784V26.9258H221.908V17.2158Z" fill="#0A1725"/>
<path d="M222.032 17.2158H221.908V26.9258H222.032V17.2158Z" fill="#0B1624"/>
<path d="M222.155 17.2158H222.031V26.9258H222.155V17.2158Z" fill="#0A1523"/>
<path d="M222.29 17.2158H222.167V26.9258H222.29V17.2158Z" fill="#0A1522"/>
<path d="M222.414 17.2158H222.291V26.9258H222.414V17.2158Z" fill="#0B1521"/>
<path d="M222.538 17.2158H222.415V26.9258H222.538V17.2158Z" fill="#0A1420"/>
</g>
<mask id="mask1_2528_1145" style="mask-type:luminance" maskUnits="userSpaceOnUse" x="219" y="11" width="4" height="6">
<path d="M222.549 12.4185V16.2461H219.536V12.4185C219.536 12.3395 219.558 12.2718 219.614 12.2153C219.659 12.1589 219.749 12.1024 219.862 12.0685C219.985 12.0347 220.132 12.0008 220.323 11.9782C220.514 11.9556 220.75 11.9443 221.043 11.9443C221.335 11.9443 221.582 11.9556 221.773 11.9782C221.965 12.0008 222.111 12.0347 222.234 12.0685C222.347 12.1024 222.437 12.1589 222.482 12.2153C222.527 12.2718 222.561 12.3508 222.561 12.4185" fill="white"/>
</mask>
<g mask="url(#mask1_2528_1145)">
<path d="M219.581 11.9316H219.536V16.2446H219.581V11.9316Z" fill="#B62025"/>
<path d="M219.614 11.9316H219.569V16.2446H219.614V11.9316Z" fill="#B92025"/>
<path d="M219.659 11.9316H219.614V16.2446H219.659V11.9316Z" fill="#B92025"/>
<path d="M219.704 11.9316H219.659V16.2446H219.704V11.9316Z" fill="#BA2025"/>
<path d="M219.749 11.9316H219.704V16.2446H219.749V11.9316Z" fill="#BD2026"/>
<path d="M219.783 11.9316H219.738V16.2446H219.783V11.9316Z" fill="#BE2026"/>
<path d="M219.828 11.9316H219.783V16.2446H219.828V11.9316Z" fill="#BF2026"/>
<path d="M219.873 11.9316H219.828V16.2446H219.873V11.9316Z" fill="#C02026"/>
<path d="M219.918 11.9316H219.873V16.2446H219.918V11.9316Z" fill="#C22026"/>
<path d="M219.963 11.9316H219.918V16.2446H219.963V11.9316Z" fill="#C32126"/>
<path d="M219.997 11.9316H219.952V16.2446H219.997V11.9316Z" fill="#C52127"/>
<path d="M220.041 11.9316H219.996V16.2446H220.041V11.9316Z" fill="#C62026"/>
<path d="M220.086 11.9316H220.041V16.2446H220.086V11.9316Z" fill="#C72026"/>
<path d="M220.131 11.9316H220.086V16.2446H220.131V11.9316Z" fill="#CA2027"/>
<path d="M220.165 11.9316H220.12V16.2446H220.165V11.9316Z" fill="#CA2026"/>
<path d="M220.21 11.9316H220.165V16.2446H220.21V11.9316Z" fill="#CC2027"/>
<path d="M220.255 11.9316H220.21V16.2446H220.255V11.9316Z" fill="#CD2027"/>
<path d="M220.3 11.9316H220.255V16.2446H220.3V11.9316Z" fill="#CE2027"/>
<path d="M220.345 11.9316H220.3V16.2446H220.345V11.9316Z" fill="#D02027"/>
<path d="M220.379 11.9316H220.334V16.2446H220.379V11.9316Z" fill="#D12027"/>
<path d="M220.424 11.9316H220.379V16.2446H220.424V11.9316Z" fill="#D22027"/>
<path d="M220.469 11.9316H220.424V16.2446H220.469V11.9316Z" fill="#D32027"/>
<path d="M220.514 11.9316H220.469V16.2446H220.514V11.9316Z" fill="#D51F26"/>
<path d="M220.548 11.9316H220.503V16.2446H220.548V11.9316Z" fill="#D71F26"/>
<path d="M220.593 11.9316H220.548V16.2446H220.593V11.9316Z" fill="#D81F26"/>
<path d="M220.637 11.9316H220.592V16.2446H220.637V11.9316Z" fill="#D91F26"/>
<path d="M220.682 11.9316H220.637V16.2446H220.682V11.9316Z" fill="#DA1F26"/>
<path d="M220.727 11.9316H220.682V16.2446H220.727V11.9316Z" fill="#DA1F26"/>
<path d="M220.761 11.9316H220.716V16.2446H220.761V11.9316Z" fill="#DB1F26"/>
<path d="M220.806 11.9316H220.761V16.2446H220.806V11.9316Z" fill="#DD1F26"/>
<path d="M220.851 11.9316H220.806V16.2446H220.851V11.9316Z" fill="#DE1F26"/>
<path d="M220.896 11.9316H220.851V16.2446H220.896V11.9316Z" fill="#DF1F26"/>
<path d="M220.93 11.9316H220.885V16.2446H220.93V11.9316Z" fill="#DF1E26"/>
<path d="M220.975 11.9316H220.93V16.2446H220.975V11.9316Z" fill="#E11F26"/>
<path d="M221.02 11.9316H220.975V16.2446H221.02V11.9316Z" fill="#E31E26"/>
<path d="M221.065 11.9316H221.02V16.2446H221.065V11.9316Z" fill="#E31E25"/>
<path d="M221.11 11.9316H221.065V16.2446H221.11V11.9316Z" fill="#E31E25"/>
<path d="M221.143 11.9316H221.098V16.2446H221.143V11.9316Z" fill="#E51E25"/>
<path d="M221.189 11.9316H221.144V16.2446H221.189V11.9316Z" fill="#E71E25"/>
<path d="M221.234 11.9316H221.189V16.2446H221.234V11.9316Z" fill="#E81E25"/>
<path d="M221.278 11.9316H221.233V16.2446H221.278V11.9316Z" fill="#E91D25"/>
<path d="M221.312 11.9316H221.267V16.2446H221.312V11.9316Z" fill="#EA1D25"/>
<path d="M221.357 11.9316H221.312V16.2446H221.357V11.9316Z" fill="#EB1D25"/>
<path d="M221.402 11.9316H221.357V16.2446H221.402V11.9316Z" fill="#EC1C24"/>
<path d="M221.447 11.9316H221.402V16.2446H221.447V11.9316Z" fill="#EC1C24"/>
<path d="M221.492 11.9316H221.447V16.2446H221.492V11.9316Z" fill="#EC1C24"/>
<path d="M221.526 11.9316H221.481V16.2446H221.526V11.9316Z" fill="#EC1C24"/>
<path d="M221.571 11.9316H221.526V16.2446H221.571V11.9316Z" fill="#EC1C24"/>
<path d="M221.616 11.9316H221.571V16.2446H221.616V11.9316Z" fill="#EC1C24"/>
<path d="M221.661 11.9316H221.616V16.2446H221.661V11.9316Z" fill="#EC1C24"/>
<path d="M221.695 11.9316H221.65V16.2446H221.695V11.9316Z" fill="#EC1C24"/>
<path d="M221.739 11.9316H221.694V16.2446H221.739V11.9316Z" fill="#EC1C24"/>
<path d="M221.784 11.9316H221.74V16.2446H221.784V11.9316Z" fill="#EC1C24"/>
<path d="M221.83 11.9316H221.785V16.2446H221.83V11.9316Z" fill="#EC1C24"/>
<path d="M221.875 11.9316H221.83V16.2446H221.875V11.9316Z" fill="#EC1C25"/>
<path d="M221.908 11.9316H221.863V16.2446H221.908V11.9316Z" fill="#EC1C25"/>
<path d="M221.953 11.9316H221.908V16.2446H221.953V11.9316Z" fill="#EC1C26"/>
<path d="M221.999 11.9316H221.954V16.2446H221.999V11.9316Z" fill="#EC1C26"/>
<path d="M222.043 11.9316H221.998V16.2446H222.043V11.9316Z" fill="#EC1C27"/>
<path d="M222.077 11.9316H222.032V16.2446H222.077V11.9316Z" fill="#EC1C27"/>
<path d="M222.122 11.9316H222.077V16.2446H222.122V11.9316Z" fill="#EC1C28"/>
<path d="M222.167 11.9316H222.122V16.2446H222.167V11.9316Z" fill="#EC1C29"/>
<path d="M222.212 11.9316H222.167V16.2446H222.212V11.9316Z" fill="#EC1C29"/>
<path d="M222.256 11.9316H222.211V16.2446H222.256V11.9316Z" fill="#EC1C29"/>
<path d="M222.291 11.9316H222.246V16.2446H222.291V11.9316Z" fill="#EC1C29"/>
<path d="M222.335 11.9316H222.29V16.2446H222.335V11.9316Z" fill="#EC1C2A"/>
<path d="M222.38 11.9316H222.335V16.2446H222.38V11.9316Z" fill="#EC1C2A"/>
<path d="M222.426 11.9316H222.381V16.2446H222.426V11.9316Z" fill="#EC1C2A"/>
<path d="M222.46 11.9316H222.415V16.2446H222.46V11.9316Z" fill="#EC1E2B"/>
<path d="M222.504 11.9316H222.459V16.2446H222.504V11.9316Z" fill="#EC1E2B"/>
<path d="M222.549 11.9316H222.504V16.2446H222.549V11.9316Z" fill="#EC1E2B"/>
</g>
<mask id="mask2_2528_1145" style="mask-type:luminance" maskUnits="userSpaceOnUse" x="220" y="9" width="2" height="3">
<path d="M221.346 9.78711H220.075V11.063H221.346V9.78711Z" fill="white"/>
</mask>
<g mask="url(#mask2_2528_1145)">
<path d="M220.435 9.78711H220.075V11.063H220.435V9.78711Z" fill="#0E1E2F"/>
<path d="M220.491 9.78711H220.435V11.063H220.491V9.78711Z" fill="#0E1E2F"/>
<path d="M220.547 9.78711H220.491V11.063H220.547V9.78711Z" fill="#0D1D2E"/>
<path d="M220.592 9.78711H220.536V11.063H220.592V9.78711Z" fill="#0D1C2D"/>
<path d="M220.649 9.78711H220.592V11.063H220.649V9.78711Z" fill="#0C1B2C"/>
<path d="M220.705 9.78711H220.649V11.063H220.705V9.78711Z" fill="#0B1A2B"/>
<path d="M220.761 9.78711H220.705V11.063H220.761V9.78711Z" fill="#0B1A2B"/>
<path d="M220.817 9.78711H220.761V11.063H220.817V9.78711Z" fill="#0B192A"/>
<path d="M220.862 9.78711H220.806V11.063H220.862V9.78711Z" fill="#0B1829"/>
<path d="M220.919 9.78711H220.862V11.063H220.919V9.78711Z" fill="#0A1828"/>
<path d="M220.975 9.78711H220.918V11.063H220.975V9.78711Z" fill="#0A1827"/>
<path d="M221.031 9.78711H220.975V11.063H221.031V9.78711Z" fill="#0A1726"/>
<path d="M221.087 9.78711H221.031V11.063H221.087V9.78711Z" fill="#0A1725"/>
<path d="M221.144 9.78711H221.087V11.063H221.144V9.78711Z" fill="#0B1624"/>
<path d="M221.189 9.78711H221.132V11.063H221.189V9.78711Z" fill="#0A1523"/>
<path d="M221.245 9.78711H221.189V11.063H221.245V9.78711Z" fill="#0A1522"/>
<path d="M221.301 9.78711H221.244V11.063H221.301V9.78711Z" fill="#0B1521"/>
<path d="M221.357 9.78711H221.301V11.063H221.357V9.78711Z" fill="#0A1420"/>
</g>
<mask id="mask3_2528_1145" style="mask-type:luminance" maskUnits="userSpaceOnUse" x="221" y="8" width="2" height="2">
<path d="M222.695 8.43066H221.65V9.48068H222.695V8.43066Z" fill="white"/>
</mask>
<g mask="url(#mask3_2528_1145)">
<path d="M221.942 8.43066H221.65V9.48068H221.942V8.43066Z" fill="#0E1E2F"/>
<path d="M221.987 8.43066H221.942V9.48068H221.987V8.43066Z" fill="#0E1E2F"/>
<path d="M222.032 8.43066H221.987V9.48068H222.032V8.43066Z" fill="#0D1D2E"/>
<path d="M222.076 8.43066H222.031V9.48068H222.076V8.43066Z" fill="#0D1C2D"/>
<path d="M222.122 8.43066H222.077V9.48068H222.122V8.43066Z" fill="#0C1B2C"/>
<path d="M222.167 8.43066H222.122V9.48068H222.167V8.43066Z" fill="#0B1A2B"/>
<path d="M222.212 8.43066H222.167V9.48068H222.212V8.43066Z" fill="#0B1A2B"/>
<path d="M222.245 8.43066H222.2V9.48068H222.245V8.43066Z" fill="#0B192A"/>
<path d="M222.291 8.43066H222.246V9.48068H222.291V8.43066Z" fill="#0B1829"/>
<path d="M222.335 8.43066H222.29V9.48068H222.335V8.43066Z" fill="#0A1828"/>
<path d="M222.381 8.43066H222.336V9.48068H222.381V8.43066Z" fill="#0A1827"/>
<path d="M222.426 8.43066H222.381V9.48068H222.426V8.43066Z" fill="#0A1726"/>
<path d="M222.47 8.43066H222.425V9.48068H222.47V8.43066Z" fill="#0A1725"/>
<path d="M222.516 8.43066H222.471V9.48068H222.516V8.43066Z" fill="#0B1624"/>
<path d="M222.56 8.43066H222.515V9.48068H222.56V8.43066Z" fill="#0A1523"/>
<path d="M222.605 8.43066H222.56V9.48068H222.605V8.43066Z" fill="#0A1522"/>
<path d="M222.65 8.43066H222.605V9.48068H222.65V8.43066Z" fill="#0B1521"/>
<path d="M222.696 8.43066H222.651V9.48068H222.696V8.43066Z" fill="#0A1420"/>
</g>
<mask id="mask4_2528_1145" style="mask-type:luminance" maskUnits="userSpaceOnUse" x="224" y="11" width="12" height="11">
<path d="M235.617 13.241C235.617 13.4668 235.617 13.6587 235.583 13.8055C235.561 13.9636 235.538 14.0878 235.493 14.1894C235.459 14.2797 235.415 14.3588 235.347 14.4039C235.291 14.4491 235.223 14.4717 235.156 14.4717H231.456V21.3364H228.442V14.4717H224.732C224.653 14.4717 224.597 14.4491 224.54 14.4039C224.484 14.3588 224.439 14.2797 224.405 14.1894C224.372 14.0878 224.338 13.9636 224.315 13.8055C224.293 13.6474 224.293 13.4555 224.293 13.241C224.293 13.0265 224.293 12.812 224.315 12.6539C224.338 12.4958 224.36 12.3603 224.405 12.27C224.439 12.1797 224.495 12.1006 224.54 12.0668C224.597 12.0216 224.664 11.999 224.732 11.999H235.156C235.223 11.999 235.291 12.0216 235.347 12.0668C235.403 12.1119 235.448 12.1797 235.493 12.27C235.538 12.3603 235.561 12.4958 235.583 12.6539C235.606 12.812 235.617 13.0152 235.617 13.241Z" fill="white"/>
</mask>
<g mask="url(#mask4_2528_1145)">
<path d="M227.453 12.0088H224.293V21.3461H227.453V12.0088Z" fill="#0E1E2F"/>
<path d="M227.936 12.0088H227.453V21.3461H227.936V12.0088Z" fill="#0E1E2F"/>
<path d="M228.42 12.0088H227.937V21.3461H228.42V12.0088Z" fill="#0D1D2E"/>
<path d="M228.892 12.0088H228.409V21.3461H228.892V12.0088Z" fill="#0D1C2D"/>
<path d="M229.376 12.0088H228.893V21.3461H229.376V12.0088Z" fill="#0C1B2C"/>
<path d="M229.86 12.0088H229.376V21.3461H229.86V12.0088Z" fill="#0B1A2B"/>
<path d="M230.332 12.0088H229.848V21.3461H230.332V12.0088Z" fill="#0B1A2B"/>
<path d="M230.816 12.0088H230.332V21.3461H230.816V12.0088Z" fill="#0B192A"/>
<path d="M231.299 12.0088H230.816V21.3461H231.299V12.0088Z" fill="#0B1829"/>
<path d="M231.771 12.0088H231.288V21.3461H231.771V12.0088Z" fill="#0A1828"/>
<path d="M232.255 12.0088H231.771V21.3461H232.255V12.0088Z" fill="#0A1827"/>
<path d="M232.738 12.0088H232.255V21.3461H232.738V12.0088Z" fill="#0A1726"/>
<path d="M233.211 12.0088H232.727V21.3461H233.211V12.0088Z" fill="#0A1725"/>
<path d="M233.694 12.0088H233.211V21.3461H233.694V12.0088Z" fill="#0B1624"/>
<path d="M234.178 12.0088H233.694V21.3461H234.178V12.0088Z" fill="#0A1523"/>
<path d="M234.662 12.0088H234.178V21.3461H234.662V12.0088Z" fill="#0A1522"/>
<path d="M235.133 12.0088H234.65V21.3461H235.133V12.0088Z" fill="#0B1521"/>
<path d="M235.617 12.0088H235.134V21.3461H235.617V12.0088Z" fill="#0A1420"/>
</g>
<mask id="mask5_2528_1145" style="mask-type:luminance" maskUnits="userSpaceOnUse" x="228" y="22" width="4" height="5">
<path d="M231.467 22.3096V26.4419C231.467 26.521 231.445 26.5887 231.389 26.6452C231.344 26.7016 231.254 26.7581 231.141 26.7919C231.029 26.8371 230.871 26.8597 230.68 26.8823C230.489 26.9049 230.242 26.9161 229.949 26.9161C229.657 26.9161 229.421 26.9161 229.218 26.8823C229.027 26.8597 228.87 26.8258 228.757 26.7919C228.645 26.7581 228.566 26.7016 228.51 26.6452C228.465 26.5774 228.442 26.5097 228.442 26.4419V22.3096H231.456H231.467Z" fill="white"/>
</mask>
<g mask="url(#mask5_2528_1145)">
<path d="M228.487 22.3096H228.442V26.9161H228.487V22.3096Z" fill="#B62025"/>
<path d="M228.533 22.3096H228.488V26.9161H228.533V22.3096Z" fill="#B92025"/>
<path d="M228.578 22.3096H228.533V26.9161H228.578V22.3096Z" fill="#B92025"/>
<path d="M228.623 22.3096H228.578V26.9161H228.623V22.3096Z" fill="#BA2025"/>
<path d="M228.667 22.3096H228.622V26.9161H228.667V22.3096Z" fill="#BD2026"/>
<path d="M228.701 22.3096H228.656V26.9161H228.701V22.3096Z" fill="#BE2026"/>
<path d="M228.746 22.3096H228.701V26.9161H228.746V22.3096Z" fill="#BF2026"/>
<path d="M228.791 22.3096H228.746V26.9161H228.791V22.3096Z" fill="#C02026"/>
<path d="M228.836 22.3096H228.791V26.9161H228.836V22.3096Z" fill="#C22026"/>
<path d="M228.87 22.3096H228.825V26.9161H228.87V22.3096Z" fill="#C32126"/>
<path d="M228.915 22.3096H228.87V26.9161H228.915V22.3096Z" fill="#C52127"/>
<path d="M228.96 22.3096H228.915V26.9161H228.96V22.3096Z" fill="#C62026"/>
<path d="M229.005 22.3096H228.96V26.9161H229.005V22.3096Z" fill="#C72026"/>
<path d="M229.05 22.3096H229.005V26.9161H229.05V22.3096Z" fill="#CA2027"/>
<path d="M229.083 22.3096H229.038V26.9161H229.083V22.3096Z" fill="#CA2026"/>
<path d="M229.128 22.3096H229.083V26.9161H229.128V22.3096Z" fill="#CC2027"/>
<path d="M229.174 22.3096H229.129V26.9161H229.174V22.3096Z" fill="#CD2027"/>
<path d="M229.219 22.3096H229.174V26.9161H229.219V22.3096Z" fill="#CE2027"/>
<path d="M229.252 22.3096H229.207V26.9161H229.252V22.3096Z" fill="#D02027"/>
<path d="M229.297 22.3096H229.252V26.9161H229.297V22.3096Z" fill="#D12027"/>
<path d="M229.342 22.3096H229.297V26.9161H229.342V22.3096Z" fill="#D22027"/>
<path d="M229.387 22.3096H229.342V26.9161H229.387V22.3096Z" fill="#D32027"/>
<path d="M229.432 22.3096H229.387V26.9161H229.432V22.3096Z" fill="#D51F26"/>
<path d="M229.466 22.3096H229.421V26.9161H229.466V22.3096Z" fill="#D71F26"/>
<path d="M229.511 22.3096H229.466V26.9161H229.511V22.3096Z" fill="#D81F26"/>
<path d="M229.556 22.3096H229.511V26.9161H229.556V22.3096Z" fill="#D91F26"/>
<path d="M229.601 22.3096H229.556V26.9161H229.601V22.3096Z" fill="#DA1F26"/>
<path d="M229.635 22.3096H229.59V26.9161H229.635V22.3096Z" fill="#DA1F26"/>
<path d="M229.679 22.3096H229.635V26.9161H229.679V22.3096Z" fill="#DB1F26"/>
<path d="M229.724 22.3096H229.679V26.9161H229.724V22.3096Z" fill="#DD1F26"/>
<path d="M229.77 22.3096H229.725V26.9161H229.77V22.3096Z" fill="#DE1F26"/>
<path d="M229.815 22.3096H229.77V26.9161H229.815V22.3096Z" fill="#DF1F26"/>
<path d="M229.848 22.3096H229.803V26.9161H229.848V22.3096Z" fill="#DF1E26"/>
<path d="M229.893 22.3096H229.848V26.9161H229.893V22.3096Z" fill="#E11F26"/>
<path d="M229.938 22.3096H229.893V26.9161H229.938V22.3096Z" fill="#E31E26"/>
<path d="M229.983 22.3096H229.938V26.9161H229.983V22.3096Z" fill="#E31E25"/>
<path d="M230.017 22.3096H229.972V26.9161H230.017V22.3096Z" fill="#E31E25"/>
<path d="M230.062 22.3096H230.017V26.9161H230.062V22.3096Z" fill="#E51E25"/>
<path d="M230.107 22.3096H230.062V26.9161H230.107V22.3096Z" fill="#E71E25"/>
<path d="M230.152 22.3096H230.107V26.9161H230.152V22.3096Z" fill="#E81E25"/>
<path d="M230.197 22.3096H230.152V26.9161H230.197V22.3096Z" fill="#E91D25"/>
<path d="M230.23 22.3096H230.185V26.9161H230.23V22.3096Z" fill="#EA1D25"/>
<path d="M230.276 22.3096H230.231V26.9161H230.276V22.3096Z" fill="#EB1D25"/>
<path d="M230.32 22.3096H230.275V26.9161H230.32V22.3096Z" fill="#EC1C24"/>
<path d="M230.366 22.3096H230.321V26.9161H230.366V22.3096Z" fill="#EC1C24"/>
<path d="M230.399 22.3096H230.354V26.9161H230.399V22.3096Z" fill="#EC1C24"/>
<path d="M230.444 22.3096H230.399V26.9161H230.444V22.3096Z" fill="#EC1C24"/>
<path d="M230.489 22.3096H230.444V26.9161H230.489V22.3096Z" fill="#EC1C24"/>
<path d="M230.534 22.3096H230.489V26.9161H230.534V22.3096Z" fill="#EC1C24"/>
<path d="M230.579 22.3096H230.534V26.9161H230.579V22.3096Z" fill="#EC1C24"/>
<path d="M230.613 22.3096H230.568V26.9161H230.613V22.3096Z" fill="#EC1C24"/>
<path d="M230.658 22.3096H230.613V26.9161H230.658V22.3096Z" fill="#EC1C24"/>
<path d="M230.703 22.3096H230.658V26.9161H230.703V22.3096Z" fill="#EC1C24"/>
<path d="M230.748 22.3096H230.703V26.9161H230.748V22.3096Z" fill="#EC1C24"/>
<path d="M230.782 22.3096H230.737V26.9161H230.782V22.3096Z" fill="#EC1C25"/>
<path d="M230.826 22.3096H230.781V26.9161H230.826V22.3096Z" fill="#EC1C25"/>
<path d="M230.871 22.3096H230.826V26.9161H230.871V22.3096Z" fill="#EC1C26"/>
<path d="M230.917 22.3096H230.872V26.9161H230.917V22.3096Z" fill="#EC1C26"/>
<path d="M230.961 22.3096H230.916V26.9161H230.961V22.3096Z" fill="#EC1C27"/>
<path d="M230.995 22.3096H230.95V26.9161H230.995V22.3096Z" fill="#EC1C27"/>
<path d="M231.04 22.3096H230.995V26.9161H231.04V22.3096Z" fill="#EC1C28"/>
<path d="M231.085 22.3096H231.04V26.9161H231.085V22.3096Z" fill="#EC1C29"/>
<path d="M231.13 22.3096H231.085V26.9161H231.13V22.3096Z" fill="#EC1C29"/>
<path d="M231.164 22.3096H231.119V26.9161H231.164V22.3096Z" fill="#EC1C29"/>
<path d="M231.209 22.3096H231.164V26.9161H231.209V22.3096Z" fill="#EC1C29"/>
<path d="M231.254 22.3096H231.209V26.9161H231.254V22.3096Z" fill="#EC1C2A"/>
<path d="M231.299 22.3096H231.254V26.9161H231.299V22.3096Z" fill="#EC1C2A"/>
<path d="M231.344 22.3096H231.299V26.9161H231.344V22.3096Z" fill="#EC1C2A"/>
<path d="M231.378 22.3096H231.333V26.9161H231.378V22.3096Z" fill="#EC1E2B"/>
<path d="M231.422 22.3096H231.377V26.9161H231.422V22.3096Z" fill="#EC1E2B"/>
<path d="M231.468 22.3096H231.423V26.9161H231.468V22.3096Z" fill="#EC1E2B"/>
</g>
<path d="M216.005 11.0537H215.308V7.03418H219.322V7.73421H216.005V11.0537Z" fill="black"/>
<path d="M237 28.8154H232.996V28.1153H236.302V24.7959H237V28.8154Z" fill="black"/>
<path d="M219.322 28.8154H215.308V24.7959H216.005V28.1153H219.322V28.8154Z" fill="black"/>
<path d="M237 11.0537H236.302V7.73421H232.996V7.03418H237V11.0537Z" fill="black"/>
<path d="M113.549 28.8122V0.00976562H116.833C121.297 6.91963 131.789 23.0088 133.6 26.1363H133.645C133.397 21.9813 133.442 17.736 133.442 13.0504V0.00976562H135.691V28.8122H132.655C128.393 22.1507 117.733 5.39539 115.686 2.23402H115.641C115.843 6.01638 115.81 10.2165 115.81 15.4441V28.8234H113.561L113.549 28.8122Z" fill="black"/>
<path d="M160.971 14.6557H146.341V26.7592H162.365L162.039 28.8141H144.125V0.0117188H161.713V2.06662H146.341V12.6008H160.971V14.6557Z" fill="black"/>
<path d="M185.722 28.8137L177.074 15.852H177.029L168.46 28.8137H165.874L175.668 14.1584L166.279 0H168.865L177.063 12.3068H177.108L185.474 0H188.061L178.39 13.9891L188.353 28.8024H185.733L185.722 28.8137Z" fill="black"/>
<path d="M200.194 2.06662H190.556V0.0117188H212.114V2.06662H202.443V28.8141H200.194V2.06662Z" fill="black"/>
<path d="M26.4669 21.7226C22.6548 28.1357 14.4907 30.5744 7.7661 27.1421C1.04145 23.7097 -2.07348 14.9369 1.49126 7.88026C4.97728 0.970404 13.2763 -1.87483 20.2146 1.35429C15.4578 0.744593 10.6336 3.13822 8.3396 7.66576C5.42709 13.424 7.72111 20.4693 13.4674 23.3936C17.8531 25.6291 22.9921 24.8049 26.4669 21.7113V21.7226Z" fill="url(#paint17_linear_2528_1145)"/>
<defs>
<linearGradient id="paint0_linear_2528_1145" x1="7.18339" y1="156.558" x2="21.4199" y2="16.2705" gradientUnits="userSpaceOnUse">
<stop stop-color="#B62025"/>
<stop offset="0.39" stop-color="#D11E28"/>
<stop offset="0.75" stop-color="#E51E2A"/>
<stop offset="1" stop-color="#EC1E2B"/>
</linearGradient>
<linearGradient id="paint1_linear_2528_1145" x1="24.765" y1="103.83" x2="29.2713" y2="33.9619" gradientUnits="userSpaceOnUse">
<stop stop-color="#B62025"/>
<stop offset="0.39" stop-color="#D11E28"/>
<stop offset="0.75" stop-color="#E51E2A"/>
<stop offset="1" stop-color="#EC1E2B"/>
</linearGradient>
<linearGradient id="paint2_linear_2528_1145" x1="38.467" y1="101.06" x2="41.6766" y2="35.4276" gradientUnits="userSpaceOnUse">
<stop stop-color="#B62025"/>
<stop offset="0.39" stop-color="#D11E28"/>
<stop offset="0.75" stop-color="#E51E2A"/>
<stop offset="1" stop-color="#EC1E2B"/>
</linearGradient>
<linearGradient id="paint3_linear_2528_1145" x1="53.0231" y1="103.83" x2="57.5293" y2="33.9619" gradientUnits="userSpaceOnUse">
<stop stop-color="#B62025"/>
<stop offset="0.39" stop-color="#D11E28"/>
<stop offset="0.75" stop-color="#E51E2A"/>
<stop offset="1" stop-color="#EC1E2B"/>
</linearGradient>
<linearGradient id="paint4_linear_2528_1145" x1="65.1416" y1="126.602" x2="75.4648" y2="24.0141" gradientUnits="userSpaceOnUse">
<stop stop-color="#B62025"/>
<stop offset="0.39" stop-color="#D11E28"/>
<stop offset="0.75" stop-color="#E51E2A"/>
<stop offset="1" stop-color="#EC1E2B"/>
</linearGradient>
<linearGradient id="paint5_linear_2528_1145" x1="77.149" y1="103.83" x2="81.6553" y2="33.9619" gradientUnits="userSpaceOnUse">
<stop stop-color="#B62025"/>
<stop offset="0.39" stop-color="#D11E28"/>
<stop offset="0.75" stop-color="#E51E2A"/>
<stop offset="1" stop-color="#EC1E2B"/>
</linearGradient>
<linearGradient id="paint6_linear_2528_1145" x1="88.8496" y1="101.119" x2="93.3643" y2="35.6201" gradientUnits="userSpaceOnUse">
<stop stop-color="#B62025"/>
<stop offset="0.39" stop-color="#D11E28"/>
<stop offset="0.75" stop-color="#E51E2A"/>
<stop offset="1" stop-color="#EC1E2B"/>
</linearGradient>
<linearGradient id="paint7_linear_2528_1145" x1="108.822" y1="148.469" x2="116.237" y2="20.4962" gradientUnits="userSpaceOnUse">
<stop stop-color="#B62025"/>
<stop offset="0.39" stop-color="#D11E28"/>
<stop offset="0.75" stop-color="#E51E2A"/>
<stop offset="1" stop-color="#EC1E2B"/>
</linearGradient>
<linearGradient id="paint8_linear_2528_1145" x1="132.19" y1="99.8312" x2="136.624" y2="35.5875" gradientUnits="userSpaceOnUse">
<stop stop-color="#B62025"/>
<stop offset="0.39" stop-color="#D11E28"/>
<stop offset="0.75" stop-color="#E51E2A"/>
<stop offset="1" stop-color="#EC1E2B"/>
</linearGradient>
<linearGradient id="paint9_linear_2528_1145" x1="143.095" y1="130.468" x2="154.453" y2="23.4061" gradientUnits="userSpaceOnUse">
<stop stop-color="#B62025"/>
<stop offset="0.39" stop-color="#D11E28"/>
<stop offset="0.75" stop-color="#E51E2A"/>
<stop offset="1" stop-color="#EC1E2B"/>
</linearGradient>
<linearGradient id="paint10_linear_2528_1145" x1="155.02" y1="103.652" x2="159.526" y2="33.7842" gradientUnits="userSpaceOnUse">
<stop stop-color="#B62025"/>
<stop offset="0.39" stop-color="#D11E28"/>
<stop offset="0.75" stop-color="#E51E2A"/>
<stop offset="1" stop-color="#EC1E2B"/>
</linearGradient>
<linearGradient id="paint11_linear_2528_1145" x1="166.456" y1="97.3898" x2="170.575" y2="36.7149" gradientUnits="userSpaceOnUse">
<stop stop-color="#B62025"/>
<stop offset="0.39" stop-color="#D11E28"/>
<stop offset="0.75" stop-color="#E51E2A"/>
<stop offset="1" stop-color="#EC1E2B"/>
</linearGradient>
<linearGradient id="paint12_linear_2528_1145" x1="177.204" y1="103.652" x2="181.71" y2="33.7842" gradientUnits="userSpaceOnUse">
<stop stop-color="#B62025"/>
<stop offset="0.39" stop-color="#D11E28"/>
<stop offset="0.75" stop-color="#E51E2A"/>
<stop offset="1" stop-color="#EC1E2B"/>
</linearGradient>
<linearGradient id="paint13_linear_2528_1145" x1="189.16" y1="130.419" x2="200.689" y2="23.434" gradientUnits="userSpaceOnUse">
<stop stop-color="#B62025"/>
<stop offset="0.39" stop-color="#D11E28"/>
<stop offset="0.75" stop-color="#E51E2A"/>
<stop offset="1" stop-color="#EC1E2B"/>
</linearGradient>
<linearGradient id="paint14_linear_2528_1145" x1="41.3779" y1="-3.52388" x2="41.1398" y2="26.8366" gradientUnits="userSpaceOnUse">
<stop stop-color="#B62025"/>
<stop offset="0.39" stop-color="#D11E28"/>
<stop offset="0.75" stop-color="#E51E2A"/>
<stop offset="1" stop-color="#EC1E2B"/>
</linearGradient>
<linearGradient id="paint15_linear_2528_1145" x1="68.0176" y1="-3.81774" x2="67.7682" y2="27.4686" gradientUnits="userSpaceOnUse">
<stop stop-color="#B62025"/>
<stop offset="0.39" stop-color="#D11E28"/>
<stop offset="0.75" stop-color="#E51E2A"/>
<stop offset="1" stop-color="#EC1E2B"/>
</linearGradient>
<linearGradient id="paint16_linear_2528_1145" x1="91.9478" y1="-3.63709" x2="91.6984" y2="27.7282" gradientUnits="userSpaceOnUse">
<stop stop-color="#B62025"/>
<stop offset="0.39" stop-color="#D11E28"/>
<stop offset="0.75" stop-color="#E51E2A"/>
<stop offset="1" stop-color="#EC1E2B"/>
</linearGradient>
<linearGradient id="paint17_linear_2528_1145" x1="2.35576" y1="30.8717" x2="12.1832" y2="17.3147" gradientUnits="userSpaceOnUse">
<stop stop-color="#B62025"/>
<stop offset="0.39" stop-color="#D11E28"/>
<stop offset="0.75" stop-color="#E51E2A"/>
<stop offset="1" stop-color="#EC1E2B"/>
</linearGradient>
</defs>
</svg>
