<svg width="568" height="195" viewBox="0 0 568 195" fill="none" xmlns="http://www.w3.org/2000/svg">
<path d="M354.56 123.24V114.06H362.72C364.76 114.06 366.6 113.76 368.24 113.16C369.88 112.52 371.28 111.64 372.44 110.52C373.6 109.36 374.48 107.98 375.08 106.38C375.68 104.74 375.98 102.94 375.98 100.98C375.98 98.94 375.68 97.12 375.08 95.52C374.48 93.92 373.6 92.56 372.44 91.44C371.28 90.32 369.88 89.48 368.24 88.92C366.6 88.32 364.76 88.02 362.72 88.02H354.56V78.84H362.18C366.14 78.84 369.6 79.42 372.56 80.58C375.52 81.74 378 83.32 380 85.32C382 87.32 383.48 89.62 384.44 92.22C385.44 94.78 385.94 97.48 385.94 100.32V101.64C385.94 104.28 385.44 106.9 384.44 109.5C383.48 112.06 382 114.38 380 116.46C378 118.5 375.52 120.14 372.56 121.38C369.6 122.62 366.14 123.24 362.18 123.24H354.56ZM345.92 123.24V78.84H355.76V123.24H345.92ZM407.315 124.14C404.515 124.14 402.035 123.66 399.875 122.7C397.755 121.74 395.975 120.46 394.535 118.86C393.135 117.22 392.055 115.4 391.295 113.4C390.575 111.36 390.215 109.28 390.215 107.16V105.96C390.215 103.76 390.575 101.66 391.295 99.66C392.055 97.62 393.135 95.8 394.535 94.2C395.935 92.6 397.675 91.34 399.755 90.42C401.875 89.46 404.275 88.98 406.955 88.98C410.475 88.98 413.435 89.78 415.835 91.38C418.275 92.94 420.135 95 421.415 97.56C422.695 100.08 423.335 102.84 423.335 105.84V109.08H394.235V103.62H417.515L414.395 106.14C414.395 104.18 414.115 102.5 413.555 101.1C412.995 99.7 412.155 98.64 411.035 97.92C409.955 97.16 408.595 96.78 406.955 96.78C405.275 96.78 403.855 97.16 402.695 97.92C401.535 98.68 400.655 99.8 400.055 101.28C399.455 102.72 399.155 104.5 399.155 106.62C399.155 108.58 399.435 110.3 399.995 111.78C400.555 113.22 401.435 114.34 402.635 115.14C403.835 115.94 405.395 116.34 407.315 116.34C409.075 116.34 410.515 116 411.635 115.32C412.755 114.64 413.515 113.8 413.915 112.8H422.735C422.255 115 421.315 116.96 419.915 118.68C418.515 120.4 416.755 121.74 414.635 122.7C412.515 123.66 410.075 124.14 407.315 124.14ZM442.176 124.02C437.496 124.02 433.836 123.06 431.196 121.14C428.556 119.22 427.156 116.52 426.996 113.04H435.516C435.676 114.08 436.296 115.02 437.376 115.86C438.496 116.66 440.156 117.06 442.356 117.06C444.036 117.06 445.416 116.78 446.496 116.22C447.616 115.62 448.176 114.78 448.176 113.7C448.176 112.74 447.756 111.98 446.916 111.42C446.076 110.82 444.576 110.4 442.416 110.16L439.836 109.92C435.876 109.52 432.896 108.42 430.896 106.62C428.936 104.82 427.956 102.52 427.956 99.72C427.956 97.4 428.536 95.46 429.696 93.9C430.856 92.34 432.456 91.16 434.496 90.36C436.576 89.56 438.936 89.16 441.576 89.16C445.816 89.16 449.236 90.1 451.836 91.98C454.436 93.82 455.796 96.5 455.916 100.02H447.396C447.236 98.94 446.676 98.04 445.716 97.32C444.756 96.56 443.336 96.18 441.456 96.18C439.976 96.18 438.796 96.46 437.916 97.02C437.036 97.58 436.596 98.34 436.596 99.3C436.596 100.22 436.976 100.92 437.736 101.4C438.496 101.88 439.736 102.22 441.456 102.42L444.036 102.66C448.076 103.1 451.216 104.22 453.456 106.02C455.696 107.82 456.816 110.24 456.816 113.28C456.816 115.48 456.216 117.4 455.016 119.04C453.816 120.64 452.116 121.88 449.916 122.76C447.716 123.6 445.136 124.02 442.176 124.02ZM464.596 123V90.12H474.196V123H464.596ZM460.216 97.2V90.12H474.196V97.2H460.216ZM468.316 86.88C466.516 86.88 465.176 86.42 464.296 85.5C463.456 84.54 463.036 83.34 463.036 81.9C463.036 80.42 463.456 79.22 464.296 78.3C465.176 77.34 466.516 76.86 468.316 76.86C470.116 76.86 471.436 77.34 472.276 78.3C473.156 79.22 473.596 80.42 473.596 81.9C473.596 83.34 473.156 84.54 472.276 85.5C471.436 86.42 470.116 86.88 468.316 86.88ZM496.035 136.08C494.435 136.08 492.795 136.02 491.115 135.9C489.435 135.78 487.895 135.62 486.495 135.42V127.32C487.895 127.52 489.435 127.68 491.115 127.8C492.835 127.96 494.395 128.04 495.795 128.04C498.395 128.04 500.495 127.74 502.095 127.14C503.735 126.54 504.935 125.62 505.695 124.38C506.455 123.18 506.835 121.62 506.835 119.7V113.16L508.575 109.32C508.495 112.24 507.915 114.74 506.835 116.82C505.795 118.9 504.335 120.5 502.455 121.62C500.575 122.7 498.335 123.24 495.735 123.24C493.495 123.24 491.455 122.84 489.615 122.04C487.815 121.2 486.275 120.04 484.995 118.56C483.715 117.08 482.735 115.36 482.055 113.4C481.375 111.4 481.035 109.24 481.035 106.92V105.54C481.035 103.22 481.395 101.06 482.115 99.06C482.835 97.06 483.875 95.32 485.235 93.84C486.595 92.36 488.215 91.22 490.095 90.42C491.975 89.58 494.055 89.16 496.335 89.16C498.975 89.16 501.255 89.74 503.175 90.9C505.135 92.06 506.675 93.76 507.795 96C508.915 98.24 509.515 100.94 509.595 104.1L508.275 104.46V90.12H515.895V119.1C515.895 123.14 515.175 126.4 513.735 128.88C512.295 131.36 510.095 133.18 507.135 134.34C504.215 135.5 500.515 136.08 496.035 136.08ZM498.735 115.14C500.215 115.14 501.555 114.82 502.755 114.18C503.955 113.5 504.895 112.54 505.575 111.3C506.295 110.06 506.655 108.56 506.655 106.8V105.06C506.655 103.34 506.275 101.9 505.515 100.74C504.795 99.54 503.835 98.64 502.635 98.04C501.435 97.4 500.155 97.08 498.795 97.08C497.195 97.08 495.775 97.46 494.535 98.22C493.295 98.98 492.335 100.04 491.655 101.4C490.975 102.76 490.635 104.36 490.635 106.2C490.635 108.08 490.975 109.7 491.655 111.06C492.375 112.38 493.335 113.4 494.535 114.12C495.775 114.8 497.175 115.14 498.735 115.14ZM524.208 123V90.12H531.828V104.22H531.288C531.288 100.86 531.708 98.06 532.548 95.82C533.428 93.58 534.748 91.9 536.508 90.78C538.268 89.66 540.408 89.1 542.928 89.1H543.348C547.188 89.1 550.108 90.36 552.108 92.88C554.148 95.36 555.168 99.14 555.168 104.22V123H545.568V103.68C545.568 101.92 545.048 100.48 544.008 99.36C542.968 98.24 541.568 97.68 539.808 97.68C538.008 97.68 536.548 98.26 535.428 99.42C534.348 100.54 533.808 102.02 533.808 103.86V123H524.208Z" fill="#DD0000"/>
<path d="M38 12L56 12L18 98L47 164H29L0 98L38 12Z" fill="#DD0000"/>
<path d="M288 184L270 184L308 98L279 32H297L326 98L288 184Z" fill="#DD0000"/>
<path d="M84.08 125L69.68 66.6H83.2L94.48 116.2L91.68 114.36H98.96L95.84 116.2L104.56 68.76H115.44L104 125H84.08ZM118.88 125L106.56 68.76H118L128.08 116.2L125.04 114.36H132L129.36 116.2L139.2 66.6H152L139.2 125H118.88ZM177.514 126.52C173.78 126.52 170.474 125.88 167.594 124.6C164.767 123.32 162.394 121.613 160.474 119.48C158.607 117.293 157.167 114.867 156.154 112.2C155.194 109.48 154.714 106.707 154.714 103.88V102.28C154.714 99.3467 155.194 96.5467 156.154 93.88C157.167 91.16 158.607 88.7333 160.474 86.6C162.34 84.4667 164.66 82.7867 167.434 81.56C170.26 80.28 173.46 79.64 177.034 79.64C181.727 79.64 185.674 80.7067 188.874 82.84C192.127 84.92 194.607 87.6667 196.314 91.08C198.02 94.44 198.874 98.12 198.874 102.12V106.44H160.074V99.16H191.114L186.954 102.52C186.954 99.9067 186.58 97.6667 185.834 95.8C185.087 93.9333 183.967 92.52 182.474 91.56C181.034 90.5467 179.22 90.04 177.034 90.04C174.794 90.04 172.9 90.5467 171.354 91.56C169.807 92.5733 168.634 94.0667 167.834 96.04C167.034 97.96 166.634 100.333 166.634 103.16C166.634 105.773 167.007 108.067 167.754 110.04C168.5 111.96 169.674 113.453 171.274 114.52C172.874 115.587 174.954 116.12 177.514 116.12C179.86 116.12 181.78 115.667 183.274 114.76C184.767 113.853 185.78 112.733 186.314 111.4H198.074C197.434 114.333 196.18 116.947 194.314 119.24C192.447 121.533 190.1 123.32 187.274 124.6C184.447 125.88 181.194 126.52 177.514 126.52ZM234.316 126.44C230.742 126.44 227.596 125.693 224.876 124.2C222.156 122.653 220.022 120.44 218.476 117.56C216.929 114.68 216.102 111.16 215.996 107H217.516V125H207.356V66.6H220.156V96.28L217.116 100.12C217.276 95.6933 218.102 91.9867 219.596 89C221.142 85.96 223.249 83.6933 225.916 82.2C228.582 80.6533 231.622 79.88 235.036 79.88C238.022 79.88 240.716 80.44 243.116 81.56C245.569 82.6267 247.649 84.1733 249.356 86.2C251.062 88.1733 252.369 90.52 253.276 93.24C254.236 95.96 254.716 98.92 254.716 102.12V103.88C254.716 107.08 254.236 110.04 253.276 112.76C252.369 115.48 251.009 117.88 249.196 119.96C247.436 121.987 245.302 123.587 242.796 124.76C240.289 125.88 237.462 126.44 234.316 126.44ZM230.956 115.72C233.142 115.72 235.036 115.187 236.636 114.12C238.289 113.053 239.569 111.56 240.476 109.64C241.382 107.667 241.836 105.453 241.836 103C241.836 100.493 241.382 98.3067 240.476 96.44C239.569 94.5733 238.289 93.1333 236.636 92.12C235.036 91.0533 233.142 90.52 230.956 90.52C229.036 90.52 227.222 90.9733 225.516 91.88C223.809 92.7867 222.422 94.0933 221.356 95.8C220.342 97.4533 219.836 99.48 219.836 101.88V104.84C219.836 107.133 220.369 109.107 221.436 110.76C222.556 112.36 223.969 113.587 225.676 114.44C227.382 115.293 229.142 115.72 230.956 115.72Z" fill="url(#paint0_linear_2540_1894)"/>
<path d="M47 32H279L308 98L279 164H47L18 98L47 32Z" fill="#FF9696" fill-opacity="0.3"/>
<path d="M297 32H329L340 17H459V19H341L330 34H297V32Z" fill="#DD0000"/>
<path d="M295 164H327L338 179H457V177H339L328 162H295V164Z" fill="#DD0000"/>
<path d="M308 59H340L351 44H417V46H352L341 61H308V59Z" fill="#DD0000"/>
<path d="M308 137H340L351 152H417V150H352L341 135H308V137Z" fill="#DD0000"/>
<circle cx="459" cy="18" r="7" fill="#DD0000"/>
<circle cx="422" cy="45" r="6" stroke="#DD0000" stroke-width="2"/>
<circle cx="417" cy="151" r="7" fill="#DD0000"/>
<circle cx="462" cy="178" r="6" stroke="#DD0000" stroke-width="2"/>
<circle cx="7" cy="7" r="7" transform="matrix(1 0 0 -1 131 20)" fill="#DD0000"/>
<circle cx="184" cy="183" r="6" transform="rotate(180 184 183)" stroke="#DD0000" stroke-width="2"/>
<path d="M132 12V14H51V12H132Z" fill="#DD0000"/>
<path d="M190 182V184H271V182H190Z" fill="#DD0000"/>
<rect x="46" y="32" width="234" height="2" fill="#DD0000"/>
<rect x="46" y="162" width="234" height="2" fill="#DD0000"/>
<rect x="473" y="24" width="10" height="10" fill="#DD0000"/>
<rect x="474.5" y="185.5" width="9" height="9" stroke="#DD0000"/>
<rect x="470.5" y="0.5" width="4" height="4" stroke="#DD0000"/>
<rect x="471" y="161" width="5" height="5" fill="#DD0000"/>
<rect x="551.5" y="89.5" width="8" height="8" stroke="#DD0000"/>
<rect x="561" y="88" width="8" height="7" transform="rotate(-90 561 88)" fill="#DD0000"/>
<rect x="558.5" y="77.5" width="4" height="4" transform="rotate(-90 558.5 77.5)" stroke="#DD0000"/>
<rect x="550.5" y="69.5" width="4" height="4" transform="rotate(-90 550.5 69.5)" stroke="#DD0000"/>
<rect x="558" y="70" width="3" height="2" transform="rotate(-90 558 70)" fill="#DD0000"/>
<rect x="546" y="75" width="8" height="9" fill="#DD0000"/>
<defs>
<linearGradient id="paint0_linear_2540_1894" x1="68" y1="47" x2="258" y2="148" gradientUnits="userSpaceOnUse">
<stop stop-color="#DD0000"/>
<stop offset="1" stop-color="#FF9696"/>
</linearGradient>
</defs>
</svg>
